<?xml version="1.0" standalone="no"?>
<!DOCTYPE svg PUBLIC "-//W3C//DTD SVG 20010904//EN"
 "http://www.w3.org/TR/2001/REC-SVG-20010904/DTD/svg10.dtd">
<svg version="1.0" xmlns="http://www.w3.org/2000/svg"
 width="1328.000000pt" height="1328.000000pt" viewBox="0 0 1328.000000 1328.000000"
 preserveAspectRatio="xMidYMid meet">
<metadata>
Created by potrace 1.11, written by Peter Selinger 2001-2013
</metadata>
<g transform="translate(0.000000,1328.000000) scale(0.100000,-0.100000)"
fill="#000000" stroke="none">
<path d="M13237 11545 c-21 -19 -41 -35 -44 -35 -3 0 -31 -21 -63 -47 -32 -27
-72 -59 -90 -73 -18 -14 -44 -35 -59 -47 -14 -12 -64 -52 -111 -89 -47 -38
-88 -73 -92 -78 -4 -6 -8 -7 -8 -3 0 4 -11 -2 -24 -15 -37 -36 -65 -58 -75
-58 -5 0 -11 -4 -13 -8 -1 -5 -95 -82 -208 -171 -113 -89 -221 -175 -240 -191
-19 -16 -64 -51 -100 -80 -36 -28 -72 -56 -80 -63 -8 -7 -71 -57 -140 -112
-69 -54 -126 -103 -128 -107 -2 -4 -10 -8 -18 -8 -8 0 -14 -4 -14 -10 0 -5 -7
-10 -16 -10 -8 0 -12 -4 -9 -10 3 -5 1 -10 -4 -10 -10 0 -31 -15 -87 -65 -12
-11 -32 -27 -44 -35 -33 -22 -144 -113 -152 -125 -4 -5 -8 -7 -8 -2 0 4 -8 -1
-18 -10 -10 -10 -35 -31 -56 -48 -22 -16 -64 -50 -95 -75 -31 -25 -63 -50 -71
-57 -23 -18 -193 -152 -210 -166 -8 -7 -69 -55 -135 -107 -66 -52 -122 -97
-125 -100 -3 -3 -21 -17 -40 -30 -19 -13 -37 -27 -40 -31 -5 -6 -99 -83 -157
-127 -16 -12 -43 -33 -59 -47 -16 -13 -101 -80 -189 -150 -88 -69 -176 -138
-195 -154 -19 -16 -64 -52 -100 -80 -36 -28 -81 -64 -100 -80 -19 -16 -73 -59
-120 -95 -95 -75 -135 -106 -153 -121 -7 -6 -43 -35 -82 -65 -38 -30 -72 -57
-75 -60 -3 -3 -25 -21 -50 -40 -25 -19 -47 -37 -50 -40 -3 -3 -34 -28 -70 -55
-36 -28 -70 -54 -76 -60 -6 -5 -28 -23 -50 -40 -21 -16 -54 -43 -75 -60 -66
-54 -103 -83 -134 -107 -16 -12 -32 -25 -35 -29 -3 -4 -5 -394 -5 -867 1 -823
0 -860 -17 -851 -10 5 -18 13 -18 17 0 4 -9 12 -19 17 -17 9 -160 121 -201
158 -14 12 -161 131 -185 149 -17 13 -118 95 -214 173 -21 17 -54 44 -75 60
-21 17 -50 40 -65 52 -14 13 -29 23 -33 23 -3 0 -21 15 -40 33 -18 18 -51 46
-73 62 -22 17 -46 36 -53 43 -8 7 -30 25 -50 40 -21 15 -39 29 -42 32 -3 4
-63 53 -135 110 -71 57 -133 109 -137 114 -4 6 -8 7 -8 2 0 -6 -6 -3 -12 6 -7
8 -71 62 -143 119 -135 107 -169 135 -191 157 -7 6 -16 12 -21 12 -5 0 -16 8
-25 18 -9 9 -23 22 -30 27 -7 6 -33 26 -58 45 -24 19 -53 43 -65 53 -11 11
-47 40 -80 65 -33 26 -65 51 -71 57 -6 5 -28 24 -49 40 -21 17 -47 38 -57 48
-10 9 -20 17 -23 17 -3 0 -16 9 -28 21 -12 11 -87 72 -167 136 -80 63 -161
128 -180 144 -19 15 -78 62 -130 104 -52 42 -115 93 -139 113 -24 20 -51 41
-60 46 -9 5 -18 13 -21 17 -5 7 -49 43 -110 89 -18 14 -38 30 -44 35 -8 8
-240 195 -336 272 -8 6 -44 35 -80 64 -36 30 -69 57 -75 61 -5 5 -39 32 -76
61 -36 28 -82 66 -103 82 -21 17 -50 40 -64 52 -15 11 -58 46 -97 77 -38 32
-77 62 -85 69 -8 7 -42 34 -75 60 -33 27 -69 56 -80 65 -11 9 -75 61 -143 114
l-123 99 -42 -33 c-23 -18 -44 -35 -47 -39 -3 -3 -39 -32 -80 -64 -41 -33 -76
-63 -78 -67 -2 -4 -10 -8 -17 -8 -7 0 -15 -3 -17 -8 -2 -6 -53 -49 -118 -99
-8 -6 -35 -28 -58 -47 -24 -20 -48 -36 -53 -36 -5 0 -9 -7 -9 -15 0 -8 -4 -14
-8 -13 -5 2 -26 -11 -48 -29 -21 -17 -79 -63 -129 -102 -49 -40 -100 -80 -111
-91 -12 -11 -25 -20 -28 -20 -4 0 -17 -11 -30 -25 -13 -14 -29 -25 -35 -25 -6
0 -14 -7 -17 -15 -4 -8 -10 -15 -15 -15 -5 0 -17 -8 -27 -17 -10 -10 -33 -29
-52 -43 -18 -14 -38 -30 -44 -35 -6 -6 -29 -24 -51 -40 -38 -28 -74 -58 -99
-80 -6 -5 -27 -22 -48 -37 -20 -15 -42 -33 -50 -40 -7 -7 -31 -26 -53 -43 -22
-16 -45 -34 -52 -40 -16 -13 -24 -19 -123 -98 -47 -37 -92 -73 -100 -80 -8 -7
-46 -38 -85 -68 -104 -81 -107 -83 -127 -101 -10 -10 -20 -18 -23 -18 -3 0
-13 -8 -24 -17 -10 -10 -33 -29 -52 -43 -18 -14 -51 -40 -73 -58 -48 -39 -56
-46 -116 -92 -25 -19 -46 -38 -48 -42 -2 -5 -8 -8 -13 -8 -5 0 -17 -8 -27 -17
-26 -26 -102 -86 -121 -97 -9 -5 -20 -15 -26 -21 -5 -6 -41 -36 -80 -65 -38
-30 -77 -61 -86 -69 -9 -9 -29 -25 -45 -36 -15 -11 -37 -28 -48 -37 -12 -10
-39 -32 -61 -49 -74 -57 -108 -84 -119 -94 -6 -6 -29 -24 -51 -40 -22 -17 -51
-40 -65 -51 -14 -12 -65 -54 -115 -93 -49 -39 -97 -77 -105 -84 -8 -6 -35 -28
-60 -47 -25 -19 -54 -42 -65 -52 -11 -9 -49 -39 -85 -67 -36 -29 -72 -57 -80
-64 -8 -7 -82 -65 -165 -130 -82 -65 -159 -126 -170 -135 -11 -10 -40 -33 -65
-52 -25 -18 -49 -38 -55 -44 -5 -6 -37 -31 -70 -56 -33 -25 -65 -49 -71 -55
-16 -14 -58 -48 -231 -185 -83 -66 -155 -126 -160 -132 -4 -7 -9 -406 -11
-885 -3 -786 -1 -872 12 -867 9 3 16 11 16 17 0 6 3 8 6 4 3 -3 14 2 23 11 27
26 63 55 91 73 14 10 34 25 45 36 11 10 40 34 65 53 25 19 47 37 50 40 3 3 25
21 50 40 25 19 47 37 50 40 3 3 25 21 50 40 25 19 52 40 60 47 8 7 56 44 105
83 50 39 99 79 110 88 11 9 36 29 55 43 19 15 46 36 60 48 34 28 30 25 165
131 66 52 127 100 135 107 8 8 44 37 80 65 36 28 67 54 68 59 2 5 8 9 13 9 9
0 19 7 88 65 20 17 40 33 46 37 5 5 28 23 51 40 22 18 53 42 68 53 16 11 34
25 41 32 7 6 73 60 146 118 74 58 141 111 149 118 8 7 35 28 60 47 25 19 56
44 70 57 14 12 84 67 155 123 143 112 198 156 226 183 11 9 19 14 19 10 0 -5
4 -3 8 3 6 9 117 99 257 209 21 17 44 36 51 43 7 6 17 12 23 12 6 0 11 3 11 8
0 4 30 30 68 59 37 28 77 60 89 70 12 10 36 29 54 43 73 57 155 122 174 138
11 10 40 33 65 52 25 19 50 39 56 45 6 5 26 22 45 36 190 148 445 353 447 360
2 5 8 9 14 9 6 0 20 9 32 20 30 27 172 140 225 178 24 18 40 32 36 32 -4 0 10
12 32 28 38 25 91 67 144 113 12 10 25 19 28 19 3 0 20 14 38 30 18 17 37 30
42 30 6 0 11 4 11 9 0 16 50 42 64 34 7 -4 30 -21 50 -38 21 -16 54 -43 75
-60 20 -16 55 -44 77 -62 21 -17 66 -53 99 -80 33 -26 68 -55 79 -63 10 -8 30
-25 44 -37 14 -13 28 -23 31 -23 3 0 21 -14 40 -30 18 -16 49 -42 68 -57 20
-15 41 -32 47 -38 12 -11 102 -83 161 -130 21 -16 43 -35 49 -40 6 -6 29 -24
51 -40 22 -17 51 -40 65 -52 21 -18 193 -156 225 -180 20 -16 120 -98 125
-103 3 -3 21 -17 40 -31 19 -15 53 -43 75 -62 22 -20 44 -37 49 -37 5 0 14 -6
20 -14 6 -7 56 -49 111 -92 55 -43 102 -81 105 -84 3 -4 43 -36 90 -74 47 -37
103 -82 124 -99 22 -18 54 -43 73 -56 18 -13 33 -28 33 -33 0 -4 5 -8 10 -8 6
0 23 -11 38 -24 27 -24 67 -58 87 -73 35 -27 161 -128 165 -132 3 -4 34 -28
70 -56 36 -27 72 -57 80 -65 9 -8 31 -26 50 -40 18 -14 38 -30 44 -35 6 -6 29
-24 51 -40 21 -17 46 -37 55 -45 9 -9 34 -29 55 -45 22 -17 54 -42 70 -57 17
-16 33 -28 37 -28 3 0 20 -13 36 -30 17 -16 35 -30 40 -30 6 0 12 -4 14 -8 2
-4 23 -23 48 -42 24 -19 50 -40 58 -47 7 -7 34 -29 60 -50 26 -21 52 -42 59
-48 7 -5 18 -15 25 -20 28 -22 214 -171 232 -185 10 -8 23 -20 30 -25 6 -6 43
-35 81 -65 39 -30 77 -61 85 -70 8 -8 23 -19 32 -25 16 -10 568 -453 578 -465
3 -3 21 -17 42 -32 20 -15 42 -33 50 -40 16 -16 89 -72 103 -80 7 -4 11 203
12 610 1 340 2 730 3 868 l1 252 76 58 c41 33 83 66 93 74 41 33 57 46 100 80
25 19 47 37 50 40 3 3 21 17 42 32 20 15 42 33 50 41 7 7 54 44 103 82 50 38
92 72 95 75 3 3 34 28 69 55 35 28 71 57 80 65 9 9 38 31 64 49 26 19 47 38
47 43 0 4 5 8 11 8 6 0 16 6 23 13 7 6 30 26 51 42 20 17 42 35 49 40 6 6 27
22 46 35 19 14 46 35 60 47 14 13 77 64 140 114 63 50 131 103 150 119 19 16
53 42 75 59 38 29 81 63 108 86 7 6 30 23 52 40 21 16 46 36 55 45 9 8 32 27
52 42 20 15 43 35 52 44 9 8 16 12 16 7 0 -4 7 3 16 15 8 12 19 22 24 22 8 0
51 34 91 73 11 9 22 17 25 17 4 0 23 15 44 33 38 33 43 37 120 97 63 49 138
109 230 183 8 7 42 34 75 60 33 26 66 53 74 60 8 6 29 22 45 35 17 12 45 34
61 47 17 14 71 57 120 96 113 89 162 129 186 152 11 9 22 17 27 17 4 0 15 8
24 18 9 9 23 22 30 27 7 6 33 26 58 45 25 18 52 41 61 49 9 9 29 25 44 36 16
11 42 32 59 47 17 15 34 28 38 28 4 0 14 8 24 17 9 10 44 39 78 66 34 26 75
58 91 72 17 13 55 43 85 67 30 25 111 89 180 143 69 55 127 103 128 107 2 4
10 8 18 8 8 0 14 3 14 8 0 4 32 32 71 61 39 30 76 60 83 66 6 6 76 62 156 125
80 63 150 118 155 122 6 5 25 21 44 37 l33 28 4 881 c2 485 3 882 1 882 -1 0
-19 -16 -40 -35z"/>
<path d="M4339 6998 c-1 -3 -6 -847 -9 -1467 -1 -161 2 -297 7 -301 4 -4 68
-56 142 -115 74 -59 140 -113 148 -121 8 -8 17 -14 21 -14 4 0 21 -12 37 -28
17 -15 64 -54 105 -87 41 -33 80 -63 85 -67 6 -5 21 -18 35 -29 14 -11 40 -33
59 -47 126 -100 257 -205 261 -211 3 -4 25 -22 50 -41 51 -38 65 -50 98 -80
12 -11 26 -20 31 -20 5 0 11 -3 13 -8 2 -4 26 -25 53 -47 28 -22 61 -50 74
-62 12 -12 32 -25 42 -28 10 -4 19 -10 19 -15 0 -4 24 -25 53 -46 28 -21 57
-44 62 -50 6 -6 28 -24 50 -40 21 -16 46 -36 55 -44 9 -8 33 -28 54 -45 21
-16 91 -72 155 -124 64 -51 170 -136 236 -189 66 -52 128 -103 137 -111 9 -9
35 -29 57 -45 23 -17 41 -33 41 -38 0 -4 6 -8 14 -8 8 0 16 -3 18 -7 2 -5 28
-28 58 -53 30 -25 57 -47 60 -50 3 -3 23 -19 45 -35 37 -27 70 -54 99 -80 6
-5 27 -22 48 -37 20 -15 43 -35 52 -44 9 -8 16 -13 16 -10 0 3 10 -5 23 -17
12 -12 40 -35 61 -52 22 -16 51 -40 65 -52 14 -13 31 -26 36 -30 6 -5 30 -24
55 -43 25 -19 47 -37 50 -40 3 -3 39 -33 80 -65 41 -33 77 -62 80 -65 3 -3
106 -86 230 -184 124 -99 227 -182 230 -186 3 -3 33 -27 67 -53 34 -26 68 -53
75 -60 41 -38 169 -137 178 -137 5 0 10 -4 10 -9 0 -5 24 -27 53 -49 28 -22
65 -51 81 -64 95 -77 203 -164 214 -173 7 -5 22 -18 33 -27 10 -10 19 -15 19
-11 0 4 6 0 13 -8 6 -9 37 -35 67 -60 30 -24 57 -47 58 -51 2 -5 10 -8 17 -8
7 0 15 -5 17 -11 2 -7 40 17 84 52 44 35 97 78 119 94 96 75 150 120 153 127
2 4 8 8 13 8 5 0 17 8 27 17 10 10 30 27 46 38 15 11 41 31 56 45 15 14 40 34
56 45 30 22 335 264 372 296 12 10 26 19 31 19 5 0 11 4 13 9 3 8 78 70 158
131 18 14 49 40 69 57 20 18 39 33 43 33 4 0 20 11 35 25 15 14 33 28 38 32
66 52 151 119 155 123 3 3 41 33 85 68 44 34 87 67 95 74 8 7 62 50 120 96 58
46 117 94 132 107 16 13 28 21 28 19 0 -3 11 6 24 20 13 15 26 26 30 26 3 0
15 8 25 18 11 9 26 22 33 27 29 22 214 170 224 180 7 5 24 19 40 30 24 17 56
43 101 80 18 15 30 25 113 90 41 32 77 63 78 67 2 4 10 8 18 8 8 0 14 5 14 10
0 6 8 14 17 17 10 4 27 16 38 28 11 12 36 32 55 45 32 22 62 47 94 75 6 6 29
23 51 39 22 17 42 33 45 36 3 3 25 21 50 40 58 45 67 52 116 92 22 18 58 47
79 63 73 57 100 80 103 88 2 4 8 7 12 7 5 0 26 16 47 35 21 19 41 35 45 35 4
0 20 11 35 25 25 23 71 60 199 160 91 72 360 286 372 296 8 6 102 81 210 166
109 86 203 162 210 171 6 9 12 12 12 6 0 -5 6 0 12 11 9 14 12 135 13 417 1
219 4 400 8 404 4 4 2 13 -4 20 -7 9 -7 19 -1 30 6 11 7 27 1 42 -6 16 -6 29
1 37 5 6 7 14 4 17 -9 9 -10 198 -1 198 4 0 4 7 -1 17 -5 9 -6 29 -2 44 5 15
6 30 3 32 -3 4 -6 219 -3 230 6 16 3 277 -3 277 -7 0 -88 -60 -107 -80 -3 -3
-21 -17 -42 -32 -20 -15 -42 -33 -50 -40 -7 -7 -87 -71 -178 -142 -91 -71
-169 -134 -175 -140 -5 -6 -28 -24 -50 -41 -22 -16 -45 -34 -51 -40 -7 -5 -24
-19 -39 -29 -14 -11 -34 -27 -45 -35 -10 -9 -35 -29 -56 -46 -21 -16 -87 -70
-148 -118 -61 -48 -118 -93 -126 -100 -8 -7 -29 -23 -46 -37 -17 -14 -45 -36
-64 -50 -31 -23 -229 -180 -295 -234 -16 -14 -82 -66 -145 -116 -63 -50 -130
-103 -149 -118 -19 -15 -53 -41 -75 -59 -23 -18 -49 -39 -58 -47 -9 -8 -39
-32 -67 -52 -28 -21 -51 -42 -51 -46 0 -4 -4 -8 -10 -8 -10 0 -44 -26 -82 -62
-10 -10 -20 -18 -24 -18 -3 0 -19 -13 -37 -30 -18 -16 -35 -30 -38 -30 -3 0
-17 -9 -30 -21 -13 -11 -39 -33 -58 -47 -49 -39 -162 -131 -189 -153 -12 -10
-24 -19 -27 -19 -3 0 -13 -8 -23 -17 -10 -10 -34 -30 -53 -45 -49 -37 -292
-230 -306 -243 -35 -30 -43 -35 -53 -35 -6 0 -9 -4 -6 -9 3 -5 -1 -11 -9 -14
-17 -7 -259 -198 -263 -209 -2 -4 -8 -8 -13 -8 -5 0 -17 -8 -27 -17 -10 -10
-33 -29 -52 -43 -19 -14 -42 -33 -52 -42 -10 -10 -22 -18 -27 -18 -5 0 -11 -3
-13 -8 -1 -4 -25 -25 -53 -47 -27 -22 -52 -42 -55 -45 -3 -3 -23 -19 -45 -35
-46 -34 -81 -63 -107 -87 -10 -10 -18 -16 -18 -13 0 5 -38 -26 -69 -55 -9 -8
-32 -26 -51 -40 -19 -13 -39 -30 -43 -37 -4 -7 -15 -13 -22 -13 -8 0 -15 -4
-15 -8 0 -4 -23 -25 -51 -46 -65 -48 -85 -65 -120 -98 -16 -15 -29 -25 -29
-22 0 5 -27 -16 -119 -91 -13 -11 -33 -28 -43 -38 -10 -9 -21 -17 -26 -17 -4
0 -15 -8 -23 -17 -9 -10 -29 -27 -44 -38 -16 -11 -41 -30 -56 -43 -15 -12 -30
-22 -33 -22 -5 0 -50 35 -131 102 -11 9 -69 56 -130 105 -60 48 -115 92 -122
98 -6 5 -24 20 -40 32 -15 12 -39 31 -53 42 -14 11 -29 24 -35 28 -38 30 -111
89 -115 93 -3 3 -27 23 -55 45 -27 22 -55 44 -62 50 -7 5 -18 15 -25 20 -24
18 -163 130 -175 140 -6 6 -24 20 -40 32 -15 12 -43 35 -62 52 -19 17 -38 31
-41 31 -4 0 -18 10 -31 23 -13 13 -44 38 -69 57 -43 33 -80 63 -104 85 -6 6
-27 22 -48 37 -20 15 -42 33 -50 40 -7 7 -29 25 -50 40 -20 15 -42 33 -50 40
-7 8 -44 38 -83 68 -80 63 -108 86 -143 118 -14 12 -28 22 -31 22 -3 0 -22 14
-41 31 -19 17 -70 58 -112 91 -43 33 -78 64 -78 69 0 5 -7 9 -15 9 -7 0 -18 6
-22 13 -4 6 -33 31 -63 54 -30 23 -70 55 -89 72 -19 17 -37 31 -40 31 -4 0
-17 10 -31 23 -14 12 -59 49 -100 82 -41 32 -76 63 -78 67 -2 4 -8 8 -12 8 -5
0 -19 10 -32 23 -13 12 -36 31 -52 42 -15 11 -41 31 -56 45 -16 14 -43 36 -61
50 -46 35 -111 88 -129 103 -8 8 -49 41 -90 73 -41 33 -84 67 -95 76 -11 9
-60 49 -110 89 -49 39 -99 78 -110 87 -11 10 -54 44 -95 77 -41 33 -76 63 -78
68 -2 4 -10 7 -17 7 -7 0 -15 4 -17 9 -2 7 -71 65 -158 134 -62 49 -167 133
-177 142 -6 5 -26 21 -45 35 -18 14 -43 35 -56 48 -13 12 -25 22 -28 22 -3 0
-40 28 -127 100 -7 5 -32 26 -57 46 -25 20 -54 43 -65 52 -11 10 -56 45 -100
80 -44 35 -92 74 -107 88 -14 13 -31 24 -38 24 -6 0 -9 4 -5 9 3 5 -3 12 -13
15 -10 4 -28 15 -40 27 -12 11 -22 18 -23 17z"/>
</g>
</svg>
