<?xml version="1.0" standalone="no"?>
<!DOCTYPE svg PUBLIC "-//W3C//DTD SVG 20010904//EN"
 "http://www.w3.org/TR/2001/REC-SVG-20010904/DTD/svg10.dtd">
<svg version="1.0" xmlns="http://www.w3.org/2000/svg"
 width="700.000000pt" height="700.000000pt" viewBox="0 0 700.000000 700.000000"
 preserveAspectRatio="xMidYMid meet">
<metadata>
Created by potrace 1.14, written by Peter Selinger 2001-2017
</metadata>
<g transform="translate(0.000000,700.000000) scale(0.100000,-0.100000)"
fill="#000000" stroke="none">
<path d="M3600 6106 c-3 -2 -23 -7 -45 -10 -22 -3 -78 -25 -125 -48 -117 -57
-203 -145 -290 -297 -36 -63 -76 -133 -89 -155 -34 -59 -210 -365 -233 -406
-11 -19 -44 -75 -73 -125 -29 -49 -61 -106 -72 -125 -11 -19 -46 -80 -78 -135
-32 -55 -69 -120 -83 -145 -13 -25 -28 -49 -32 -55 -4 -5 -19 -30 -32 -55 -14
-25 -76 -133 -138 -240 -63 -107 -128 -220 -145 -250 -18 -30 -58 -100 -90
-155 -32 -55 -70 -122 -83 -150 -81 -159 -79 -362 3 -526 32 -64 42 -79 97
-140 161 -179 450 -235 678 -131 138 63 207 141 367 419 72 125 204 354 293
508 89 154 176 305 192 335 17 30 34 60 38 65 4 6 18 28 30 50 13 22 33 58 45
80 13 22 119 207 237 410 269 464 261 449 280 515 25 84 31 119 30 190 -1 68
-3 79 -21 147 -28 102 -107 230 -178 286 -13 10 -29 24 -36 32 -23 22 -118 69
-187 91 -59 19 -247 34 -260 20z"/>
<path d="M4378 4085 c-2 -2 -18 -7 -36 -10 -77 -13 -199 -78 -267 -142 -60
-56 -94 -104 -179 -253 -43 -74 -81 -142 -87 -150 -5 -8 -54 -94 -109 -190
-55 -96 -104 -182 -109 -190 -5 -8 -56 -96 -113 -194 -57 -99 -114 -198 -127
-220 -13 -23 -94 -162 -179 -311 -445 -771 -432 -747 -447 -850 -25 -174 18
-333 122 -462 26 -32 57 -66 70 -76 13 -10 30 -25 37 -33 8 -8 45 -30 83 -48
237 -120 503 -78 688 109 39 38 77 84 85 100 8 17 17 32 21 35 3 3 25 41 48
85 24 44 49 87 56 95 7 8 28 44 47 80 19 36 144 254 278 485 596 1030 720
1246 745 1294 50 100 73 246 54 348 -5 26 -11 59 -14 71 -6 36 -60 147 -92
189 -83 113 -199 191 -335 226 -51 13 -230 22 -240 12z"/>
</g>
</svg>
