<?xml version="1.0" standalone="no"?>
<!DOCTYPE svg PUBLIC "-//W3C//DTD SVG 20010904//EN"
 "http://www.w3.org/TR/2001/REC-SVG-20010904/DTD/svg10.dtd">
<svg version="1.0" xmlns="http://www.w3.org/2000/svg"
 width="768.000000pt" height="768.000000pt" viewBox="0 0 768.000000 768.000000"
 preserveAspectRatio="xMidYMid meet">
<metadata>
Created by potrace 1.11, written by Peter Selinger 2001-2013
</metadata>
<g transform="translate(0.000000,768.000000) scale(0.100000,-0.100000)"
fill="#000000" stroke="none">
<path d="M7648 6677 c-7 -7 -35 -30 -63 -52 -27 -22 -52 -42 -55 -45 -3 -3
-34 -27 -70 -55 -36 -27 -67 -52 -70 -55 -3 -3 -48 -39 -100 -80 -52 -41 -96
-78 -98 -82 -2 -5 -8 -8 -13 -8 -5 0 -17 -8 -27 -17 -37 -36 -72 -63 -81 -63
-5 0 -11 -3 -13 -7 -1 -5 -28 -28 -58 -53 -63 -51 -54 -44 -140 -111 -36 -28
-81 -64 -101 -80 -19 -16 -130 -103 -245 -195 -115 -91 -222 -177 -238 -190
-16 -13 -43 -34 -59 -46 -46 -36 -542 -429 -570 -453 -7 -6 -32 -26 -57 -45
-25 -19 -54 -42 -65 -52 -18 -15 -76 -61 -181 -143 -21 -16 -56 -45 -78 -63
-44 -36 -50 -41 -111 -88 l-40 -32 0 -496 c0 -273 -2 -496 -4 -496 -5 0 -64
45 -83 62 -7 8 -44 38 -83 68 -38 30 -75 59 -81 65 -6 5 -28 24 -50 40 -21 17
-48 39 -61 50 -12 11 -44 36 -70 55 -27 19 -52 40 -58 46 -5 6 -102 85 -215
174 -113 90 -207 166 -210 170 -3 3 -25 21 -50 40 -25 19 -54 42 -65 52 -18
15 -150 122 -236 190 -19 14 -44 35 -55 45 -12 10 -39 32 -60 48 -20 17 -66
53 -100 80 -34 28 -77 61 -95 75 -18 14 -37 30 -43 35 -6 6 -34 28 -61 50 -28
22 -55 44 -61 50 -6 5 -28 24 -50 40 -31 25 -119 96 -184 148 -8 7 -71 57
-140 112 -69 56 -134 108 -145 117 -17 14 -87 70 -155 125 -8 6 -41 33 -73 58
l-57 46 -43 -33 c-23 -18 -46 -36 -52 -41 -43 -33 -254 -202 -270 -216 -11 -9
-38 -30 -60 -46 -40 -30 -50 -38 -81 -64 -8 -7 -50 -41 -92 -74 -43 -34 -83
-67 -90 -74 -7 -7 -16 -13 -20 -13 -4 0 -24 -15 -44 -33 -21 -17 -50 -42 -65
-54 -16 -12 -67 -52 -114 -90 -47 -37 -102 -81 -123 -98 -21 -16 -46 -37 -56
-45 -10 -8 -31 -25 -47 -37 -82 -65 -211 -167 -228 -181 -11 -9 -60 -48 -109
-87 -49 -38 -114 -90 -145 -115 -31 -25 -110 -88 -176 -140 -66 -52 -127 -100
-135 -107 -13 -11 -130 -104 -229 -181 -18 -15 -41 -34 -51 -42 -18 -15 -35
-28 -110 -87 -20 -15 -42 -34 -50 -40 -8 -7 -51 -42 -96 -77 l-81 -64 -1 -507
c-1 -397 1 -504 11 -498 15 9 235 182 462 363 94 75 229 182 300 239 72 56
139 110 150 119 11 9 128 102 260 207 262 207 272 215 289 230 6 6 40 33 76
60 35 28 73 57 85 67 25 20 106 85 120 96 11 8 120 95 146 116 8 7 80 64 160
126 79 63 149 119 155 125 6 5 26 21 44 35 18 14 43 33 54 42 26 22 93 75 137
110 19 14 51 40 73 57 l38 31 60 -47 c33 -26 70 -56 82 -68 13 -11 30 -24 39
-30 11 -7 366 -292 536 -430 9 -8 81 -66 161 -130 80 -64 154 -124 165 -133
11 -10 40 -33 65 -52 25 -19 51 -40 58 -48 8 -7 30 -25 50 -40 21 -15 39 -29
42 -33 3 -3 108 -88 235 -189 126 -101 237 -190 245 -197 28 -22 105 -84 120
-96 60 -48 116 -93 120 -97 3 -3 50 -41 105 -84 55 -43 105 -85 111 -92 6 -8
16 -14 22 -14 6 0 12 -3 14 -7 3 -8 30 -30 99 -85 19 -14 44 -35 56 -45 12
-10 36 -29 53 -43 18 -14 50 -40 72 -58 22 -17 41 -32 41 -32 1 0 2 219 2 488
0 268 4 496 8 507 5 11 52 54 104 95 53 41 104 82 113 90 10 8 31 25 47 37 41
33 296 236 308 245 6 5 21 18 35 29 14 11 38 30 53 42 44 34 141 111 153 122
6 6 26 21 44 35 66 49 145 115 148 122 2 4 8 8 13 8 5 0 21 11 36 25 16 14
111 90 213 171 102 80 195 154 207 164 12 11 64 52 115 91 51 40 98 78 104 83
6 6 26 22 44 36 18 14 42 33 54 42 11 10 26 21 31 25 6 5 32 26 60 48 27 22
56 45 65 52 8 6 47 37 85 68 39 30 83 66 99 78 15 12 33 27 40 32 6 6 67 55
136 109 118 92 142 112 215 171 l30 25 2 505 c2 300 -1 505 -6 505 -5 0 -16
-6 -23 -13z"/>
<path d="M2509 3943 c0 -59 -1 -287 -2 -507 -2 -261 1 -402 8 -410 5 -7 33
-30 60 -51 28 -22 55 -44 62 -50 7 -5 18 -15 25 -20 7 -6 139 -112 293 -235
269 -215 294 -236 335 -270 9 -8 32 -26 50 -40 19 -14 65 -51 104 -83 39 -32
78 -64 86 -70 57 -46 116 -93 120 -97 3 -3 84 -68 180 -144 96 -77 177 -143
178 -148 2 -4 8 -8 14 -8 6 0 16 -6 22 -14 6 -7 67 -57 136 -111 69 -55 127
-102 130 -105 3 -3 25 -21 50 -40 25 -19 51 -40 58 -48 8 -7 30 -25 50 -40 21
-15 39 -29 42 -32 4 -4 147 -119 190 -153 8 -7 40 -32 70 -57 30 -25 60 -48
65 -53 30 -22 192 -153 203 -164 10 -10 22 -6 57 19 25 18 45 35 45 40 0 4 6
8 14 8 8 0 16 4 18 8 2 4 68 59 148 122 80 63 147 118 148 122 2 5 8 8 12 8 5
0 20 10 34 22 13 13 30 28 38 33 7 6 63 50 123 98 61 48 123 97 139 110 15 12
33 27 40 32 6 6 31 26 56 45 25 19 50 39 57 45 7 5 18 15 25 20 41 32 255 201
265 210 7 5 18 15 25 20 66 52 115 92 126 103 7 6 16 12 20 12 4 0 21 13 37
28 17 15 62 52 100 82 39 30 75 59 82 65 6 5 26 21 44 35 34 26 153 121 178
141 7 7 34 28 60 47 25 19 48 38 51 42 3 3 21 17 40 30 19 13 40 29 45 36 6 6
55 46 110 89 55 43 102 82 103 87 2 4 10 8 17 8 7 0 15 3 17 8 2 5 240 197
306 248 2 1 4 231 5 512 l3 510 -86 -66 c-47 -36 -92 -72 -100 -79 -13 -11
-48 -39 -120 -96 -111 -88 -306 -243 -310 -247 -3 -3 -34 -27 -70 -55 -36 -27
-74 -57 -85 -67 -17 -15 -137 -110 -280 -223 -21 -16 -75 -59 -120 -95 -45
-36 -97 -77 -116 -92 -19 -14 -44 -35 -55 -45 -12 -10 -36 -29 -54 -43 -30
-23 -226 -178 -280 -221 -14 -11 -60 -48 -103 -82 -65 -51 -228 -180 -392
-312 -297 -237 -386 -305 -395 -305 -10 0 -65 41 -130 97 -16 14 -74 60 -134
108 -21 17 -80 63 -130 104 -50 40 -106 85 -124 100 -18 14 -43 34 -55 44 -12
10 -37 31 -56 45 -29 23 -77 62 -132 106 -8 7 -129 104 -269 216 -140 112
-263 211 -273 219 -26 22 -109 89 -126 103 -7 6 -34 27 -60 46 -25 20 -52 42
-59 49 -8 7 -30 26 -50 41 -21 15 -42 32 -48 37 -6 6 -26 21 -44 35 -18 14
-38 30 -44 35 -6 6 -137 112 -291 235 -331 266 -295 237 -375 302 -36 29 -85
68 -108 86 l-42 34 -1 -109z"/>
</g>
</svg>
