<svg xmlns="http://www.w3.org/2000/svg" viewBox="0 0 512.01 441.59"><title>openbsd</title><path d="M292.16,33.45c-4.32,10-3.12,21.77-6.26,32.21-0.73,2.4-3.09,9.66-6.56,9.16-7.11-1-3.47-14.68-11.67-14.94l2.6,20C258,81.31,259.6,62.14,254.6,54.33c-5.77-9-7.14,4.07-6.75,8.1,0.25,2.58.76,5.14,1.05,7.72A50.19,50.19,0,0,1,249,83c-11.77-.13-7.42-15.6-16.06-18l0.62,18.66c-13-.1-19-11.87-24.73-21.89-2.39-4.17-5.6-12.21-11.32-9.65,2.69,11.59,9,22.65,9.69,34.71,0.16,3.12-2.76,11.06-7.08,9.59-10-3.37-8.64-21.5-17-26.27-1.68-1-4.36-.13-6.22,0,0,9.62,4.26,21.27,7.61,30.28,0.73,1.93,2.73,8.76-1.48,8.62-7.54-.22-9.41-14.84-17.07-13.16,0.93,3.95,3.28,7.15,4.59,10.94,0.8,2.32,2.32,4.67,2.75,7.08,0.93,5.28-5.79,5.7-9.26,4.67-8.19-2.42-14.1-9.08-20-14.94-1.62-1.62-5.94-7.42-8.58-4.78-3,2.89,3,7.94,4.59,9.88,5,5.79,10.39,12.59,12.82,20,1,3.18,1.22,7.66-1.93,9.84s-8.24-1.72-10.74-3.37c-7.72-5.08-15.36-14-25.07-14.17l-2.27,5.79,6.17,8.39,16.06,18-18.7-7.72c0.76,4.88,12.47,10.79,10.17,15.81-1.37,3-8.13,3-10.8,2.66-9.51-1.35-16.33-8.4-25.11-10.94-7.82-2.24-6.35,3.78-1.93,7.27,1.48,1.22,3,2.52,4.53,3.81,2.67,2.3,5.22,4.65,7.72,7.14,3.9,3.9,7.33,8.09,10.94,12.24l-18.66-.67v1.31l18,8.39-3.24,12.87a34.27,34.27,0,0,1-14.17-3.52c-3.22-1.41-6.6-3.73-10.27-3.47-4.45.31-7,4.32-4.05,8,4.45,5.61,13.22,8.8,18.85,13.16,2.15,1.66,5.22,4.53,2.79,7.42-4.81,5.62-17.74-1.57-24.06.28v1.25c5.94,3.43,17.9,5.4,21.36,11.71,2.7,4.94-5,16.1-10.39,15.67-4.84-.39-9.29-5.86-12.87-8.73-8.55-6.87-17.71-14.93-27.66-19.66-17.1-8.13-34.13,4.82-47.62,13.25,1.74,5.46,8.58-.34,12.87.62,5.79,1.31,10.18,6.68,13.88,10.94,17.91,20.63,32.93,44,39.63,70.82,1.77,7,4.78,15.43-.47,21.74-1.48,1.69-3.55,1.93-5.11,3.32a1.65,1.65,0,0,0,.53,3c3,0.91,7.23-.5,10.12-1.2,9.44-2.27,20.24-7.42,24.53-16.64,2.67-5.77,3.59-17,10.23-19.29,1.48,6.19,8.44,14.37,7.76,20.58-0.61,5.54-6.43,11.87-9.84,16-1.2,1.48-4.16,4.66-2.4,6.75s5.33-2.4,6.41-3.43c4.88-4.62,15.57-11.87,18.46-1.31,2.52,9.2-5.6,24.06-9.65,32.16-1.13,2.26-6.31,9.31-4.29,11.87,2.33,3,7.26-4.66,8.3-6,4.05-5.31,18.24-21,25.79-15.38,9.2,6.9,6,11.87,2.55,21.16-1,2.64-4.63,9.26-2.17,11.77s5.54,0.19,6.75-2.12c2.21-4.19,8.13-16.62,14.07-13.45,3.73,2,9.41,5.34,11.58,9.07,3.38,5.8.47,17.41-.43,23.75-0.52,3.64-4.45,15-1.2,17.6,3,2.42,5.42-4.87,6.32-6.65a82.86,82.86,0,0,1,11.58-18c1.69-1.9,4.07-5.08,6.95-4.53,14.94,2.8-.3,17.71,5.83,25.3,1.25,1.48,4.6,1.4,6.41,1.74L222.71,421c3.93,1.48,9.69,2,12.59,5.25,2.43,2.73,3,7.33,3.62,10.8,2,9.69,3.07,19.13,1.83,29,1.22,0.88,3.13,3,4.78,1.88,2.08-1.32,2.37-6.75,3.09-8.9a163.46,163.46,0,0,1,8.87-20.76c2.12-4.45,7.93-9.11,12.1-3s2.54,17.17,5.21,24.29c6.84-3.37,7.57-17.63,7.72-24.49l8.9,1.31,5.36,10.94L306.35,475c5-1.9,3.44-11.49,4-16.1,0.76-6.25,2.17-18.77,6.75-23.43,1.84-1.87,5.57-2,8-3,2.73,6.66,4.21,14.2,7.52,20.58,1.29,2.48,4.21,5.13,7.18,3.62s2.73-4.76,2.36-7.42c-0.89-6.66-2.4-13.24-3-20,12.76-.91,20.23,9.42,28.2,18,3.1,3.32,5.8,7.73,10.39,9L371.15,437l-3.68-18.11c4.63-1.94,14.41-11.41,19.29-10,7.27,2,12.82,22.26,21.83,17.5,3.84-2,1.86-5.46,0-8.15-2.69-4-10.76-13.62-9.88-18.66,0.65-3.73,6.87-8.06,10.51-8,8.34,0.12,22.84,6.46,27.66,13.16l5.79-.62c-0.86-11.52-18.12-16.81-20.58-28.35a8.56,8.56,0,0,1,.09-3.67C424,364.7,428.43,368,433,370c1.48,0.62,4.56,2.21,5.74.43s-1-4.54-1.83-6.17c-1.74-3.34-3.32-7.2-2.6-10.94,6,1.57,9.72,5.15,14.84,8.53,1.2,0.8,3.83,2.8,5.36,1.69s-0.74-3.56-1.48-4.45c-2.27-2.63-9.22-9-8.53-12.82,0.46-2.58,4.82-5.36,6.6-7.14,5.94-5.94,12.57-11.87,17.35-18.66h0.67c11.37,13.25,47,3.95,42.48-16.1-2.83.4-5.49,2.64-8.39,1.63-12.67-4.36-9.62-24.65-23.75-24.78-1.05-13.24-6.35-26.49-12.78-38-3-5.27-9.05-10.11-11.19-15.48-1.19-3-1-7.67-1.11-10.89,7.42-1.16,3.77-8.7,1.05-12.87-3-4.65-6.2-10.15-10.12-14.07-4.81-4.82-12-8-11.38-16.15,0.58-7.61,13.68-6.68,15.91-13.55A96.3,96.3,0,0,0,438.29,162c-9.56,1.59-11.22-1.6-6.75-10.12,3.9-7.42,10.09-13.1,15.57-19.29,1.75-2,7.17-6.52,4.45-9.39-2.3-2.39-6.1,1.26-8,2.55a90.32,90.32,0,0,1-23.18,10.7c-2.42.76-9.56,3.52-10.39-.77-1.1-5.79,9.87-6.84,8.43-13.36-4.45,1-13,7.94-17.22,4.72-5.08-3.86,2.39-13.73,3.18-18.27s-2.89-4.76-5.49-1.88c-0.91,1-1.77,2.11-2.6,3.18a26.27,26.27,0,0,0-3.62,5.79c-10.54-6.16,9.39-13.36,5.64-19-1.34-2-3.77,0-5,1.05-2.51,2.2-11.87,13-14,5.06-2.27-8.8,2.32-19.37,4.67-27.66,0.62-2.17,3.43-8,.73-9.54-3.95-2.27-5.73,5.37-6.65,7.61a49.82,49.82,0,0,1-13.12,17.93c-1.83,1.63-4.93,4.81-7.66,4.05-4-1.1-4-12.14-3.9-15.52,0-1.6,1-4.45-.58-5.6-2-1.48-3.12,1.48-3.43,3-1,4.73-4,18.27-11,9.39-6.35-8,3.52-24.68-9.45-28L321.85,81c-8.49-1.86-6.63-14-4.53-20.58l-3.86-1.31a71.06,71.06,0,0,1-2.36,7.76c-3.43,9.63-8,11.49-11.58.62-2.7-8.28-1.74-17.23-3.09-25.75-0.53-3.4-.83-6.86-4.2-8.39h0Zm0.62,19.29c3.25,7.75-.18,17.44,5.06,25.07s15.26,3.61,21.74,8.49c2.3,1.74.47,5.43-.15,7.61-2.12,7.42-5.94,12.91-9.93,19.29,14-7.14,18.66-27.53,20.58-41.84h0.67c-0.55,12.73-.15,25.23,0,38,0,5.77-.79,12.39,5.79,13.51V93.33c6.9,2,17.25,10.72,24.73,8.15,3.81-1.31,7.27-5.94,9.93-8.77a38.23,38.23,0,0,0,5.21-7.08h0.67l-2.6,20.58-6.41-1.31L382.25,115l5.55,4.82-4.29,6.26-18.66,13.55c13.59-2,20.47-12,30.28-20-3.18,13.43-10.48,27-7.08,41.21h0.62l7.72-30.9c5.85,2.78,7.93,10.15,13.55,13.51,8.16,4.85,19.56-4.45,27-7.08-4.85,6.89-12.17,11.68-13.51,20.58l-5.79-2.55c5,12.94,11,25.36,13.21,39.24,2,12.67-.53,25.23.34,38,0.4,5.94,2.83,11,3.81,16.73-12,4.08-14.22,20.88-25.75,26.37,0.92-4,2.36-8,2.36-12.2,0-3-1.48-6-.62-9,1.48-5.94,6.68-10.83,8.77-16.73,3.25-9.17,1.05-17.81-.19-27l6.41,0.62-16.15-25.07-8-12.24,3-8.34c-16.33,12.5-39.85,25.32-39.92,48.89l5.79-1.93,1.93,14.17-9,1.31v1.25c7.52,2.12,15.42,3.16,22.56,6.52,5.19,2.43,11,5.65,14.56,10.23C412.54,260.37,403,284,394,298c-4.54,7-12.67,13.49-15.67,21.21,8.15-2,12.33-9.71,16.92-16.06,1.94-2.69,3.62-6.47,6.95-7.72,5.13-1.93,6.81,7.52,7.91,10.89,1.4,4.24,4.68,11.67,3.87,16.12-1.48,8.56-8.9,14.14-7.27,23.75,3.53-4.3,4.6-12.85,10.27-14.94,3.61-1.34,7.42,2,10.94,2.51a26.28,26.28,0,0,0,21.25-6.86c6.08-5.61,10.24-14.62,8.73-23.09-0.92-5.11-3.77-10.12-3.43-15.42,0.28-4.27,3.12-7.76,4.67-11.62,3.68-9.1,3.24-19.46-5.49-25.36a18.3,18.3,0,0,0-7.72-3c0.71-4.72,5.64-15,11.32-8.9,4,4.3,6.17,11.87,8.43,17.3,8.31,19.6,8.46,42.73-3.41,61.07-8.39,13-21.74,23.66-33,34.13l-4.45-12.87h-1.31c-1.48,7.7,4,16.47,7.08,23.18-7-1.6-13.77-8.9-21.25-7.72,2.09,3.64,16,12.17,5.16,16.06,0,3.16-2.32,5.39-4.24,7.76-4.3,5.28-9.69,13.16-16.33,15.42l-12.24-32.21h-0.62a127.75,127.75,0,0,0,13,40.5c3.27,6.54,8.59,13,10.8,20-4-3.4-6.52-8.83-9.93-12.87a134.59,134.59,0,0,0-20.35-19c-4.85-3.77-9.56-8-16.06-7.42,7.42,6.6,18.49,10.12,17.81,22.51-0.19,3.52-4.08,5-6.84,6.32a208.47,208.47,0,0,1-21.89,9.35c-2.09.68-5.94,2.55-8.19,1.83s-2.06-5.94-2.32-7.85c-0.79-6.08,2.6-21.92-3.67-24.44-2.72,21.52,2.85,41.15,4.53,62.42h-0.67c-3.64-15.72-9.36-33.21-17.88-47-2.34-3.77-7.3-12.76-12.35-11.62l13.21,23.18,0.28,9.84-9.65,1.69-27.66.67c1-8,2.78-15.87,4.24-23.75,0.33-1.74,1.62-7-1.63-7-3,0-3.62,8.74-4.05,10.85-2.32,11.56-4.33,23.58-4.33,35.38h-0.67c0-19.46-8.74-36.87-16.73-54-2.21,3.29.89,8,1.83,11.58a61.09,61.09,0,0,1,1.4,23.75c-13-2.54-27.17-5.94-39.24-11.62,3.18-7.63,12.27-18.94,12.2-27-11.87,11.87-17.13,28.48-23.14,43.77h-0.67l2.55-30.9-4.45-26.42c-2.8,2.83-1.26,8.53-.82,12.24,0.7,5.94.34,14.66-4,19.19-2.39,2.49-4.81.31-7.42-.73-7.14-2.89-12.42-7.69-18.66-12-2.23-1.48-6.28-3.22-6-6.46,0.71-9.22,14-13.61,14.37-21.89-15.35,6.62-22.66,23.2-34.76,33.45,4-16.73,16.7-36.29,13.55-54-3.24,1.78-3.12,6.29-3.95,9.65a92.15,92.15,0,0,1-8.3,20.58c-8.53-4.93-15.35-13.27-21-21.21-1.48-2.18-5-5.6-5-8.39s3.1-5.85,4.82-7.72a52.33,52.33,0,0,1,18.61-12.87c-5.08-3.13-15.11,4.27-20.63,5.79,3.73-7.9,13.86-15.57,10.94-25.07-8.37,6.56-14,20.7-19.92,29.59h-0.67l-12.26-26.94,16.06,5.79c0.49-5.76-7.66-8-12.2-9,2.69-7,10.14-12.33,8.34-20.58h-1.25c-1.86,5.94-5.74,16.21-12.24,18l-1.93-10.39h-0.62c-2.52,5.4.61,9.56-.86,14.65-0.77,2.67-4.65,2.3-5.94,4.78-1.83,3.37-1.94,7.87-3.47,11.47A35.19,35.19,0,0,1,76,341L75.23,329.5l9.78-11-10.27,7.72c-1.32-3.46-4.35-9.93-2.55-13.51,1.48-3.1,5.42-5.12,7.72-7.72l-10.39,5.16c-3.47-9,2.86-6.4,6.41-12.87-2.58,1.48-6.9,4.21-10,2.79-4-1.81-8.16-13.61-9.88-17.6L67,280.55v-0.67c-5.16.65-13.36,2.6-14.17-4.45H66.28v-0.67L51.1,273.13,47,267.73l-8.9-11.62a42.44,42.44,0,0,1,20,0c-7.85-8.25-21.88,3.9-28.35-9.65l16.1-3.24v-0.61c-5,0-14.29,3-18.66.62a10.39,10.39,0,0,1-2.85-2.55c-8.28-9.33,10.23-10.24,16.33-9.39,11.72,1.6,20.78,9.62,29,17.81,4.14,4.11,10.11,11.53,16.1,12.73s10.85-2.63,15.42-5.64c0,4.45-.46,9,3.24,12.24a178.18,178.18,0,0,1,1.48-27c0.5-3.25,1.8-7.51,5.64-8.1,4.81-.74,11.34,6.6,14.84,9.39,0-5-3.77-9.23-6.84-12.87-8.44-10-21.85-19.52-33.7-25.11v-0.62c17.57,3,30.8,13.36,49.55,8.39v-1.32l-21.89-3.24c0.92-6.84,5.86-15.63,4.29-22.51-2.14-9.38-12.13-13.76-15.91-21.89,6.53,2.54,13.48,6.19,20.63,6.37,4,0.1,7.18-2.11,10.94-3,10.39-2.42,16.33,2.6,23.14,9.5,1.87-6.5-3.24-11.87-7.14-16.73s-7.42-9.82-12.15-14.07c-5.68-5.15-14.13-11.1-17.41-18.12,5.33,1,10.39,5.48,14.84,8.58a154.26,154.26,0,0,0,23.75,14.75c4.45,2.11,12.35,5.65,16.1,1.16l-20.58-7.72c1.48-2.15,3.64-4,4.72-6.46,3-6.54-2.23-12.14-4.1-18,4,1.48,7.42,4.88,11.58,5.6,9.9,1.65,15.69-10,23.18-13.94l5.16,24.44c4.29-3.58,2.36-10.51,1.63-15.42C194,106.3,185.56,93.75,183.48,79.92h0.62c8.15,17.42,17.81,36.17,34.13,47l-5.94-7.76-10.17-15.38a21.62,21.62,0,0,0,5.74-3c11.26-9,1.66-21.62,0-32.4h0.62a52.72,52.72,0,0,0,5,9.69c9.41,13.61,21.83,11.4,36.2,10.27l-3.86,28.35h0.62c1.91-6,5.51-11,6.8-17.41,2.33-11.61-.15-23.14-0.39-34.76h0.67c1,6.86,3.78,13.36,5.94,20,3.46,10.28,6.31,21.55,14,29.59L266.38,85c20.5-.07,26-13.83,26.42-32.22v0Zm102.3,124.66a5.57,5.57,0,0,1,.67,0c3,0.22,5.15,4,6.89,6,5.09,5.94,10.85,12.27,13.06,20-14.84-3.07-31-1-45.7,2.55a57,57,0,0,1,16.73-23.48c2.33-1.83,5.13-4.91,8.36-5.06h0Zm40.59,13.12c6.31,2.45,13.06,11.1,15.42,17.35l-14.17-1.93Zm-29.31,15.76a11.77,11.77,0,0,1,4.14.67c7.79,3,5.71,19.29,4.1,25.36-1.32,5-3.7,10.55-8.58,12.87a32.37,32.37,0,0,0-15.42-13.64c-3.29-1.48-8.76-2.12-11-5.16s-4.45-13.8-1.48-16.68c3.24-3.12,12.15-2.46,16.33-2.46,2.88,0,6.77-.76,10.39-0.92h1.59v0Zm29.31,4.14c2.89,0.22,7.84,0,10,2.17,7.08,7.26,3.13,26.64-5.49,30.66L437.71,229a6.19,6.19,0,0,0,6.22-2.55,6.41,6.41,0,0,0-2.55-10.55h-0.09a6.34,6.34,0,0,0-5.6,0v-5.49h0v0.06Zm3.75,41.17c9.44-.62,19.29,8,17.11,18.08-1.32,6.19-5.15,12.87-11.23,15.29-3.19,1.26-10.39.86-10.66-3.71-0.22-4.27,8.27-10.2,10-14.84-11.87,9.11-19.19,16.84-35.38,14.84v-0.64c9.53-7.06,13.55-19.1,22.6-26.14a13.7,13.7,0,0,1,7.6-2.88h0Zm-17.88,34.13c4.87,0.09,10.24.82,13,4.59s2.18,9.13,3.67,13.51c1.1-4.62,1-21.83,10.17-12.15,7.42,7.84,5.45,24.75-1.88,32-4.59,4.54-15.66,7.33-21.16,3.09-8.37-6.46-10.55-19.72-13-29.36-0.58-2.33-3.27-7.7-1.78-9.88,1.25-1.83,4.45-1.71,6.37-1.74,1.4,0,3-.07,4.59,0h0v-0.06Zm56.59,3.9c12.11,2.2,13.09,19.38,23.75,24.49v1.25c-6.07,3.06-8.13,0-12.24-4.45l4.45,8.34c-5-.77-6-5.55-9-8.9l4.53,9.65c-7.42,0-10.52-1.25-13.51-8.39h-0.67l1.31,5.79-4.59-3.24,2.4-8.34Zm-347.5,72a10,10,0,0,1,7.72,9.69l-14.84,10.27ZM417,378.41l9.69,14.13-14.17-6.41ZM184.67,407.35c13.8,1.22,4.45,13.92-1.25,20Zm177,15.48,5.83,18c-4.76-3.35-10.39-8.8-12.87-14.13ZM244.3,432.52l7.33,1.25-5.79,20.58h-0.68l-1.25-16.13Zm60.85,3.71a5.3,5.3,0,0,1,3.62,1.11c3.47,3-1.48,17.19-3,20.87l-7.08-20.58a28,28,0,0,1,6.37-1.41h0.06Z" transform="translate(0 -33.38)"/><path d="M253.57,69.65l0.63,0.63-0.63-.63m-0.63,1.91,0.63,0.63Z" transform="translate(0 -33.38)"/><path d="M329.52,74.12l0.63,0.63Z" transform="translate(0 -33.38)"/><path d="M289.31,75.4L289.94,76Z" transform="translate(0 -33.38)"/><path d="M328.87,76.67l0.63,0.63Z" transform="translate(0 -33.38)"/><path d="M288.67,77.32l0.63,0.63Z" transform="translate(0 -33.38)"/><path d="M183.36,82.42L184,83.06Z" transform="translate(0 -33.38)"/><path d="M285.43,82.42l0.63,0.63-0.63-.63m-0.63.63,0.63,0.63-0.63-.63m14.72,0.63,0.63,0.63-0.63-.63m-87.43.63L212.72,85l-0.63-.63m88.71,0L301.43,85l-0.63-.63M185.34,85L186,85.6,185.34,85m31.28,0,0.63,0.63L216.62,85m85.52,0,0.63,0.63Z" transform="translate(0 -33.38)"/><path d="M218.46,86.88l0.63,0.63-0.63-.63m57.4,0,0.63,0.63Z" transform="translate(0 -33.38)"/><path d="M376.69,86.88l0.63,0.63Z" transform="translate(0 -33.38)"/><path d="M376.33,87.94l0.21,0.43Z" transform="translate(0 -33.38)"/><path d="M185.34,88.21L186,88.84l-0.63-.63m130.84,0,0.63,0.63Z" transform="translate(0 -33.38)"/><path d="M213.31,90.71l0.63,0.63Z" transform="translate(0 -33.38)"/><path d="M375.47,90.71l0.63,0.63Z" transform="translate(0 -33.38)"/><path d="M188.46,96.45l0.63,0.63-0.63-.63m3.19,0,0.63,0.63-0.63-.63m0.63,1.28,0.63,0.63Z" transform="translate(0 -33.38)"/><path d="M286.76,100.29l-10.16,46c7.86-4.8,9.52-22.27,10.22-30.63h0.63c1.37,7.36,2,14.72,5,21.7,1.19,2.77,2.49,6.43,5.89,6.39L290.19,115Z" transform="translate(0 -33.38)"/><path d="M263.78,100.93l0.63,0.63-0.63-.63m-54.25,1.28,0.63,0.63-0.63-.63m-3.19,2.55,0.63,0.63-0.63-.63M203.14,106l0.63,0.63-0.63-.63m81.69,1.91,0.63,0.63Z" transform="translate(0 -33.38)"/><path d="M224.2,108.58c0.13,16.32,8.2,31.18,5.11,47.87,3.06-1.87,3.15-6.24,3.19-9.57,0.09-7.73-1.25-15.29-1.28-23h0.63c2.22,7.71,8.26,23.05,17.24,24.26-1.07-4.15-4.42-7.29-6.74-10.85C237.3,129.42,232.37,113.39,224.2,108.58Z" transform="translate(0 -33.38)"/><path d="M198.68,109.23l0.63,0.63Z" transform="translate(0 -33.38)"/><path d="M225.48,109.23l0.63,0.63Z" transform="translate(0 -33.38)"/><path d="M312.92,109.86l0.63,0.63Z" transform="translate(0 -33.38)"/><path d="M284.2,111.14l0.65,0.62-0.63-.63m31.28,0,0.63,0.63Z" transform="translate(0 -33.38)"/><path d="M369.73,111.14l0.63,0.62Z" transform="translate(0 -33.38)"/><path d="M314.87,111.76l0.63,0.63-0.63-.63m-3.83.63,0.63,0.63-0.63-.63m3.19,0,0.63,0.63Z" transform="translate(0 -33.38)"/><path d="M228,113.05l0.63,0.63-0.63-.63m42.13,0.63,0.63,0.63Z" transform="translate(0 -33.38)"/><path d="M373.56,113.69l0.63,0.63Z" transform="translate(0 -33.38)"/><path d="M311,115l0.63,0.63Z" transform="translate(0 -33.38)"/><path d="M355,115.6c-7.09,11.14-15.56,26.35-26.17,34.46v0.63c8.05-1.47,16.75-11.6,19.13-19.13h0.72c-0.09,11.35-5.31,23.39-.63,34.46h0.63c3.4-11.5,1.63-25,4.55-37C354.13,125.26,357.56,119,355,115.6Z" transform="translate(0 -33.38)"/><path d="M190.38,116.88l0.63,0.63Z" transform="translate(0 -33.38)"/><path d="M230.59,117.51l0.63,0.63-0.63-.63m-35.11,1.28,0.63,0.63-0.63-.63m-4.42.63,0.63,0.63-0.63-.63m14.72,0,0.63,0.63-0.63-.63m84.89,0,0.63,0.63-0.63-.63m-5.11,1.28,0.63,0.63Z" transform="translate(0 -33.38)"/><path d="M355,120.71l0.63,0.63Z" transform="translate(0 -33.38)"/><path d="M394,121.36l0.63,0.63-0.63-.63M154.64,122l0.63,0.63Z" transform="translate(0 -33.38)"/><path d="M233.14,122l0.63,0.63Z" transform="translate(0 -33.38)"/><path d="M394,122l0.63,0.63Z" transform="translate(0 -33.38)"/><path d="M349.93,123.27l0.63,0.63Z" transform="translate(0 -33.38)"/><path d="M210.81,124.54l0.63,0.63Z" transform="translate(0 -33.38)"/><path d="M330.8,124.54l0.63,0.63Z" transform="translate(0 -33.38)"/><path d="M216.55,125.82l0.63,0.63Z" transform="translate(0 -33.38)"/><path d="M217.18,126.48l0.63,0.63Z" transform="translate(0 -33.38)"/><path d="M347.39,126.48l0.63,0.63Z" transform="translate(0 -33.38)"/><path d="M217.83,127.1l0.63,0.63Z" transform="translate(0 -33.38)"/><path d="M165.49,127.73l0.63,0.63Z" transform="translate(0 -33.38)"/><path d="M388.87,127.73l0.63,0.63-0.63-.63m-0.63.63,0.63,0.63-0.63-.63m-266.79,1.28,0.63,0.63Z" transform="translate(0 -33.38)"/><path d="M158.47,129.64l0.63,0.63Z" transform="translate(0 -33.38)"/><path d="M234.42,130.29l0.63,0.63Z" transform="translate(0 -33.38)"/><path d="M348.73,130.89l0.63,0.63Z" transform="translate(0 -33.38)"/><path d="M379.3,130.89l0.63,0.63Z" transform="translate(0 -33.38)"/><path d="M385.69,130.89l0.63,0.63Z" transform="translate(0 -33.38)"/><path d="M348,131.56l0.63,0.63Z" transform="translate(0 -33.38)"/><path d="M228.68,134.12l0.63,0.63Z" transform="translate(0 -33.38)"/><path d="M389.51,134.75l0.63,0.63Z" transform="translate(0 -33.38)"/><path d="M231.87,136l0.63,0.63Z" transform="translate(0 -33.38)"/><path d="M371,136.66l0.63,0.63Z" transform="translate(0 -33.38)"/><path d="M242.07,137.31l0.63,0.63Z" transform="translate(0 -33.38)"/><path d="M401,138.58l0.63,0.63Z" transform="translate(0 -33.38)"/><path d="M435.47,138.58l0.63,0.63Z" transform="translate(0 -33.38)"/><path d="M243.35,139.22l0.63,0.63Z" transform="translate(0 -33.38)"/><path d="M342.91,139.22l0.63,0.63Z" transform="translate(0 -33.38)"/><path d="M435.47,139.22l0.63,0.63Z" transform="translate(0 -33.38)"/><path d="M432.91,139.86l0.63,0.63-0.63-.63m1.91,0,0.63,0.63Z" transform="translate(0 -33.38)"/><path d="M341.65,140.49l0.63,0.63Z" transform="translate(0 -33.38)"/><path d="M434.19,140.49l0.63,0.63Z" transform="translate(0 -33.38)"/><path d="M240.16,141.2l0.63,0.63Z" transform="translate(0 -33.38)"/><path d="M312.92,141.2c-3.77,8.51-5.61,16.4-13.41,22.34v1.21c5.61,1.47,9.51-5.55,10.85-10.22H311c0.56,4.28,1.07,13.25,5.74,14.72l-3.14-14.72Z" transform="translate(0 -33.38)"/><path d="M402.91,141.2l0.63,0.63Z" transform="translate(0 -33.38)"/><path d="M433.55,141.2l0.63,0.63Z" transform="translate(0 -33.38)"/><path d="M176.34,141.77c1.38,15.71,22.49,26.3,19.78,43.41,3.4-2,2.5-5.68,1.37-8.93-2.36-6.73-6.3-12.61-9-19.13,6.11,5.58,15.13,11.88,23.55,8.3l-13.39-5.55L176.28,141.8h0Z" transform="translate(0 -33.38)"/><path d="M432.91,141.77l0.63,0.63Z" transform="translate(0 -33.38)"/><path d="M432.27,142.4l0.63,0.63Z" transform="translate(0 -33.38)"/><path d="M392.06,143.05l0.63,0.63Z" transform="translate(0 -33.38)"/><path d="M426.53,143.05l0.63,0.63Z" transform="translate(0 -33.38)"/><path d="M431.64,143.05l0.63,0.63Z" transform="translate(0 -33.38)"/><path d="M242.07,143.68l0.63,0.63Z" transform="translate(0 -33.38)"/><path d="M339.09,143.68l0.63,0.63Z" transform="translate(0 -33.38)"/><path d="M431,143.68l0.63,0.63Z" transform="translate(0 -33.38)"/><path d="M176.34,144.33L177,145l-0.63-.63m162.12,0,0.63,0.63Z" transform="translate(0 -33.38)"/><path d="M430.36,144.33L431,145Z" transform="translate(0 -33.38)"/><path d="M180.81,145l0.63,0.63Z" transform="translate(0 -33.38)"/><path d="M429.68,145l0.63,0.63Z" transform="translate(0 -33.38)"/><path d="M145.07,145.61l0.63,0.63Z" transform="translate(0 -33.38)"/><path d="M337.17,145.61l0.63,0.63-0.63-.63m-0.63.63,0.63,0.63Z" transform="translate(0 -33.38)"/><path d="M136.77,146.88l0.63,0.63Z" transform="translate(0 -33.38)"/><path d="M245.27,146.88l0.63,0.63Z" transform="translate(0 -33.38)"/><path d="M264.42,146.88c-1.93,6.36-7.36,18.75-5.11,24.89h1.28L265,156.45h0.63c1.57,5.78,3.22,14.54,10.22,15.32l-10.22-24.89h-1.22Z" transform="translate(0 -33.38)"/><path d="M137.4,147.51l0.63,0.63Z" transform="translate(0 -33.38)"/><path d="M427.17,147.51l0.63,0.63Z" transform="translate(0 -33.38)"/><path d="M138.05,148.16l0.63,0.63Z" transform="translate(0 -33.38)"/><path d="M158.47,148.16l0.63,0.63-0.63-.63m172.32,0,0.63,0.63Z" transform="translate(0 -33.38)"/><path d="M138.68,148.79l0.63,0.63Z" transform="translate(0 -33.38)"/><path d="M150.18,148.79l0.63,0.63Z" transform="translate(0 -33.38)"/><path d="M309.74,148.79l0.63,0.63-0.63-.63m3.83,0,0.63,0.63Z" transform="translate(0 -33.38)"/><path d="M330.15,148.79l0.63,0.63Z" transform="translate(0 -33.38)"/><path d="M139.32,149.43l0.63,0.63Z" transform="translate(0 -33.38)"/><path d="M329.52,149.43l0.63,0.63-0.63-.63M187.2,150.71l0.63,0.63Z" transform="translate(0 -33.38)"/><path d="M346.11,150.71l0.63,0.63Z" transform="translate(0 -33.38)"/><path d="M180.81,152.62l0.63,0.63-0.63-.63m127,0.63,0.63,0.63Z" transform="translate(0 -33.38)"/><path d="M160.32,153.9l0.63,0.63-0.63-.63m-16,.63,0.63,0.63Z" transform="translate(0 -33.38)"/><path d="M191.66,154.53l0.63,0.63-0.63-.63m37.65,0,0.63,0.63Z" transform="translate(0 -33.38)"/><path d="M389.51,154.53l0.63,0.63Z" transform="translate(0 -33.38)"/><path d="M230.59,155.81l0.63,0.63-0.63-.63M265,156.45l0.63,0.63-0.63-.63m46,0,0.63,0.63-0.63-.63M185.34,159l0.63,0.63Z" transform="translate(0 -33.38)"/><path d="M420.85,159l0.63,0.63Z" transform="translate(0 -33.38)"/><path d="M193.57,160.92l0.63,0.63Z" transform="translate(0 -33.38)"/><path d="M417.6,160.92l0.63,0.63Z" transform="translate(0 -33.38)"/><path d="M187.18,161.55l0.63,0.63-0.63-.63m118.08,0.63,0.63,0.63Z" transform="translate(0 -33.38)"/><path d="M221.66,162.83l3.19,26.8h1.28L225.5,170.5c4.17,2.94,9.79,10,15.32,7.65-2.13-2.31-5.23-2.71-7.65-4.68C229.18,170.25,227.1,163.28,221.66,162.83Z" transform="translate(0 -33.38)"/><path d="M191.66,164.12l0.63,0.63-0.63-.63m107.86,0.63,0.63,0.63-0.63-.63m-109.78.63,0.63,0.63-0.63-.63m68.93,0,0.63,0.63Z" transform="translate(0 -33.38)"/><path d="M347.39,165.38L348,166l-0.63-.63m1.28,0L349.3,166Z" transform="translate(0 -33.38)"/><path d="M362.06,166.66c-6.73,6.76-12.35,11.39-21.7,14V182c5.53,1.59,10.88-1.47,15.32-4.42-0.72,3.75-5.5,13.56-1.91,16L359.9,175Z" transform="translate(0 -33.38)"/><path d="M227.4,167.31l0.63,0.63-0.63-.63m-72.76.63,0.63,0.63-0.63-.63m102.75,0,0.63,0.63-0.63-.63m59.36,0,0.63,0.63Z" transform="translate(0 -33.38)"/><path d="M360.15,167.94l0.63,0.63Z" transform="translate(0 -33.38)"/><path d="M111.25,169.16l0.63,0.63Z" transform="translate(0 -33.38)"/><path d="M274,169.16l0.63,0.63Z" transform="translate(0 -33.38)"/><path d="M145.71,169.86l0.63,0.63Z" transform="translate(0 -33.38)"/><path d="M421.43,169.86l0.63,0.63Z" transform="translate(0 -33.38)"/><path d="M192.29,170.49l0.63,0.63-0.63-.63m2.55,0,0.63,0.63-0.63-.63m65.74,0,0.63,0.63-0.63-.63m-111.06.63,0.63,0.63Z" transform="translate(0 -33.38)"/><path d="M356.32,172.4L357,173l-0.63-.63m3.83,0.63,0.63,0.63Z" transform="translate(0 -33.38)"/><path d="M400.36,173l0.63,0.63Z" transform="translate(0 -33.38)"/><path d="M109.32,173.68l0.63,0.63Z" transform="translate(0 -33.38)"/><path d="M230.59,174.32l0.63,0.63-0.63-.63m-33.85.63,0.63,0.63-0.63-.63m38.27,0,0.63,0.63Z" transform="translate(0 -33.38)"/><path d="M111.25,175.6l0.63,0.63Z" transform="translate(0 -33.38)"/><path d="M351.85,175.6l0.63,0.63Z" transform="translate(0 -33.38)"/><path d="M233.14,176.24l0.63,0.63-0.63-.63m7,0.63,0.63,0.63Z" transform="translate(0 -33.38)"/><path d="M354.41,177.51l0.63,0.63Z" transform="translate(0 -33.38)"/><path d="M236.33,178.16l0.63,0.63-0.63-.63m1.28,0.63,0.63,0.63-0.63-.63m107.86,0,0.63,0.63Z" transform="translate(0 -33.38)"/><path d="M386.32,178.79l0.68,0.68-0.63-.63m-271.94.63,0.63,0.63Z" transform="translate(0 -33.38)"/><path d="M349.3,180.7l0.63,0.63Z" transform="translate(0 -33.38)"/><path d="M383.77,180.7l0.63,0.63Z" transform="translate(0 -33.38)"/><path d="M252.93,181.34l-3.83,19.78c3.21-2.43,3.94-10.17,4.42-14l5.74,6.39A22.39,22.39,0,0,0,252.93,181.34Z" transform="translate(0 -33.38)"/><path d="M340.37,182l0.63,0.63Z" transform="translate(0 -33.38)"/><path d="M354.41,182l0.63,0.63-0.63-.63m44,0.63,0.63,0.63Z" transform="translate(0 -33.38)"/><path d="M315.48,183.26l-12.13,12.13,11.48-8.3,1.91,11.48c2.24-3.27,1.06-12.23-1.28-15.32m-135.3,1.91v0.63c5.37,5.43,9.8,12.91,13.16,19.78,1.85,3.78,1.32,8,5.34,10.22-0.32-7.46-3.52-13.11-6.39-19.78,4.52,2.63,10.58,6.58,16,5.11v-1.28a80.41,80.41,0,0,1-19.13-11c-2.68-2.13-5.42-4.89-8.93-3.69h0Z" transform="translate(0 -33.38)"/><path d="M385.69,184.53l0.63,0.63-0.63-.63m-129.53,1.28,0.63,0.63-0.63-.63m-75.32.63,0.63,0.63-0.63-.63m76,0.63,0.63,0.63Z" transform="translate(0 -33.38)"/><path d="M402.28,187.09l0.63,0.63Z" transform="translate(0 -33.38)"/><path d="M254.85,187.72l0.63,0.63Z" transform="translate(0 -33.38)"/><path d="M376.69,187.72l0.63,0.63Z" transform="translate(0 -33.38)"/><path d="M408.66,187.72l0.63,0.63Z" transform="translate(0 -33.38)"/><path d="M118.9,188.3l0.63,0.63Z" transform="translate(0 -33.38)"/><path d="M309.74,188.3l0.63,0.63-0.63-.63m5.11,0,0.63,0.63-0.6-.63m37.65,0,0.63,0.63-0.63-.63m-163.38.63,0.63,0.63-0.63-.63m63.82,0,0.63,0.63Z" transform="translate(0 -33.38)"/><path d="M427.8,189l0.63,0.63Z" transform="translate(0 -33.38)"/><path d="M379.93,189.64l0.63,0.63Z" transform="translate(0 -33.38)"/><path d="M310.37,190.27L311,190.9Z" transform="translate(0 -33.38)"/><path d="M137.4,190.92c0.6,5.39,5,7.36,8.93,10.3a74,74,0,0,1,14.53,13.89c2.68,3.52,4.34,9.58,7.82,12.13-0.75-9.39-6.29-20.43-15.32-24.26v-0.63c9.18,1.78,18.34,5.2,27.45,1.28v-1.28L170,201.93l-32.54-11.05h0v0Z" transform="translate(0 -33.38)"/><path d="M184.64,190.92l0.63,0.63-0.63-.63m121.27,0.63,0.63,0.63-0.63-.63m47.87,0,0.63,0.63-0.63-.63m-160.84.63,0.63,0.63-0.63-.63m112.32,0,0.63,0.63Z" transform="translate(0 -33.38)"/><path d="M411.84,192.2l0.63,0.63Z" transform="translate(0 -33.38)"/><path d="M372.28,192.83l0.63,0.63Z" transform="translate(0 -33.38)"/><path d="M259.31,193.47l0.63,0.63Z" transform="translate(0 -33.38)"/><path d="M279.74,193.47L274,204.31l6.39-7,3.83,6.39Z" transform="translate(0 -33.38)"/><path d="M353.14,193.47l0.63,0.63Z" transform="translate(0 -33.38)"/><path d="M434.19,193.47l0.63,0.63Z" transform="translate(0 -33.38)"/><path d="M186.55,194.11l0.63,0.63-0.63-.63m8.93,0,0.63,0.63Z" transform="translate(0 -33.38)"/><path d="M408,194.11l0.63,0.63Z" transform="translate(0 -33.38)"/><path d="M117.64,194.75l0.63,0.63Z" transform="translate(0 -33.38)"/><path d="M277.82,195.38l0.63,0.63-0.63-.63m-79.15.63,0.63,0.63-0.63-.63m-3.83,1.28,0.63,0.63-0.63-.63m122.54,0,0.63,0.63-0.63-.63m122.54,0,0.63,0.63-0.63-.63m-159.56.63L281,198.6l-0.63-.63m160.2,0,0.63,0.63-0.63-.63m-282.76.63,0.63,0.63-0.63-.63m283.37,0,0.63,0.63-0.63-.63m-297.42.63,0.63,0.63-0.63-.63m139.14,0,0.63,0.63Z" transform="translate(0 -33.38)"/><path d="M116.34,200.49l0.63,0.63Z" transform="translate(0 -33.38)"/><path d="M145.71,200.49l0.63,0.63Z" transform="translate(0 -33.38)"/><path d="M372.91,200.49l0.63,0.63Z" transform="translate(0 -33.38)"/><path d="M249.74,201.13l0.63,0.63-0.63-.63m26.86,0.63,0.63,0.63Z" transform="translate(0 -33.38)"/><path d="M115.71,203l0.63,0.63Z" transform="translate(0 -33.38)"/><path d="M157.83,203l0.63,0.63-0.63-.63m37.65,0,0.63,0.63-0.63-.63m-3.19.63,0.63,0.63Z" transform="translate(0 -33.38)"/><path d="M371,203.68l0.63,0.63Z" transform="translate(0 -33.38)"/><path d="M398.45,203.68l0.63,0.63Z" transform="translate(0 -33.38)"/><path d="M409.93,204.31l0.63,0.63Z" transform="translate(0 -33.38)"/><path d="M152.09,205.59l0.63,0.63-0.63-.63m41.48,0.63,0.63,0.63Z" transform="translate(0 -33.38)"/><path d="M448.23,207.51l0.63,0.63Z" transform="translate(0 -33.38)"/><path d="M341,208.79l-10.85,8.3,9.57-5.11-1.28,7.65C341.16,217.74,342.18,211.85,341,208.79Z" transform="translate(0 -33.38)"/><path d="M422.69,209.42l0.63,0.63Z" transform="translate(0 -33.38)"/><path d="M445.67,209.42l0.63,0.63-0.63-.63m3.83,0-0.63,1.28Z" transform="translate(0 -33.38)"/><path d="M411.21,210.07l0.63,0.63Z" transform="translate(0 -33.38)"/><path d="M449.51,210.07l0.63,0.63Z" transform="translate(0 -33.38)"/><path d="M118.9,210.7l0.63,0.63Z" transform="translate(0 -33.38)"/><path d="M337.17,210.7l0.63,0.63Z" transform="translate(0 -33.38)"/><path d="M101.67,211.33L102.3,212Z" transform="translate(0 -33.38)"/><path d="M376.1,211.33l0.63,0.63-0.63-.63m35.74,0,0.63,0.63-0.63-.63M198,212l0.63,0.63L198,212m141.05,0,0.63,0.63Z" transform="translate(0 -33.38)"/><path d="M105.49,212.61l0.63,0.63Z" transform="translate(0 -33.38)"/><path d="M334,212.61l0.63,0.63Z" transform="translate(0 -33.38)"/><path d="M412.49,212.61l0.63,0.63Z" transform="translate(0 -33.38)"/><path d="M97.84,213.32L98.47,214Z" transform="translate(0 -33.38)"/><path d="M164.21,213.9l0.63,0.63-0.63-.63m171.68,0,0.63,0.63-0.63-.63m31.91,0,0.63,0.63Z" transform="translate(0 -33.38)"/><path d="M413.12,213.9l0.63,0.63-0.63-.63m30.63,0,0.63,0.63Z" transform="translate(0 -33.38)"/><path d="M99.75,214.53l0.63,0.63Z" transform="translate(0 -33.38)"/><path d="M366.54,214.53l0.63,0.63-0.63-.63m-169.14.63,0.63,0.63Z" transform="translate(0 -33.38)"/><path d="M413.76,215.18l0.63,0.63Z" transform="translate(0 -33.38)"/><path d="M101.67,215.81l0.63,0.63Z" transform="translate(0 -33.38)"/><path d="M103.58,217.09l0.63,0.63Z" transform="translate(0 -33.38)"/><path d="M438.66,217.09l0.63,0.63Z" transform="translate(0 -33.38)"/><path d="M439.29,217.09l0.69,0.65Z" transform="translate(0 -33.38)"/><path d="M166.14,217.74l0.63,0.63Z" transform="translate(0 -33.38)"/><path d="M267.61,217.74c0,3.25-.63,6.55,2.55,8.3v-6.39l7.65,2.55-10.22-4.42h0v0Z" transform="translate(0 -33.38)"/><path d="M268.89,217.74l0.63,0.63Z" transform="translate(0 -33.38)"/><path d="M435.47,217.74l1.28,1.28v-1.28h-1.28m3.19,0,0.63,0.63Z" transform="translate(0 -33.38)"/><path d="M270.8,218.36l0.63,0.63Z" transform="translate(0 -33.38)"/><path d="M306.54,226.66l3.19-5.74,3.83,2.55c-2.81-7.51-7-2.13-7,3.19h0Z" transform="translate(0 -33.38)"/><path d="M409.3,219l0.63,0.63L409.3,219m23.55,0,0.63,0.63Z" transform="translate(0 -33.38)"/><path d="M229.31,219.64a17.66,17.66,0,0,0,6.39,10.22l-3.83-8.3,7.65,0.63C237.55,218.61,232.92,219.64,229.31,219.64Z" transform="translate(0 -33.38)"/><path d="M238.24,219.64l0.63,0.63-0.63-.63m31.91,0,0.63,0.63Z" transform="translate(0 -33.38)"/><path d="M108.05,220.27l0.63,0.63Z" transform="translate(0 -33.38)"/><path d="M311.65,220.27l0.63,0.63Z" transform="translate(0 -33.38)"/><path d="M272.72,220.92l0.63,0.63Z" transform="translate(0 -33.38)"/><path d="M196.77,223.46l8.93,10.85-5.11-8.93,7.65-1.28-0.63-2.55Z" transform="translate(0 -33.38)"/><path d="M231.87,221.55l0.57,0.6Z" transform="translate(0 -33.38)"/><path d="M230,222.15l0.63,0.63Z" transform="translate(0 -33.38)"/><path d="M168,224.11l0.63,0.63-0.63-.63m28.72,0,0.63,0.63Z" transform="translate(0 -33.38)"/><path d="M408.87,225.1l0.21,0.43-0.21-.43m35.53-.43L445,225.3Z" transform="translate(0 -33.38)"/><path d="M166.77,225.38L167.4,226l-0.63-.63m101.47,0,0.63,0.63-0.63-.63M115.06,226l0.63,0.63-0.63-.63m116.8,0,0.63,0.63Z" transform="translate(0 -33.38)"/><path d="M115.71,226.66l0.63,0.63Z" transform="translate(0 -33.38)"/><path d="M442.69,228.36l0.21,0.43Z" transform="translate(0 -33.38)"/><path d="M443.12,227.94l0.63,0.63Z" transform="translate(0 -33.38)"/><path d="M117.64,228.57l0.63,0.63Z" transform="translate(0 -33.38)"/><path d="M378.67,229.2l0.63,0.63Z" transform="translate(0 -33.38)"/><path d="M132.35,241.29v1.28l18.5,6.39c-0.38-4.86-6.65-6.3-10.85-7l12.76-11.48c-6.79-.79-14.93,7.46-20.43,10.85h0Z" transform="translate(0 -33.38)"/><path d="M438,229.85v0.63h2Z" transform="translate(0 -33.38)"/><path d="M119.53,230.48l0.63,0.63Z" transform="translate(0 -33.38)"/><path d="M413.76,230.48l0.63,0.63-0.63-.63m24.26,0,0.63,0.63Z" transform="translate(0 -33.38)"/><path d="M383.77,231.13l0.63,0.63Z" transform="translate(0 -33.38)"/><path d="M159.11,238.79v1.28l14,5,8.3,5.8c-0.91-6.77-8.1-7.92-12.76-11.48,5.89-1.12,14-1.21,16.59-7.65l-26.17,7h0Z" transform="translate(0 -33.38)"/><path d="M371.64,232.46l0.63,0.59Z" transform="translate(0 -33.38)"/><path d="M387,232.46l0.63,0.63Z" transform="translate(0 -33.38)"/><path d="M144.42,233l0.63,0.63-0.63-.63m35.74,0.63,0.63,0.63-0.63-.63m3.83,0,0.63,0.63-0.63-.63m262.31,0,0.63,0.63-0.63-.63m-323.59.63,0.63,0.63Z" transform="translate(0 -33.38)"/><path d="M446.32,234.31l0.63,0.63Z" transform="translate(0 -33.38)"/><path d="M141.19,235l0.63,0.63-0.63-.63m41.48,0,0.63,0.63-0.63-.63m229.77,0.63,0.63,0.63-0.63-.63m24.26,0,0.63,0.63-0.63-.63m-297.42.63,0.63,0.63Z" transform="translate(0 -33.38)"/><path d="M418.86,236.22l0.63,0.63-0.63-.63M54.43,237.51l0.63,0.63Z" transform="translate(0 -33.38)"/><path d="M436.73,237.51l0.63,0.63Z" transform="translate(0 -33.38)"/><path d="M120.18,238.79l0.63,0.63Z" transform="translate(0 -33.38)"/><path d="M249.09,243.25l1.91-4.42C248.3,239.21,246.16,241.29,249.09,243.25Z" transform="translate(0 -33.38)"/><path d="M134.86,239.42l0.63,0.63Z" transform="translate(0 -33.38)"/><path d="M58.27,240.07l0.63,0.63Z" transform="translate(0 -33.38)"/><path d="M390.78,240.07l0.63,0.63Z" transform="translate(0 -33.38)"/><path d="M170,240.7l0.66,0.59Z" transform="translate(0 -33.38)"/><path d="M437.38,240.7l0.63,0.63Z" transform="translate(0 -33.38)"/><path d="M122.05,241.29l0.63,0.63Z" transform="translate(0 -33.38)"/><path d="M392.71,241.29l0.63,0.63Z" transform="translate(0 -33.38)"/><path d="M409.93,241.29l0.63,0.63Z" transform="translate(0 -33.38)"/><path d="M25.71,242l0.66,0.63Z" transform="translate(0 -33.38)"/><path d="M60.82,242l0.63,0.63Z" transform="translate(0 -33.38)"/><path d="M106.77,242l0.63,0.63Z" transform="translate(0 -33.38)"/><path d="M442.49,242l0.63,0.63Z" transform="translate(0 -33.38)"/><path d="M174.42,242.61l0.63,0.63Z" transform="translate(0 -33.38)"/><path d="M272.07,242.61L271.44,247c2-1.16,2.34-2.22,1.91-4.42h-1.28Z" transform="translate(0 -33.38)"/><path d="M273.35,242.61l0.63,0.63Z" transform="translate(0 -33.38)"/><path d="M298.89,247.09l1.91-4.42C298.31,243.33,296.27,245.11,298.89,247.09Z" transform="translate(0 -33.38)"/><path d="M409.3,242.61l0.63,0.63Z" transform="translate(0 -33.38)"/><path d="M441.84,242.61l0.63,0.63Z" transform="translate(0 -33.38)"/><path d="M171.23,243.89l0.63,0.63Z" transform="translate(0 -33.38)"/><path d="M402.91,243.89l0.63,0.63Z" transform="translate(0 -33.38)"/><path d="M415.68,243.89l0.63,0.63Z" transform="translate(0 -33.38)"/><path d="M440.57,243.89l0.63,0.63-0.63-.63m-0.63.63,0.63,0.63Z" transform="translate(0 -33.38)"/><path d="M178.25,245.16l0.63,0.63Z" transform="translate(0 -33.38)"/><path d="M65.29,245.81l0.63,0.63Z" transform="translate(0 -33.38)"/><path d="M404.19,245.81l0.63,0.63Z" transform="translate(0 -33.38)"/><path d="M39.12,246.44l0.63,0.63Z" transform="translate(0 -33.38)"/><path d="M272.72,246.44l0.63,0.63-0.63-.63m24.89,0,0.63,0.63Z" transform="translate(0 -33.38)"/><path d="M318,250.91v2.55l6.39-4.42L318,251h0v0Z" transform="translate(0 -33.38)"/><path d="M178.9,249.63l0.63,0.63-0.63-.63m141.69,0,0.63,0.63-0.63-.63m3.19,0,0.63,0.63Z" transform="translate(0 -33.38)"/><path d="M348.73,249.63v7.65A5,5,0,0,0,348.73,249.63Z" transform="translate(0 -33.38)"/><path d="M433.55,249.63l0.63,0.63Z" transform="translate(0 -33.38)"/><path d="M459.71,249.63l0.63,0.63Z" transform="translate(0 -33.38)"/><path d="M319.94,250.27l0.63,0.63-0.63-.63m3.19,0,0.63,0.63-0.63-.63m24.89,0,0.63,0.63Z" transform="translate(0 -33.38)"/><path d="M411.84,250.27l0.63,0.63Z" transform="translate(0 -33.38)"/><path d="M430.36,250.91l0.63,0.63Z" transform="translate(0 -33.38)"/><path d="M319.29,252.83l0.63,0.63-0.63-.63m-91.26.63,0.63,0.63Z" transform="translate(0 -33.38)"/><path d="M222.94,262.4l7.65,1.91-4.25-4.09,2.34-6.11A12.35,12.35,0,0,0,222.94,262.4Z" transform="translate(0 -33.38)"/><path d="M434.19,254.11l0.63,0.63Z" transform="translate(0 -33.38)"/><path d="M40.4,255.37L41.1,256Z" transform="translate(0 -33.38)"/><path d="M107.41,268.14c0.82,4.75,5.55,2.21,8.93,2,4.87-.34,13.91,1.24,16.59,5.68l4.42-.63c-1.15-7.23-11.55-7.21-17.24-7.65,4.18-4.22,10.17-5.48,11.48-12.13Z" transform="translate(0 -33.38)"/><path d="M455.25,255.37l0.63,0.63Z" transform="translate(0 -33.38)"/><path d="M76.14,256l0.63,0.63Z" transform="translate(0 -33.38)"/><path d="M462.9,256.65l0.63,0.63Z" transform="translate(0 -33.38)"/><path d="M58.91,257.29l0.63,0.63Z" transform="translate(0 -33.38)"/><path d="M224.85,257.29l0.63,0.63-0.63-.63m-98.29.63,0.63,0.63-0.63-.63m98.93,0.63,0.63,0.63Z" transform="translate(0 -33.38)"/><path d="M80.6,259.85l0.63,0.63Z" transform="translate(0 -33.38)"/><path d="M124,259.85l0.63,0.63-0.63-.63m5.11,0,0.63,0.63Z" transform="translate(0 -33.38)"/><path d="M41.67,260.42l0.63,0.63Z" transform="translate(0 -33.38)"/><path d="M254.85,260.42l-7,8.93,8.93,3.19-6.39-3.83C251.7,266,256.92,263.57,254.85,260.42Z" transform="translate(0 -33.38)"/><path d="M453.34,260.42l0.63,0.63Z" transform="translate(0 -33.38)"/><path d="M97.21,261.13l0.63,0.63Z" transform="translate(0 -33.38)"/><path d="M122.05,261.13l0.63,0.63-0.63-.63m100.21,0,0.63,0.63Z" transform="translate(0 -33.38)"/><path d="M83.16,261.76l0.63,0.63-0.63-.63m12.76,0,0.63,0.63Z" transform="translate(0 -33.38)"/><path d="M126.56,262.4l0.63,0.63-0.63-.63m72.12,0,0.63,0.63Z" transform="translate(0 -33.38)"/><path d="M199.31,262.4l-7.65,7c2.94,1,9.89,4.95,12.13,1.91l-8.3-3.19,3.83-5.74m165.3,0,8.93,7v1.31l-8.3,4.42a19.86,19.86,0,0,0,11.48-4.42,18.68,18.68,0,0,0-12.1-8.33h0Z" transform="translate(0 -33.38)"/><path d="M85.08,263l0.63,0.63Z" transform="translate(0 -33.38)"/><path d="M454.62,263l0.63,0.63Z" transform="translate(0 -33.38)"/><path d="M465.47,263l0.63,0.63-0.63-.63m-421.23.63,0.63,0.63Z" transform="translate(0 -33.38)"/><path d="M251,263.68l0.63,0.63-0.63-.63m3.19,0,0.63,0.63-0.63-.63m114.25,0,0.63,0.63Z" transform="translate(0 -33.38)"/><path d="M424,263.68l0.63,0.63-0.63-.63m30.63,0,0.63,0.63Z" transform="translate(0 -33.38)"/><path d="M196.12,264.31l0.63,0.63-0.63-.63m2.55,0,0.63,0.63-0.63-.63m51.69,0,0.63,0.63Z" transform="translate(0 -33.38)"/><path d="M45.51,265l0.63,0.63Z" transform="translate(0 -33.38)"/><path d="M159.75,265c-3.86,8.65-9.82,15.72-16.59,22.33-3.89,3.8-10,7.36-11.48,12.78l28.08-5.89,14.72-2.94c-8.76-6.24-24.1.71-32.54,4.42,5.8-11.66,17.21-16.28,19.78-30l-0.63-.63h-1.28Z" transform="translate(0 -33.38)"/><path d="M198,265l0.63,0.63L198,265m51.69,0,0.63,0.63-0.63-.63m117.43,0,0.63,0.63-0.63-.63m-245.72.63,0.63,0.63Z" transform="translate(0 -33.38)"/><path d="M276.6,271.33l3.83,0.63v-6.39C277.6,266.49,277.28,268.72,276.6,271.33Z" transform="translate(0 -33.38)"/><path d="M112.51,266.22l0.63,0.63Z" transform="translate(0 -33.38)"/><path d="M369.08,266.22l0.63,0.63-0.63-.63m-210.62.63,0.63,0.63Z" transform="translate(0 -33.38)"/><path d="M47.41,267.5L48,268.14Z" transform="translate(0 -33.38)"/><path d="M122.73,267.5l0.63,0.63-0.63-.63m127.64,0.63,0.63,0.63Z" transform="translate(0 -33.38)"/><path d="M455.25,268.14l0.63,0.63Z" transform="translate(0 -33.38)"/><path d="M375.47,268.78l0.63,0.63Z" transform="translate(0 -33.38)"/><path d="M416.32,268.78l0.63,0.63Z" transform="translate(0 -33.38)"/><path d="M198.68,269.42l0.63,0.63Z" transform="translate(0 -33.38)"/><path d="M440.57,269.42l0.63,0.63Z" transform="translate(0 -33.38)"/><path d="M194.18,270.06l0.63,0.63-0.63-.63m82.34,0,0.63,0.63Z" transform="translate(0 -33.38)"/><path d="M306.54,270.06l0.63,7a10.64,10.64,0,0,0,5.74-7l-4.42,3.19Z" transform="translate(0 -33.38)"/><path d="M134.86,270.73l0.63,0.63-0.63-.63m171.05,0,0.63,0.63-0.63-.63m5.11,0,0.63,0.63Z" transform="translate(0 -33.38)"/><path d="M376.1,270.73l0.63,0.63Z" transform="translate(0 -33.38)"/><path d="M441.84,270.73l0.63,0.63Z" transform="translate(0 -33.38)"/><path d="M49.93,271.33L50.56,272Z" transform="translate(0 -33.38)"/><path d="M198,271.33l0.63,0.63-0.63-.63m112.32,0L311,272l-0.63-.63M369.73,272l0.63,0.63Z" transform="translate(0 -33.38)"/><path d="M417,273.24l0.63,0.63Z" transform="translate(0 -33.38)"/><path d="M454,273.24l0.63,0.63Z" transform="translate(0 -33.38)"/><path d="M468.64,273.89l0.63,0.63Z" transform="translate(0 -33.38)"/><path d="M453.34,275.14l0.63,0.63Z" transform="translate(0 -33.38)"/><path d="M157.83,275.8l0.63,0.63Z" transform="translate(0 -33.38)"/><path d="M67.21,276.44l0.63,0.63Z" transform="translate(0 -33.38)"/><path d="M432.27,277.08l0.63,0.63Z" transform="translate(0 -33.38)"/><path d="M413.12,277.72l0.63,0.63Z" transform="translate(0 -33.38)"/><path d="M431.64,277.72l0.63,0.63-0.63-.63m-19.13.63,0.63,0.63Z" transform="translate(0 -33.38)"/><path d="M216.55,283.46l1.28-4.42C215.09,279.79,213.59,281.77,216.55,283.46Z" transform="translate(0 -33.38)"/><path d="M54.43,279.56l0.63,0.63Z" transform="translate(0 -33.38)"/><path d="M214.64,279.56l0.63,0.63-0.63-.63m-65.1.63,0.63,0.63Z" transform="translate(0 -33.38)"/><path d="M426.53,280.26l0.63,0.63Z" transform="translate(0 -33.38)"/><path d="M148.9,280.91l0.63,0.63Z" transform="translate(0 -33.38)"/><path d="M450.14,280.91l0.63,0.63-0.63-.63m-26.8.63,0.63,0.63Z" transform="translate(0 -33.38)"/><path d="M449.51,281.54l0.63,0.63Z" transform="translate(0 -33.38)"/><path d="M330.8,282.83l-0.63,8.93-5.74-3.83c0.6,3.87,3.31,5.71,7,6.39l0.63-11.48H330.8Z" transform="translate(0 -33.38)"/><path d="M417.6,282.83v0.63h1.91Z" transform="translate(0 -33.38)"/><path d="M173.16,302.61c4.22-.18,18.93.38,21.06-2.55l-14-1.91,7.65-14.72c-4.64,1.47-12.61,14.65-14.72,19.13m51.69,55.52c4.81-2.75,11.08-11,13.41-16-5.11,1.47-7.36,6.54-10.85,10.22l-1.91-13.41c14.93-1.31,21.49-17.66,30.28-27.42,5.34-6,12-8.55,18.87-12.16-4-4.81-9.63.28-13.41,3.18-10.13,7.8-16,17.25-24.89,26.17l5.11-13.41h-0.63c-2.77,6.65-6.09,13.76-12.76,17.24l2.55-8.93h-0.63c-2.68,6.42-5.71,9.57-12.76,9.57l6.39-14.72h-0.63l-8.29,14.1-2.55-.63,6.39-12.13h-0.63c-3.22,5.17-6.62,12.51-13.41,10.85l5.74-10.85c-3.19,2.5-4.58,8.49-8.36,10-1.72.68-5-.59-4.28-2.86,0.9-2.94,5.77-5.89,7.68-8.39,6.54-8.58,11.78-22.58,21.53-27.86,7.95-4.33,20,1.15,28.72,1,5,0,10.64-1.77,12.13-7-4.06-.44-7.89,2.18-12.13,2.19-10.73,0-28.33-5.33-37.55,2-8.39,6.62-8.83,15.53-14.15,23.93-2.58,4.11-7.12,6.89-10.85,9.85-1.38,1.1-3.87,2.69-3.36,4.8,0.65,2.59,5,4,7.18,4.95a71.81,71.81,0,0,0,15.32,5c2.78,0.57,6.93.49,9.3,2.19,4.33,3.14,2.87,13.81,3.46,18.52h0Z" transform="translate(0 -33.38)"/><path d="M445.67,285.45l0.63,0.63-0.63-.63m-10.85.63,0.63,0.63-0.63-.63m8.93,0,0.63,0.63Z" transform="translate(0 -33.38)"/><path d="M105.49,286.65l-0.63,3.83,2.55-3.83h-1.91Z" transform="translate(0 -33.38)"/><path d="M256.11,286.65l0.63,0.63Z" transform="translate(0 -33.38)"/><path d="M437.38,286.65l0.63,0.63Z" transform="translate(0 -33.38)"/><path d="M332.07,287.29l0.63,0.63Z" transform="translate(0 -33.38)"/><path d="M59.54,287.93l0.63,0.63Z" transform="translate(0 -33.38)"/><path d="M218.46,287.93l0.63,0.63Z" transform="translate(0 -33.38)"/><path d="M119.53,288.57l0.63,0.63Z" transform="translate(0 -33.38)"/><path d="M141.19,288.57l0.63,0.63-0.63-.63m44,0,0.63,0.63Z" transform="translate(0 -33.38)"/><path d="M106.77,289.2l0.63,0.63Z" transform="translate(0 -33.38)"/><path d="M122.73,289.2l0.63,0.63-0.63-.63m17.87,0,0.59,0.66-0.63-.63m88.08,0,0.63,0.63-0.63-.63m-88.71.63,0.63,0.63Z" transform="translate(0 -33.38)"/><path d="M106.14,290.48l0.63,0.63Z" transform="translate(0 -33.38)"/><path d="M181.44,290.48l0.63,0.63-0.63-.63m34.46,0,0.63,0.63Z" transform="translate(0 -33.38)"/><path d="M261.22,290.48l0.63,0.63Z" transform="translate(0 -33.38)"/><path d="M443.75,290.48l0.63,0.63Z" transform="translate(0 -33.38)"/><path d="M374.19,296.22l1.91-4.42C373.5,292.51,372.13,294,374.19,296.22Z" transform="translate(0 -33.38)"/><path d="M180.16,292.39L180.8,293Z" transform="translate(0 -33.38)"/><path d="M433.55,292.39l0.63,0.63Z" transform="translate(0 -33.38)"/><path d="M222.29,293l0.63,0.63Z" transform="translate(0 -33.38)"/><path d="M409.3,293l0.63,0.63Z" transform="translate(0 -33.38)"/><path d="M469.29,293l0.63,0.63Z" transform="translate(0 -33.38)"/><path d="M159.75,293.67l0.57,0.6Z" transform="translate(0 -33.38)"/><path d="M221.66,293.67l0.63,0.6-0.63-.63m-116.16.63,0.63,0.63-0.63-.63m2.55,0,0.63,0.63-0.63-.63m113,0,0.63,0.63Z" transform="translate(0 -33.38)"/><path d="M180.81,295l0.63,0.63-0.63-.63m30.63,0,0.63,0.63Z" transform="translate(0 -33.38)"/><path d="M116.34,295.59l0.63,0.63Z" transform="translate(0 -33.38)"/><path d="M394.62,295.59l0.63,0.63Z" transform="translate(0 -33.38)"/><path d="M436.73,295.59l0.63,0.63Z" transform="translate(0 -33.38)"/><path d="M115.71,296.87l0.63,0.63Z" transform="translate(0 -33.38)"/><path d="M219.1,296.87l0.63,0.63Z" transform="translate(0 -33.38)"/><path d="M288,296.87l7,7.65,3.19-7.65L295,302l-7-5.11m64.46,0-0.63,9.57-6.39-3.83c-0.35,4.21,6.09,9,9.57,10.85l-1.28-16.59h-1.27Z" transform="translate(0 -33.38)"/><path d="M175.7,298.13l0.63,0.63-0.63-.63m10.85,0,0.63,0.63-0.63-.63m-11.48.63,0.63,0.63Z" transform="translate(0 -33.38)"/><path d="M392.71,298.78l0.63,0.63Z" transform="translate(0 -33.38)"/><path d="M76.78,300.06l0.63,0.63Z" transform="translate(0 -33.38)"/><path d="M117,300.69l0.63,0.63Z" transform="translate(0 -33.38)"/><path d="M173.16,300.69l0.63,0.63Z" transform="translate(0 -33.38)"/><path d="M263.14,300.69l0.63,0.63Z" transform="translate(0 -33.38)"/><path d="M391.41,300.69l0.63,0.63-0.63-.63m4.42,0.63,0.63,0.63Z" transform="translate(0 -33.38)"/><path d="M291.87,302l0.63,0.63-0.63-.63m195.94,0,0.63,0.63-0.63-.63m-280.18.63,0.63,0.63Z" transform="translate(0 -33.38)"/><path d="M390.15,302.61l0.63,0.63Z" transform="translate(0 -33.38)"/><path d="M71,303.24l0.63,0.63L71,303.24m188.92,0,0.63,0.63Z" transform="translate(0 -33.38)"/><path d="M265,303.24l0.63,0.63Z" transform="translate(0 -33.38)"/><path d="M69.06,303.89l0.63,0.63Z" transform="translate(0 -33.38)"/><path d="M293.13,303.89l0.63,0.63-0.63-.63m54.89,0,0.71,0.69Z" transform="translate(0 -33.38)"/><path d="M393.34,305.15l0.63,0.63Z" transform="translate(0 -33.38)"/><path d="M260.59,306.44l0.63,0.63Z" transform="translate(0 -33.38)"/><path d="M69.06,307.07l0.63,0.63Z" transform="translate(0 -33.38)"/><path d="M413.12,307.07l0.63,0.63-0.63-.63m-272.53.63,0.63,0.63Z" transform="translate(0 -33.38)"/><path d="M179.53,307.72c-2,9.57-8.83,18.16-15,25.52-2.94,3.5-7.36,7-8.65,11.48,10.58-3,22.46-13.79,33.85-12.76-2.94-5.67-16.54,2.19-21.7,3.19,4.14-6.14,9.8-11.48,12.47-18.5,1.12-2.94,1.83-6.92-1-8.93h0Z" transform="translate(0 -33.38)"/><path d="M212.09,307.72l0.63,0.63Z" transform="translate(0 -33.38)"/><path d="M253.57,307.72l0.63,0.63Z" transform="translate(0 -33.38)"/><path d="M76.78,308.35L77.41,309l-0.63-.63m2.55,0L80,309Z" transform="translate(0 -33.38)"/><path d="M178.9,309l0.63,0.63Z" transform="translate(0 -33.38)"/><path d="M385,309l0.63,0.63Z" transform="translate(0 -33.38)"/><path d="M413.76,309.63l0.63,0.63-0.63-.63m37,0.63,0.63,0.63Z" transform="translate(0 -33.38)"/><path d="M493,310.26l0.63,0.63Z" transform="translate(0 -33.38)"/><path d="M255.48,310.91l0.63,0.63Z" transform="translate(0 -33.38)"/><path d="M119.53,311.54l0.63,0.63Z" transform="translate(0 -33.38)"/><path d="M74.23,312.18l0.63,0.63Z" transform="translate(0 -33.38)"/><path d="M249.09,312.18l0.63,0.63Z" transform="translate(0 -33.38)"/><path d="M73.58,312.82l0.63,0.63Z" transform="translate(0 -33.38)"/><path d="M353.14,312.82l0.63,0.63Z" transform="translate(0 -33.38)"/><path d="M321.86,323c-2.69-2.69-5.45-6.42-9.57-5.74L324.43,332l3.18-18.59c-4.86.77-4.62,5.59-5.74,9.57h0v0Z" transform="translate(0 -33.38)"/><path d="M485.25,313.41l0.63,0.63Z" transform="translate(0 -33.38)"/><path d="M111.88,314.09l0.63,0.63-0.63-.63m13.41,0,0.63,0.63Z" transform="translate(0 -33.38)"/><path d="M261.88,319.84l-0.63-3.19h-1.91L260,325c3.72-.65,7.58-7.36,8.3-10.85l-6.39,5.74h0Z" transform="translate(0 -33.38)"/><path d="M450.14,314.09l0.63,0.63Z" transform="translate(0 -33.38)"/><path d="M136.14,314.74l0.63,0.63-0.63-.63m111.06,0,0.63,0.63-0.66-.63m5.11,0,0.63,0.63-0.63-.63m75.32,0,0.63,0.63Z" transform="translate(0 -33.38)"/><path d="M386.32,314.74l0.63,0.63Z" transform="translate(0 -33.38)"/><path d="M499.92,315.37l0.63,0.63Z" transform="translate(0 -33.38)"/><path d="M200.59,316l0.63,0.63Z" transform="translate(0 -33.38)"/><path d="M469.93,316l0.63,0.63Z" transform="translate(0 -33.38)"/><path d="M141.19,316.65l0.63,0.63-0.63-.63m34.46,0,0.63,0.63Z" transform="translate(0 -33.38)"/><path d="M223.78,317.08L224,317.5Z" transform="translate(0 -33.38)"/><path d="M383.77,317.28l0.63,0.63Z" transform="translate(0 -33.38)"/><path d="M454.62,317.28l0.63,0.63-0.63-.63m19.78,0,0.63,0.63Z" transform="translate(0 -33.38)"/><path d="M179.53,317.93l0.63,0.63-0.63-.63m43.41,0,0.68,0.63-0.63-.63m-48.57,1.28,0.63,0.63-0.63-.63m273.78,0,0.63,0.63Z" transform="translate(0 -33.38)"/><path d="M454,319.2l0.63,0.63Z" transform="translate(0 -33.38)"/><path d="M488.44,319.2l0.63,0.63Z" transform="translate(0 -33.38)"/><path d="M85.71,319.84l0.63,0.63Z" transform="translate(0 -33.38)"/><path d="M196.12,319.84l0.63,0.63Z" transform="translate(0 -33.38)"/><path d="M378.67,319.84l0.63,0.63Z" transform="translate(0 -33.38)"/><path d="M84.43,320.48l0.63,0.63-0.63-.63m1.28,0,0.63,0.63Z" transform="translate(0 -33.38)"/><path d="M217.18,320.48l0.63,0.63Z" transform="translate(0 -33.38)"/><path d="M243.35,320.48l0.63,0.63-0.63-.63m204.23,0,0.63,0.63-0.63-.63m-125.73,1.28,0.63,0.63-0.63-.63m97,0,0.63,0.63Z" transform="translate(0 -33.38)"/><path d="M96.56,322.39L97.19,323Z" transform="translate(0 -33.38)"/><path d="M241.44,323l0.63,0.63-0.63-.63m83,0,0.63,0.63Z" transform="translate(0 -33.38)"/><path d="M136.77,323.72l0.63,0.63Z" transform="translate(0 -33.38)"/><path d="M206.33,323.72l0.63,0.63Z" transform="translate(0 -33.38)"/><path d="M214.64,323.72l0.63,0.63Z" transform="translate(0 -33.38)"/><path d="M220.38,323.72l0.63,0.63Z" transform="translate(0 -33.38)"/><path d="M245.91,323.72l0.63,0.63Z" transform="translate(0 -33.38)"/><path d="M456.53,323.72l0.63,0.63Z" transform="translate(0 -33.38)"/><path d="M190.38,324.3l0.63,0.63-0.63-.63m38.93,0,0.63,0.63Z" transform="translate(0 -33.38)"/><path d="M285.43,324.3l-3.15,8.24h-0.63l-5-7L281,340.3h0.63C283.34,336,289.36,328.13,285.43,324.3Z" transform="translate(0 -33.38)"/><path d="M318.67,324.3l0.63,0.63Z" transform="translate(0 -33.38)"/><path d="M219.74,325l0.63,0.63Z" transform="translate(0 -33.38)"/><path d="M411.84,325l0.63,0.63Z" transform="translate(0 -33.38)"/><path d="M197.4,325.58l0.63,0.63Z" transform="translate(0 -33.38)"/><path d="M284.2,325.58l0.63,0.63Z" transform="translate(0 -33.38)"/><path d="M117.64,326.22l0.63,0.63Z" transform="translate(0 -33.38)"/><path d="M217.83,326.22l0.63,0.63Z" transform="translate(0 -33.38)"/><path d="M229.31,326.22l0.63,0.63-0.63-.63m5.74,0,0.63,0.63Z" transform="translate(0 -33.38)"/><path d="M80,326.87l0.63,0.63Z" transform="translate(0 -33.38)"/><path d="M236.33,326.87L237,327.5l-0.63-.63m186.36,0,0.63,0.63-0.63-.63m-254,.63,0.63,0.63-0.63-.63m254.64,0,0.63,0.63Z" transform="translate(0 -33.38)"/><path d="M78.06,328.13l0.63,0.63Z" transform="translate(0 -33.38)"/><path d="M205.07,328.13l0.63,0.63Z" transform="translate(0 -33.38)"/><path d="M213.31,328.13l0.63,0.63Z" transform="translate(0 -33.38)"/><path d="M236.33,328.13l0.63,0.63Z" transform="translate(0 -33.38)"/><path d="M354.41,328.78l3.83,21.06c-4.06-3.55-16.62-19.93-21.7-14,11.78,3.74,16.63,17.46,26.8,23.55l-3.18-12.08-3.84-19.13-1.91.63h0Z" transform="translate(0 -33.38)"/><path d="M424,328.13l0.63,0.63Z" transform="translate(0 -33.38)"/><path d="M436.1,328.78l0.63,0.63Z" transform="translate(0 -33.38)"/><path d="M452.06,328.78l0.63,0.63Z" transform="translate(0 -33.38)"/><path d="M76.14,329.41L76.78,330Z" transform="translate(0 -33.38)"/><path d="M92.73,329.41L93.36,330Z" transform="translate(0 -33.38)"/><path d="M171.23,329.41l0.63,0.63Z" transform="translate(0 -33.38)"/><path d="M202.51,329.41l0.63,0.63-0.63-.63m1.91,0,0.63,0.63Z" transform="translate(0 -33.38)"/><path d="M215.92,329.41l0.63,0.63Z" transform="translate(0 -33.38)"/><path d="M427.17,329.41L427.8,330Z" transform="translate(0 -33.38)"/><path d="M451.42,329.41l0.63,0.63Z" transform="translate(0 -33.38)"/><path d="M166.77,330l0.63,0.63Z" transform="translate(0 -33.38)"/><path d="M201.23,330l0.63,0.63-0.63-.63m8.93,0,0.63,0.63Z" transform="translate(0 -33.38)"/><path d="M125.92,330.69l0.63,0.63Z" transform="translate(0 -33.38)"/><path d="M230,331.33l0.63,0.63Z" transform="translate(0 -33.38)"/><path d="M90.82,332l0.63,0.63Z" transform="translate(0 -33.38)"/><path d="M214,332l0.63,0.57Z" transform="translate(0 -33.38)"/><path d="M228.68,332l0.63,0.63Z" transform="translate(0 -33.38)"/><path d="M176.34,332.55l0.63,0.63Z" transform="translate(0 -33.38)"/><path d="M420.14,332.55l0.63,0.63Z" transform="translate(0 -33.38)"/><path d="M199.31,333.24l0.63,0.63Z" transform="translate(0 -33.38)"/><path d="M388.23,333.24c-3.24,7.92,4.65,16.4,7.65,23.55-8.3-4.28-15.66-11.41-25.52-11.48v2.55c14.22,1.24,21.78,15.78,33.19,22.34-0.1-11.89-10.3-25.57-14-37h-1.28v0.06Z" transform="translate(0 -33.38)"/><path d="M407.38,333.24l0.63,0.63Z" transform="translate(0 -33.38)"/><path d="M172.51,333.89l0.63,0.63Z" transform="translate(0 -33.38)"/><path d="M422.69,333.89l0.63,0.63Z" transform="translate(0 -33.38)"/><path d="M446.95,333.89l0.63,0.63Z" transform="translate(0 -33.38)"/><path d="M235.7,334.52l0.63,0.63Z" transform="translate(0 -33.38)"/><path d="M446.32,334.52l0.63,0.63Z" transform="translate(0 -33.38)"/><path d="M136.77,335.15l0.63,0.63-0.63-.63m218.27,0,0.63,0.63Z" transform="translate(0 -33.38)"/><path d="M445.67,335.15l0.63,0.63Z" transform="translate(0 -33.38)"/><path d="M136.14,335.8l0.63,0.63Z" transform="translate(0 -33.38)"/><path d="M207,335.8l0.63,0.63L207,335.8m26.8,0,0.63,0.63Z" transform="translate(0 -33.38)"/><path d="M411.21,335.8l0.63,0.63Z" transform="translate(0 -33.38)"/><path d="M135.49,336.43l0.63,0.63-0.63-.63m-0.63.63,0.63,0.63Z" transform="translate(0 -33.38)"/><path d="M282.28,337.07l0.63,0.63Z" transform="translate(0 -33.38)"/><path d="M134.22,337.71l0.63,0.63Z" transform="translate(0 -33.38)"/><path d="M160.32,337.71l0.63,0.63Z" transform="translate(0 -33.38)"/><path d="M358.24,338.35l0.63,0.63Z" transform="translate(0 -33.38)"/><path d="M387.6,340.26l0.63,0.63Z" transform="translate(0 -33.38)"/><path d="M131.66,340.91l0.63,0.63Z" transform="translate(0 -33.38)"/><path d="M163.57,340.91l0.63,0.63-0.63-.63m-1.28.63,0.63,0.63Z" transform="translate(0 -33.38)"/><path d="M258.68,342.85l-4.42.63c1.47,3.58,4.17,6.48,5.42,10.22,1.38,4.15.49,9.86,4.8,12.13,2-4.42,6.92-11.78,5.74-16.59-3.62,1.78-5.34,5.67-5.74,9.57h-0.63Z" transform="translate(0 -33.38)"/><path d="M129.75,343.45l0.63,0.63Z" transform="translate(0 -33.38)"/><path d="M199.31,343.45a131.75,131.75,0,0,1-5.14,36.39c4.42,0.16,6.77-4.42,9.17-7.65,4.75-6.33,9.52-13.25,17-16.59V355c-7.58-1-17.06,10.3-19.78,16.59h-0.63c2.25-8.68,4.25-19.55.63-28.08h-1.25Z" transform="translate(0 -33.38)"/><path d="M237.61,343.45l0.63,0.63Z" transform="translate(0 -33.38)"/><path d="M421.43,343.45l0.63,0.63Z" transform="translate(0 -33.38)"/><path d="M436.73,343.45l0.63,0.63Z" transform="translate(0 -33.38)"/><path d="M307.82,357.5L293.1,347.28c0.82,2.61,2.94,3.39,4.83,5.18,3.81,3.53,7.14,11.78,12.41,12.69l1.28-21.06C306.5,346.06,307.82,353,307.82,357.5Z" transform="translate(0 -33.38)"/><path d="M389.51,344.09l0.63,0.63Z" transform="translate(0 -33.38)"/><path d="M436.1,344.09l0.63,0.63Z" transform="translate(0 -33.38)"/><path d="M259.31,344.73l0.63,0.63Z" transform="translate(0 -33.38)"/><path d="M357,345.37l0.63,0.63Z" transform="translate(0 -33.38)"/><path d="M255.48,346l0.63,0.63Z" transform="translate(0 -33.38)"/><path d="M349.93,346l0.63,0.63-0.63-.63m4.42,0.63,0.63,0.63Z" transform="translate(0 -33.38)"/><path d="M355,347.27l0.63,0.63Z" transform="translate(0 -33.38)"/><path d="M233.14,347.93l0.63,0.63-0.63-.63m62.54,0,0.63,0.63Z" transform="translate(0 -33.38)"/><path d="M381.85,348.56l0.63,0.63Z" transform="translate(0 -33.38)"/><path d="M131,349.19l0.63,0.63Z" transform="translate(0 -33.38)"/><path d="M270.16,349.19l0.63,0.63-0.63-.63m-38.93,1.28,0.63,0.63Z" transform="translate(0 -33.38)"/><path d="M353.78,350.47l0.63,0.63Z" transform="translate(0 -33.38)"/><path d="M395.83,350.47l0.63,0.63Z" transform="translate(0 -33.38)"/><path d="M426.53,350.47l0.63,0.63Z" transform="translate(0 -33.38)"/><path d="M429.68,350.47l0.63,0.63Z" transform="translate(0 -33.38)"/><path d="M132.35,351.11l0.59,0.57Z" transform="translate(0 -33.38)"/><path d="M429.08,351.11l0.6,0.57Z" transform="translate(0 -33.38)"/><path d="M297.61,351.68l0.63,0.63Z" transform="translate(0 -33.38)"/><path d="M387.6,351.68l0.63,0.63Z" transform="translate(0 -33.38)"/><path d="M428.45,351.68l0.63,0.63Z" transform="translate(0 -33.38)"/><path d="M163.57,353l0.63,0.63-0.63-.63m95.67,0,0.63,0.63-0.63-.63m40.9,1.28,0.63,0.63Z" transform="translate(0 -33.38)"/><path d="M162.94,355.58l0.63,0.63Z" transform="translate(0 -33.38)"/><path d="M305.91,356.22l0.63,0.63Z" transform="translate(0 -33.38)"/><path d="M344.19,356.22c-4.5,8,2.06,24.42,3.19,33.19h-0.63c-3.56-7.51-10.41-13.72-16-19.78-0.78-.85-4.83-6.36-6.27-4s5.89,8.14,7.27,9.79a127.65,127.65,0,0,1,13.57,19.78c2.24,4,4.18,9.33,8.4,11.48-3.19-16.47-8.26-33.56-8.3-50.41h-1.28Z" transform="translate(0 -33.38)"/><path d="M387.6,356.22l0.63,0.63Z" transform="translate(0 -33.38)"/><path d="M213.31,356.86l0.63,0.63Z" transform="translate(0 -33.38)"/><path d="M216.55,356.86l0.63,0.63-0.63-.63m46.59,0,0.63,0.63Z" transform="translate(0 -33.38)"/><path d="M360.15,356.86l0.63,0.63Z" transform="translate(0 -33.38)"/><path d="M342.91,357.5l0.63,0.63Z" transform="translate(0 -33.38)"/><path d="M425.89,357.5l0.63,0.63Z" transform="translate(0 -33.38)"/><path d="M224.85,358.13l0.63,0.63Z" transform="translate(0 -33.38)"/><path d="M263.78,358.13l0.63,0.63Z" transform="translate(0 -33.38)"/><path d="M411.21,358.78l0.63,0.63-0.63-.63m8.3,0,0.63,0.63Z" transform="translate(0 -33.38)"/><path d="M213.31,359.41l0.63,0.63-0.63-.63m90.63,0,0.63,0.63Z" transform="translate(0 -33.38)"/><path d="M390.78,359.41l0.63,0.63Z" transform="translate(0 -33.38)"/><path d="M161.66,360l0.63,0.63Z" transform="translate(0 -33.38)"/><path d="M414.4,360.69l0.63,0.63Z" transform="translate(0 -33.38)"/><path d="M198,361.32l0.63,0.63Z" transform="translate(0 -33.38)"/><path d="M140.6,362l0.63,0.63Z" transform="translate(0 -33.38)"/><path d="M305.91,362l0.63,0.63-0.63-.63m37,0,0.63,0.63Z" transform="translate(0 -33.38)"/><path d="M425.89,362l0.63,0.63Z" transform="translate(0 -33.38)"/><path d="M209.53,363.24l0.63,0.63-0.63-.63m97.65,0.63,0.63,0.63Z" transform="translate(0 -33.38)"/><path d="M159.11,366.4l0.63,0.63Z" transform="translate(0 -33.38)"/><path d="M398.45,366.4l0.63,0.63Z" transform="translate(0 -33.38)"/><path d="M328.24,367.06l0.63,0.63Z" transform="translate(0 -33.38)"/><path d="M188.46,367.71l0.63,0.63Z" transform="translate(0 -33.38)"/><path d="M237.61,367.71l-0.63.63c3.12,8.58,6.2,15.69,7.71,24.89,0.71,4.27.26,9.83,3.78,12.76,3.59-6.81,4.89-14.72,8.15-21.7,1.88-4,4.95-7.54,4-12.13-6.14,3-9.76,16.65-11.48,23-3.16-8.43-2.19-23.09-11.48-27.45h0Z" transform="translate(0 -33.38)"/><path d="M325.69,369l0.63,0.63-0.63-.63m0.63,0.63,0.63,0.63Z" transform="translate(0 -33.38)"/><path d="M200,370.26l0.63,0.63Z" transform="translate(0 -33.38)"/><path d="M327,370.26l0.63,0.63Z" transform="translate(0 -33.38)"/><path d="M149.53,370.91l0.63,0.63Z" transform="translate(0 -33.38)"/><path d="M162.94,370.91l0.63,0.63Z" transform="translate(0 -33.38)"/><path d="M200,370.91l0.63,0.63Z" transform="translate(0 -33.38)"/><path d="M327.61,370.91l0.63,0.63Z" transform="translate(0 -33.38)"/><path d="M414.4,370.91l0.63,0.63Z" transform="translate(0 -33.38)"/><path d="M203.14,371.54l0.63,0.63-0.63-.63m55.52,0.63,0.63,0.63Z" transform="translate(0 -33.38)"/><path d="M344.19,372.17l0.63,0.63Z" transform="translate(0 -33.38)"/><path d="M260.59,372.82l0.63,0.63Z" transform="translate(0 -33.38)"/><path d="M333.35,372.82l0.63,0.63Z" transform="translate(0 -33.38)"/><path d="M334,373.45l0.63,0.63Z" transform="translate(0 -33.38)"/><path d="M153.36,374.08l0.63,0.63-0.63-.63m47.87,0,0.63,0.63Z" transform="translate(0 -33.38)"/><path d="M281,374.08a211,211,0,0,1,16.59,43.41c4.5-2.52,3.89-7,3.83-11.48-0.12-10.51,3.92-21,3.19-31.28-2.94,1-3.55,4.12-4.08,7-1.27,7-1.28,14.16-2.94,21.06C294.15,394.76,291.4,375.75,281,374.08Z" transform="translate(0 -33.38)"/><path d="M282.93,374.08l0.63,0.63Z" transform="translate(0 -33.38)"/><path d="M385,374.08l0.63,0.63Z" transform="translate(0 -33.38)"/><path d="M240.16,374.73l0.63,0.63Z" transform="translate(0 -33.38)"/><path d="M331.43,374.73l0.63,0.63-0.63-.63m-169.77.63,0.63,0.63Z" transform="translate(0 -33.38)"/><path d="M210.16,375.37l0.63,0.63Z" transform="translate(0 -33.38)"/><path d="M302.07,375.37L302.7,376Z" transform="translate(0 -33.38)"/><path d="M411.21,375.37l0.63,0.63Z" transform="translate(0 -33.38)"/><path d="M131.66,376l0.69,0.71Z" transform="translate(0 -33.38)"/><path d="M301.43,376.7l0.63,0.63-0.63-.63M171.91,378l0.63,0.63Z" transform="translate(0 -33.38)"/><path d="M255.48,377.91l0.63,0.63-0.63-.63m3.83,0,0.63,0.63Z" transform="translate(0 -33.38)"/><path d="M334,377.91l0.63,0.63-0.63-.63m-162.75.63,0.63,0.63Z" transform="translate(0 -33.38)"/><path d="M387,378.56l0.63,0.63Z" transform="translate(0 -33.38)"/><path d="M408.66,378.56l0.63,0.63Z" transform="translate(0 -33.38)"/><path d="M170.62,379.19l0.63,0.63Z" transform="translate(0 -33.38)"/><path d="M258.68,379.19l0.63,0.63Z" transform="translate(0 -33.38)"/><path d="M287.39,379.19l0.63,0.63Z" transform="translate(0 -33.38)"/><path d="M339.73,379.84l0.63,0.63Z" transform="translate(0 -33.38)"/><path d="M258,380.47l0.63,0.63Z" transform="translate(0 -33.38)"/><path d="M284.85,381.12l0.63,0.63Z" transform="translate(0 -33.38)"/><path d="M125.27,381.75l0.63,0.63Z" transform="translate(0 -33.38)"/><path d="M176.34,381.75l0.63,0.63Z" transform="translate(0 -33.38)"/><path d="M124,382.39l0.63,0.63Z" transform="translate(0 -33.38)"/><path d="M253.57,382.39L254.2,383Z" transform="translate(0 -33.38)"/><path d="M285.43,382.39l0.63,0.63Z" transform="translate(0 -33.38)"/><path d="M405.47,382.39L406.1,383Z" transform="translate(0 -33.38)"/><path d="M286.11,383.67l0.63,0.63-0.63-.63m3.83,0,0.63,0.63-0.63-.63m-3.19,1.28,0.63,0.63-0.63-.63m3.83,0,0.63,0.63-0.63-.63m-38.27.63,0.63,0.63-0.63-.63m3.19,0,0.63,0.63Z" transform="translate(0 -33.38)"/><path d="M366.54,385.54l0.63,0.63Z" transform="translate(0 -33.38)"/><path d="M291.22,386.21l0.63,0.63Z" transform="translate(0 -33.38)"/><path d="M411.84,386.86l0.63,0.63Z" transform="translate(0 -33.38)"/><path d="M162.94,387.49l0.63,0.63Z" transform="translate(0 -33.38)"/><path d="M235.05,388.13l0.63,0.63Z" transform="translate(0 -33.38)"/><path d="M341,388.13l0.63,0.63Z" transform="translate(0 -33.38)"/><path d="M251,388.77l0.63,0.63Z" transform="translate(0 -33.38)"/><path d="M371,388.77l0.63,0.63Z" transform="translate(0 -33.38)"/><path d="M173.79,389.41l0.63,0.63Z" transform="translate(0 -33.38)"/><path d="M236.33,389.41L237,390Z" transform="translate(0 -33.38)"/><path d="M373.56,390.69l0.63,0.63-0.63-.63m-40.85.63,0.63,0.63-0.63-.63m1.28,0,0.63,0.63Z" transform="translate(0 -33.38)"/><path d="M159.11,392l0.63,0.63Z" transform="translate(0 -33.38)"/><path d="M249.74,392l0.63,0.63Z" transform="translate(0 -33.38)"/><path d="M343.56,392l0.63,0.63-0.63-.63m-162.12,2.56,0.63,0.63Z" transform="translate(0 -33.38)"/><path d="M261.22,394.51l0.63,0.63-0.63-.63m-104.67.63,0.63,0.63Z" transform="translate(0 -33.38)"/><path d="M351.21,395.15l0.63,0.63Z" transform="translate(0 -33.38)"/><path d="M295,395.84l0.69,0.59-0.63-.63M184,396.43l0.63,0.63Z" transform="translate(0 -33.38)"/><path d="M346.11,396.43l0.63,0.63Z" transform="translate(0 -33.38)"/><path d="M307.17,397.06l0.63,0.63Z" transform="translate(0 -33.38)"/><path d="M185.34,397.71l0.63,0.63Z" transform="translate(0 -33.38)"/><path d="M382.49,398.34l0.63,0.63Z" transform="translate(0 -33.38)"/><path d="M154,399l0.63,0.63Z" transform="translate(0 -33.38)"/><path d="M245.27,399l0.63,0.63Z" transform="translate(0 -33.38)"/><path d="M284.2,399l0.63,0.63Z" transform="translate(0 -33.38)"/><path d="M383.13,399l0.63,0.63Z" transform="translate(0 -33.38)"/><path d="M208.89,399.62l0.63,0.63-0.63-.63m87.43,0.63,0.63,0.63-0.63-.63m-106.58.63,0.63,0.63-0.63-.63m125.11,0,0.63,0.63-0.63-.63m-123.19,1.28,0.63,0.63-0.63-.63M311,402.8l0.63,0.63L311,402.8m-86.17.63,0.63,0.63-0.63-.63m91.91,0,0.63,0.63-0.63-.63m-92.55,1.24,0.63,0.63-0.63-.63M198,405.3l0.63,0.63L198,405.3m8.3,0,0.63,0.63-0.63-.63m111.69,0,0.63,0.63L318,405.3m-118.08.63,0.63,0.63-0.63-.63m67,0.63,0.63,0.63Z" transform="translate(0 -33.38)"/><path d="M227.4,407.91l0.63,0.63Z" transform="translate(0 -33.38)"/><path d="M371,410.47l0.63,0.63Z" transform="translate(0 -33.38)"/><path d="M396.54,410.47l0.63,0.63Z" transform="translate(0 -33.38)"/><path d="M302.07,411.1l0.63,0.63Z" transform="translate(0 -33.38)"/><path d="M368.45,411.75l0.63,0.63Z" transform="translate(0 -33.38)"/><path d="M269.52,413l0.63,0.63-0.63-.63m26.8,0,0.63,0.63Z" transform="translate(0 -33.38)"/><path d="M364,413.66l0.63,0.63Z" transform="translate(0 -33.38)"/><path d="M300.15,415.58l0.63,0.63Z" transform="translate(0 -33.38)"/><path d="M318.67,415.58l0.63,0.63Z" transform="translate(0 -33.38)"/><path d="M360.15,415.58l0.63,0.63Z" transform="translate(0 -33.38)"/><path d="M226.12,416.21l0.63,0.63-0.63-.63m73.39,0,0.63,0.63Z" transform="translate(0 -33.38)"/><path d="M358.87,416.21l0.63,0.63Z" transform="translate(0 -33.38)"/><path d="M284.85,417.49l0.63,0.63Z" transform="translate(0 -33.38)"/><path d="M319.29,417.49l0.63,0.63-0.63-.63m5.11,0,0.63,0.63Z" transform="translate(0 -33.38)"/><path d="M189.11,418.77l0.65,0.62Z" transform="translate(0 -33.38)"/><path d="M235.7,419.39l0.63,0.63-0.63-.63m36.39,1.28,0.63,0.63Z" transform="translate(0 -33.38)"/><path d="M348,420.69l0.63,0.63-0.63-.63m-1.91.63,0.63,0.63Z" transform="translate(0 -33.38)"/><path d="M402.28,422l0.63,0.63-0.63-.63m1.28,0,0.63,0.63Z" transform="translate(0 -33.38)"/><path d="M341.65,422.6l0.63,0.63Z" transform="translate(0 -33.38)"/><path d="M327,423.81l0.63,0.63-0.63-.63M215.9,425.09l0.63,0.63Z" transform="translate(0 -33.38)"/><path d="M255.48,425.15l0.63,0.63Z" transform="translate(0 -33.38)"/><path d="M355,425.79l0.63,0.63Z" transform="translate(0 -33.38)"/><path d="M261.22,426.43l0.63,0.63Z" transform="translate(0 -33.38)"/><path d="M356.32,430.89l0.63,0.63-0.63-.63m0.63,0.63,0.63,0.63Z" transform="translate(0 -33.38)"/><path d="M357.56,432.17l0.63,0.63-0.63-.63m6.39,2.55,0.63,0.63Z" transform="translate(0 -33.38)"/><path d="M299.52,437.27l0.63,0.63Z" transform="translate(0 -33.38)"/><path d="M362.06,437.27l0.63,0.63-0.63-.63m-30,2.55,0.63,0.63Z" transform="translate(0 -33.38)"/><path d="M365.26,440.47l0.63,0.63-0.63-.63m-66.37.63,0.63,0.63-0.63-.63m67,0,1.28,1.28Z" transform="translate(0 -33.38)"/><path d="M366.54,441.1l0.63,0.63Z" transform="translate(0 -33.38)"/><path d="M335.26,442.38l0.63,0.63Z" transform="translate(0 -33.38)"/><path d="M248.46,443l0.63,0.63Z" transform="translate(0 -33.38)"/><path d="M411.34,224.68a6.87,6.87,0,1,1-6.87-6.87,6.87,6.87,0,0,1,6.87,6.87h0Z" transform="translate(0 -33.38)"/></svg>