<svg width="24" height="12" viewBox="0 0 16 8" fill="none" xmlns="http://www.w3.org/2000/svg">
  <path
    d="M15.474 3.99187C15.4728 3.91154 15.4534 3.83253 15.4173 3.76074C15.3812 3.68895 15.3294 3.62624 15.2657 3.57729C15.2646 3.57659 15.2636 3.5759 15.2626 3.57521L12.6438 0.956456C12.5947 0.905271 12.5358 0.864406 12.4707 0.836254C12.4055 0.808102 12.3354 0.79323 12.2645 0.792508C12.1935 0.791786 12.1231 0.80523 12.0574 0.832051C11.9917 0.858871 11.9321 0.898531 11.8819 0.948706C11.8317 0.998881 11.7921 1.05856 11.7652 1.12426C11.7384 1.18995 11.725 1.26034 11.7257 1.33129C11.7264 1.40225 11.7413 1.47234 11.7694 1.53748C11.7976 1.60262 11.8384 1.66148 11.8896 1.71062L13.6459 3.46687L1.06672 3.46687C0.996045 3.46587 0.925877 3.47893 0.860295 3.50528C0.794712 3.53164 0.73502 3.57076 0.684689 3.62039C0.634359 3.67001 0.594394 3.72914 0.567115 3.79435C0.539836 3.85955 0.525788 3.92953 0.525788 4.00021C0.525788 4.07089 0.539836 4.14086 0.567115 4.20606C0.594394 4.27127 0.634359 4.3304 0.684689 4.38002C0.73502 4.42965 0.794712 4.46877 0.860295 4.49513C0.925877 4.52148 0.996045 4.53454 1.06672 4.53354L13.6459 4.53354L11.8896 6.28979C11.8384 6.33893 11.7976 6.3978 11.7694 6.46293C11.7413 6.52807 11.7264 6.59816 11.7257 6.66912C11.725 6.74007 11.7384 6.81046 11.7652 6.87615C11.792 6.94185 11.8317 7.00153 11.8819 7.05171C11.9321 7.10188 11.9917 7.14154 12.0574 7.16836C12.1231 7.19518 12.1935 7.20863 12.2645 7.2079C12.3354 7.20718 12.4055 7.19231 12.4707 7.16416C12.5358 7.13601 12.5947 7.09514 12.6438 7.04395L15.2657 4.42208C15.3315 4.37152 15.3846 4.3063 15.4207 4.23162C15.4569 4.15694 15.4751 4.07484 15.474 3.99187Z"
    fill="#183BEE" />
</svg>
