<svg xmlns="http://www.w3.org/2000/svg" xmlns:xlink="http://www.w3.org/1999/xlink" xml:space="preserve" width="1200" height="1200" style="enable-background:new 0 0 1200 1200">
  <a xlink:href="http://free.arinco.org/mail/zoho/">
    <radialGradient id="a" cx="601.241" cy="627.639" r="558.681" fx="598.686" fy="95.117" gradientUnits="userSpaceOnUse">
      <stop offset="0" style="stop-color:#e03c3b"/>
      <stop offset=".44" style="stop-color:#de3c3b"/>
      <stop offset=".598" style="stop-color:#d73b3a"/>
      <stop offset=".711" style="stop-color:#cc3a39"/>
      <stop offset=".802" style="stop-color:#bb3838"/>
      <stop offset=".88" style="stop-color:#a53636"/>
      <stop offset=".948" style="stop-color:#8a3333"/>
      <stop offset="1" style="stop-color:#703031"/>
      <stop offset="1" style="stop-color:#000"/>
    </radialGradient>
    <path d="M601.236 68.96c-308.058 0-558.678 250.623-558.678 558.678 0 308.058 250.62 558.681 558.678 558.681 149.23 0 289.529-58.107 395.049-163.632 105.522-105.52 163.639-245.816 163.639-395.049-.005-308.055-250.627-558.678-558.688-558.678z" style="fill:url(#a)"/>
    <path d="M601.236 1196.734c-152.004 0-294.915-59.189-402.403-166.681C91.337 922.563 32.14 779.65 32.14 627.638c0-152.004 59.195-294.917 166.691-402.404 107.491-107.487 250.401-166.69 402.404-166.69 152.012 0 294.922 59.198 402.413 166.69 107.49 107.484 166.688 250.395 166.688 402.404 0 152.015-59.195 294.931-166.688 402.416-107.484 107.485-250.402 166.68-402.412 166.68zm0-1127.774c-308.058 0-558.678 250.623-558.678 558.678 0 308.058 250.62 558.681 558.678 558.681 149.23 0 289.529-58.107 395.049-163.632 105.522-105.52 163.639-245.816 163.639-395.049-.005-308.055-250.627-558.678-558.688-558.678z" style="fill:#232323"/>
    <path d="M730.092 953.37c-56.032-13.878-96.429-73.381-104.129-122.503v3.08c-.163-19.536 28.434-24.917 89.577-69.115 117.495-71.613 205.463-135.709 222.323-134.396 11.413-.41 24.118 9.251 34.865 19.777 23.682 23.221 47.586 64.848 38.172 124.45C982.883 909.652 864.958 994.12 730.092 953.37zm-257.706 0c56.034-13.878 96.426-73.381 104.126-122.503v3.08c.165-19.536-28.429-24.917-89.577-69.115-117.492-71.613-205.455-135.709-222.32-134.396-11.418-.41-24.119 9.251-34.866 19.777-23.678 23.221-47.583 64.848-38.169 124.45C219.59 909.652 337.515 994.12 472.386 953.37zM103.259 275.097c60.881 79.75 120.89 116.153 120.89 116.153s10.742 5.208 22.903 13.706c20.627 14.405 15.292 28.723-4.069 49.699-19.366 20.973-50.856 57.08-59.8 71.024-8.949 13.942-20.576 44.105-39.497 42.613-32.615-2.575-45.183-79.068-28.375-112.768 0 0 13.791-24.242 5.686-46.903-2.342-6.55-7.591-13.689-13.949-22.801C11.968 249.545-5.01 71.875 1.112 8.737c0 0-.186-4.414 4.221-5.301 4.402-.892 5.488 1.611 9.084 9.955 57.082 132.43 137.809 205.103 195.552 242.773 0 0 3.329 3.252 29.942-2.895 12.558-2.907 26.761-6.329 39.146-6.329 15.556 0 25.82 5.243 31.402 16.032 4.341 8.406 4.989 15.215 1.927 20.247-3.349 5.499-17.801 13.254-55.088 3.859-16.904-4.263-37.808-10.028-54.847-21.158-65.753-42.968-144.105-131.958-190.48-232.459.473 13.083 1.409 28.983 3.156 46.988-.001.001 17.013 101.467 88.132 194.648zm993.48.002c-60.882 79.75-120.893 116.154-120.893 116.154s-10.742 5.208-22.903 13.706c-20.624 14.405-15.291 28.726 4.071 49.699 19.366 20.973 50.856 57.08 59.806 71.024 8.941 13.942 20.571 44.106 39.494 42.613 32.609-2.575 45.178-79.068 28.373-112.767 0 0-13.794-24.242-5.682-46.903 2.338-6.548 7.586-13.689 13.944-22.801C1188.03 249.547 1205.006 71.877 1198.89 8.74c0 0 .183-4.414-4.22-5.301-4.409-.891-5.492 1.611-9.089 9.955-57.081 132.432-137.809 205.103-195.552 242.771 0 0-3.332 3.252-29.942-2.895-12.563-2.907-26.763-6.329-39.147-6.329-15.552 0-25.82 5.243-31.399 16.032-4.339 8.406-4.987 15.215-1.926 20.247 3.35 5.499 17.799 13.254 55.086 3.859 16.898-4.263 37.803-10.028 54.841-21.158 65.754-42.968 144.108-131.958 190.484-232.458-.473 13.083-1.409 28.983-3.153 46.988-.001-.001-17.012 101.465-88.134 194.648z" style="fill:#232323"/>
    <path d="M932.863 658.598c6.403-3.546 10.844-3.321 16.393 1.464 14.974 12.939 27.74 27.74 35.938 45.799 29.434 64.851 3.527 120.62-16.128 159.677-44.682 55.562-73.8 73.861-133.682 83.57-70.26 7.736-127.713-3.263-165.226-44.254-15.49-16.927-27.577-38.971-35.759-66.929-3.098-10.585-1.172-15.319 8.688-20.619 53.703-28.844 262.408-143.438 289.776-158.708zm-661.974 0c-6.404-3.546-10.846-3.321-16.393 1.464-14.977 12.939-27.74 27.74-35.941 45.799-29.431 64.851-3.527 120.62 16.128 159.677 44.685 55.562 73.803 73.861 133.687 83.57 70.257 7.736 127.713-3.263 165.224-44.254 15.49-16.927 27.575-38.971 35.755-66.929 3.095-10.585 1.172-15.319-8.689-20.619-53.698-28.844-262.403-143.438-289.771-158.708z" style="fill:#fff"/>
    <path d="M996.265 739.939c3.312 15.152 8.84 54.896-11.652 97.985-20.502 43.079-66.723 109.113-185.784 118.288-103.503.506-145.675-74.344-145.675-74.344s90.134 35.16 186.186 7.064c141.041-40.433 153.624-164.159 156.925-148.993zm-788.778 0c-3.314 15.152-8.84 54.896 11.652 97.985 20.5 43.079 66.723 109.113 185.784 118.288 103.503.506 145.672-74.344 145.672-74.344s-90.132 35.16-186.184 7.064c-141.04-40.433-153.623-164.159-156.924-148.993z" style="fill:#dadada"/>
    <path d="M260.129 426.358c0-14.937-9.524-18.729-35.979-35.116-22.059-13.672-71.305-52.569-118.869-113.646C32.137 183.674 15.124 80.45 15.124 80.45c-3.156-23.507-3.156-46.988-3.156-46.988s38.525 90.207 119.446 172.593c69.301 67.672 86.879 69.625 125.885 81.019 37.462 10.939 52.006-.422 52.006-.422s13.506 24.731-2.835 76.853c-10.792 32.354-29.224 52.024-46.341 62.853m679.738 0c0-14.937 9.521-18.729 35.977-35.116 22.062-13.672 71.306-52.569 118.871-113.646 73.146-93.922 90.157-197.146 90.157-197.146 3.158-23.507 3.158-46.988 3.158-46.988s-38.527 90.204-119.445 172.593c-69.304 67.672-86.882 69.625-125.885 81.019-37.465 10.939-52.009-.422-52.009-.422s-13.501 24.731 2.836 76.853c10.795 32.354 29.228 52.024 46.34 62.853" style="fill:#e03a36"/>
    <path d="M705.123 633.223s7.185-7.08 10.712-9.737c36.412-20.152 50.053-30.765 81.717 4.465 20.901 23.239 35.737 50.01 50.566 77.022 22.277 57.326 29.237 96.342 24.475 143.612-3.698 36.661-13.494 71.593-31.062 104.79-2.383-7.705-2.383-7.705-2.434-11.154 0 0 1.758-67.424-10.287-122.756-27.916-120.158-83.9-160.858-123.687-186.242zm-207.766 0s-7.182-7.08-10.704-9.737c-36.422-20.152-50.061-30.765-81.727 4.465-20.901 23.239-35.738 50.01-50.562 77.022-22.277 57.326-29.235 96.342-24.474 143.612 3.69 36.661 13.493 71.593 31.053 104.79 2.38-7.705 2.38-7.705 2.434-11.154 0 0-1.752-67.424 10.29-122.756 27.923-120.158 83.906-160.858 123.69-186.242z" style="fill:#020202"/>
  </a>
</svg>