<svg xmlns="http://www.w3.org/2000/svg" viewBox="0 0 256 256.01"><defs><style>.b{fill:#91dc47}</style></defs><path d="M128 0a128 128 0 1 0 128 128A128.15 128.15 0 0 0 128 0" fill="#fff"/><path class="b" d="M123.32 130.3q-1.9 4.12-3.73 8.27c-4.64 10.52-9.79 23.33-11.67 31.53a47.37 47.37 0 0 0-1.08 10.56c0 1.59.08 3.26.22 5a60.87 60.87 0 0 0 40.35.61 36.26 36.26 0 0 1-4-4.26c-8.22-10.48-12.81-25.84-20.06-51.67M93 78.22a61 61 0 0 0-.7 99.48c3.75-15.64 13.16-30 27.28-58.65q-1.37-3.76-2.86-7.47c-3.91-9.81-9.55-21.19-14.59-26.35a40.59 40.59 0 0 0-9.12-7"/><path d="M181.39 198.37c-8.1-1-14.79-2.24-20.63-4.3A73.48 73.48 0 0 1 79.69 73a53.94 53.94 0 0 0-12.76-1.56c-21.56.2-44.32 12.14-53.8 44.36-.89 4.69-.68 8.24-.68 12.44a115.65 115.65 0 0 0 210.28 66.51 134.74 134.74 0 0 1-31.53 4.2 81.2 81.2 0 0 1-9.81-.56" fill="#63b132"/><path d="M159.66 176a32.27 32.27 0 0 0 4.59 1.57 61.17 61.17 0 0 0 25-49.31 61.09 61.09 0 0 0-80.37-58c12.42 14.16 18.39 34.39 24.17 56.51s1.85 6.14 5 14.27 7.59 18.17 12.46 25.49c3.2 4.91 6.71 8.43 9.1 9.47" fill="#90b4fe"/><path d="M128.12 12.54a115.5 115.5 0 0 0-94 48.32 58.75 58.75 0 0 1 31.82-9.22A62.15 62.15 0 0 1 95 58.7q1.81 1.05 3.53 2.25a73.49 73.49 0 0 1 103.07 67.27 73.26 73.26 0 0 1-21.86 52.29 90.25 90.25 0 0 0 10.45.58c12.81 0 26.66-2.82 37-11.55 6.77-5.7 12.44-14.05 15.59-26.57A115.5 115.5 0 0 0 128.12 12.54" fill="#5881d8"/></svg>