<svg id="Calque_1" xmlns="http://www.w3.org/2000/svg" viewBox="0 0 397.4 397.4"><linearGradient id="SVGID_1_" gradientUnits="userSpaceOnUse" x1="206.75" y1="-.45" x2="206.73" y2=".48" gradientTransform="matrix(257.1 0 0 396.38 -52953.629 206.688)"><stop offset="0" stop-color="#d9d8dc"/><stop offset="1" stop-color="#fff" stop-opacity=".39"/></linearGradient><path d="M209.8 1c-28.9 10.2-56.7 40.1-83.6 89.6-40.3 74.2-92.4 179.8-20.7 263.3 33.2 38.6 87.9 61.5 159.8 25.3 57.7-29 73.8-112.3 53-151.4-42.8-80.7-86.1-100.7-97.7-150.7-7.8-33.4-11.4-58.8-10.8-76.1z" fill="url(#SVGID_1_)"/><linearGradient id="SVGID_2_" gradientUnits="userSpaceOnUse" x1="206.801" y1="-.463" x2="206.591" y2=".457" gradientTransform="matrix(197.43 0 0 392.6 -40632 207.201)"><stop offset="0" stop-color="#8d67af" stop-opacity=".67"/><stop offset="1" stop-color="#9f8daf"/></linearGradient><path d="M209.8 0c-29 10.3-56.9 40.2-83.6 89.6-40.1 74.1-92.4 179.8-20.7 263.3 33.2 38.6 87.2 51.1 117.2 28.2 19.6-14.9 32.8-29.2 40.5-59.2 8.5-33.4 2-78.4-2.5-99.1-5.7-26.2-7.5-54.9-5.6-86.1l-1.6-1.9c-15.6-19.1-27.7-35.8-33-58.8-7.7-33.3-11.3-58.7-10.7-76z" fill="url(#SVGID_2_)"/><linearGradient id="SVGID_3_" gradientUnits="userSpaceOnUse" x1="206.694" y1="-.231" x2="206.694" y2=".439" gradientTransform="matrix(220.53 0 0 380.15 -45365.11 219.72)"><stop offset="0" stop-color="#26053d" stop-opacity=".76"/><stop offset="1" stop-color="#b7b4b4" stop-opacity=".28"/></linearGradient><path d="M185.8 13c-27 21.3-47.1 57.2-60.3 107.5-19.7 75.4-21.9 145-14.9 185.5 13.5 78.4 83.5 108.2 155.3 71.7 44.2-22.5 62.6-70.7 61.6-123.1-1-54.2-105.8-115.6-124.3-160.9-12.5-30.1-18.3-57-17.4-80.7z" fill="url(#SVGID_3_)"/><linearGradient id="SVGID_4_" gradientUnits="userSpaceOnUse" x1="206.44" y1="-.976" x2="206.84" y2="-.176" gradientTransform="matrix(257.41 0 0 195.56 -53017.8 330.46)"><stop offset="0" stop-color="#91739f" stop-opacity=".46"/><stop offset="1" stop-color="#32054f" stop-opacity=".54"/></linearGradient><path d="M254.3 154.4c32.4 41.6 39.5 70.5 21.2 86.8-27.4 24.5-94.5 40.4-136.2 10.8-27.8-19.7-38.3-62-31.6-126.9-11.3 23.6-21.1 47.9-29.1 72.8-7.9 24.6-10.3 50.3-7 77.2 9.9 20.1 34.1 33.5 72.5 40.3 57.6 10.1 112.1 5.1 148.7-13.3 24.4-12.3 35.9-24.5 34.6-36.7.9-18-4.7-35.1-16.6-51.4-12-16.1-30.8-36-56.5-59.6z" fill="url(#SVGID_4_)"/><linearGradient id="SVGID_5_" gradientUnits="userSpaceOnUse" x1="206.961" y1=".161" x2="206.251" y2="-.589" gradientTransform="matrix(198.95 0 0 256.49 -40905.898 318.851)"><stop offset="0" stop-color="#463d49" stop-opacity=".33"/><stop offset="1" stop-color="#340a50" stop-opacity=".82"/></linearGradient><path d="M127.6 112.9c-.3 30 7.4 58.5 23.2 85.6 23.6 40.6 51.1 80.7 92.2 113.9 27.4 22.2 49.4 29.3 65.8 21.5-13.5 24.1-27.8 35.9-43 35.5-22.8-.7-50.6-10.7-95.1-64.2-29.7-35.7-50-69.4-60.9-101.2 1.7-12.6 3.6-25.2 5.5-37.7s6.1-30.2 12.3-53.4z" fill="url(#SVGID_5_)"/><linearGradient id="SVGID_6_" gradientUnits="userSpaceOnUse" x1="206.635" y1="-.696" x2="206.365" y2=".224" gradientTransform="matrix(118.15 0 0 272.92 -24188.78 320.252)"><stop offset="0" stop-color="#715383" stop-opacity=".15"/><stop offset="1" stop-color="#f4f4f4" stop-opacity=".23"/></linearGradient><path d="M197.2 154.1c2.5 24.5 12 63.6 0 89.6s-67.6 73.1-52.3 114.6 52.7 32.1 76.2 13 36-50.2 38.8-72-6.7-63.9-9.7-100.4c-2-24.4-.7-45.3 4.2-62.7l-7.2-9-42.3-12.5c-6.8 10-9.4 23.1-7.7 39.4z" fill="url(#SVGID_6_)"/><linearGradient id="SVGID_7_" gradientUnits="userSpaceOnUse" x1="206.896" y1="-.278" x2="205.686" y2="-.508" gradientTransform="matrix(71.46 0 0 220.28 -14538.91 238.682)"><stop offset="0" stop-color="#a5a1a8" stop-opacity=".36"/><stop offset="1" stop-color="#370c50" stop-opacity=".58"/></linearGradient><path d="M212.3 33c-13.7 5.8-26.7 17.2-38.9 34.4-18.4 25.7-27.7 41.1-20.8 92.1 4.6 34 7.9 65.3 9.9 93.8l59.3-172.2c-2.2-8.7-4-16.7-5.5-23.8-1.4-7.1-2.8-15.2-4-24.3z" fill="url(#SVGID_7_)"/><path d="M221.7 80.8c-15 8.8-26.7 26.8-35 54s-15.9 65.2-22.7 114c9.2-31.1 15.2-53.6 18.2-67.5 4.5-20.9 6-50.5 17.9-70.5 7.9-13.4 15.1-23.4 21.6-30z" fill="#330a4c" fill-opacity=".32"/><path d="M152 372.2c24.8 3.5 37.7 6.7 38.8 9.4 1.7 4.1-3.1 7.9-16.9 5.4-9.1-1.7-16.4-6.7-21.9-14.8z" fill="#fff"/><path d="M164.4 33C151 49 139.1 66.4 129 84.7c-10 18.2-17.1 31.8-21.4 40.8-1.3 6.7-2 16.5-1.9 29.6.1 14.6 1.3 29.1 3.4 43.5 1.9-31 7.9-61.6 17.9-91.1 10-29.3 22.5-54.2 37.4-74.5z" fill="#ededed" fill-opacity=".6"/></svg>