<svg width="16" height="16" viewBox="0 0 16 16" fill="none" xmlns="http://www.w3.org/2000/svg">
<path d="M6.82981 0.9C3.56177 0.9 0.9 3.56177 0.9 6.82981C0.9 10.0979 3.56177 12.7596 6.82981 12.7596C8.21858 12.7596 9.49659 12.2776 10.5084 11.4742L13.925 14.8908C13.9878 14.956 14.0629 15.008 14.146 15.0439C14.2294 15.08 14.3191 15.099 14.41 15.1C14.5009 15.1009 14.591 15.0837 14.6751 15.0493C14.7593 15.015 14.8357 14.9642 14.8999 14.8999C14.9642 14.8357 15.015 14.7593 15.0493 14.6751C15.0837 14.591 15.1009 14.5009 15.1 14.41C15.099 14.3191 15.08 14.2294 15.0439 14.146C15.008 14.0629 14.956 13.9878 14.8908 13.925L11.4742 10.5084C12.2776 9.49659 12.7596 8.21858 12.7596 6.82981C12.7596 3.56177 10.0979 0.9 6.82981 0.9ZM6.82981 2.26596C9.35726 2.26596 11.3937 4.30236 11.3937 6.82981C11.3937 9.35726 9.35726 11.3937 6.82981 11.3937C4.30236 11.3937 2.26596 9.35726 2.26596 6.82981C2.26596 4.30236 4.30236 2.26596 6.82981 2.26596Z" fill="#183BEE" stroke="#183BEE" stroke-width="0.2"/>
</svg>
