<svg id="svg3944" xmlns="http://www.w3.org/2000/svg" viewBox="0 0 614.1 614.1"><style>.st1{fill:#6398aa}</style><g id="layer1" transform="translate(-35.397 -30.558)"><path id="path4019" d="M155 487.9c0-.8 10.8-18.6 24.1-39.6 13.2-21 22.7-38.6 20.9-39.2-1.7-.6-7.7.5-13.2 2.4-16.7 5.8-20.2 4.3-32.7-14.7-13.5-20.5-14-22.7-7-30.5 4.6-5.1 4.3-6.3-3.2-13.8-4.6-4.6-8.3-9.6-8.3-11.3 0-2.8-31-15.6-80-33-11.1-3.9-20.2-7.8-20.2-8.6 0-.8 23.5-1 52.2-.4l52.2 1.1 5.1-8c21.5-33.9 54-64.6 68.5-64.6 3 0 9.1 2.9 13.6 6.4 7.3 5.7 8.3 9.2 9.5 33.9.8 15.1 2.4 28.5 3.6 29.7 1.2 1.2 5-.4 8.4-3.5 4.4-4 9-5.1 15.6-3.6 6.8 1.5 10.6.5 14.2-3.7 5.3-6.3 31.9-48.9 31.9-51.1 0-.8 5.3-9.8 11.7-20 6.4-10.3 13.8-22.1 16.5-26.3 4.7-7.5 5.4-6.6 33.4 40.4 28.9 48.5 44.5 66.4 52.3 60.1 5.4-4.4 34-4.6 42-.4 4.5 2.4 7.4 2.4 9.9-.1 5.2-5.2 17.6-4.3 20.9 1.5 2.6 4.6 3.2 4.6 7 0 2.3-2.8 9.1-5.1 15.2-5.1 8.5 0 11.8 1.8 14.6 8l3.6 8 56.1-2c30.9-1.1 56.1-1.3 56.1-.4s-22.9 10.1-50.9 20.5-51.4 19.2-51.9 19.6c-.6.4.7 9.5 2.8 20.2 5.5 28 1.9 46.6-11.9 61.9-6.2 6.9-16.3 14.1-22.4 16.2-6.1 2-11.1 4.4-11.1 5.3s6.5 11.7 14.5 24 13.3 22.4 11.8 22.4c-2.4 0-60.5-22.4-150.8-58.3-17.8-7.1-34-12.8-36-12.8-3.8 0-36.2 12.3-131.2 49.7-55.3 21.5-57.4 22.3-57.4 19.7zm113.1-51.2c29.3-11.4 58.4-22.5 64.6-24.7 10.7-3.8 14.3-2.9 66.3 17.7 30.2 11.9 60 23.6 66.3 25.9 6.2 2.3 19 7.2 28.5 11 10.8 4.3 16.3 5.3 14.8 2.8-16.9-28.6-17.4-29-29.1-26.8-14.1 2.6-22.9-.1-27.4-8.5-2.9-5.5-2-8.1 5.3-15.7 10.8-11.3 9.1-21.7-4.8-29.6-5.4-3-12.1-10.5-15.1-16.6l-5.3-11.1-11.3 7.7c-13.9 9.5-31 10-45.1 1.3l-10.5-6.4-12.2 8.3c-12.2 8.3-26.2 9.3-40.4 3.1-3.9-1.7-5.7-1.1-5.7 2.2 0 2.6-3.7 6.4-8.2 8.4-13.6 6.2-26.8 4.5-35.8-4.4l-8.2-8.2-6.6 8.4c-3.6 4.6-12 11.8-18.7 16-8.2 5.2-18.4 17.9-31.9 39.7-10.9 17.6-19.8 33-19.8 34.1 0 1.1 8.4-1.5 18.6-5.8 10-4.6 42.4-17.4 71.7-28.8zm248.8-12.3c22.3-12.5 27.4-35.6 17.6-78.8-8.2-36.1-12.3-47.9-17.2-49.5-3.4-1.1-3.9.1-2 4.6 12.3 29.3 13 43.9 2.2 48.1-7.4 2.8-15.2-7.8-21.4-29-4.8-16.4-9.8-23.8-13.5-20.1-.9.9.7 6.1 3.5 11.6s6.7 22 8.6 36.7c1.9 14.7 5.6 30.1 8.2 34.2 6.8 10.7 17.6 8.1 24.5-5.9 6.9-13.8 7.7-4.6 1 11.4-7 16.7-27.6 21.7-51.6 12.5-3.8-1.5-5.1.1-5.1 6 0 4.4-2.9 11.7-6.5 16.3l-6.5 8.3 8.9 1.5c15.5 2.6 36.6-.8 49.3-7.9zm-320.4-27.5c46.5-13.4 54.8-28.9 39.3-73.8-3.6-10.4-6.5-21.6-6.5-24.9 0-11.2-5.6-6-9.8 9-5.6 19.9-22.3 36.8-36.3 36.7-12.2-.1-16.2-2.3-21.2-11.9-9-17.2.8-43.6 26-69.5 18.4-19 28.5-20.7 28.5-4.9 0 24.7-17 61-26 55.5-4.4-2.7-3.7-14.7 1.4-23.9 4.3-7.8 3.4-19.7-1.5-19.7-5.7 0-16.9 20.7-18.4 33.9-1.3 11.7-.5 14.5 5.1 17.5 19.5 10.4 45-21.4 46.3-57.7.7-19.1-3-24.4-14.8-21.5-17.1 4.3-63.2 63.8-63.2 81.6 0 13.9 7 23.7 19.3 27 20.9 5.6 41.1-4.4 55.5-27.4l6-9.7v13.2c0 19.1-12.4 29.1-51.7 41.8-9.8 3.1-18.2 6.1-18.7 6.5-1.8 1.5 16.7 27.5 19.6 27.5 1.5-.1 11-2.4 21.1-5.3zm279.9-23.7c4.7-5.2 5.5-10.8 4.5-30.5-1.1-21.5-2.3-25.3-10.7-34.1-15.1-15.8-33.9-11.8-22.9 4.9 5.8 8.9 12.9 7.4 10.4-2.2-2-7.6 1.7-7.8 8.2-.4 12.2 13.9 9.1 33.1-5.3 33.1-9.9 0-12.9-4.2-19.4-26.7-2.9-10.2-6.5-18.6-7.9-18.6-4.8 0-6.9 4.2-3.9 7.8 1.6 1.9 6.1 15.9 9.9 31 9.7 38 23.2 51 37.1 35.7zm-183.8.6c2-1.3 2.9-7.6 2.1-14.4-1.3-10.9-2.1-11.7-8-8.6-8.5 4.5-17.6-4.1-20.7-19.5-2.3-11.7-3.1-11.5 14-4.5 2.1.9 7.6-2.1 12.1-6.6 8.3-8.3 11-18.2 5-18.2-1.8 0-3.2 1.5-3.2 3.2 0 4.6-8.8 4-10.8-.8-1.2-2.8-3.6-1.8-8.1 3.2-3.5 4-7.8 7.3-9.5 7.3s-4.1-3.3-5.2-7.3c-2-7-2.2-7.1-6.7-1.2-3.9 5.1-3.9 6.7-.2 10.5 3.9 3.9 11.4 30.9 11.4 41.1.1 12.7 17.6 22.7 27.8 15.8zm59-16.9c12.1-12.1 15.7-30.4 9.1-46.2-5.2-12.4-14.1-17-26.8-13.8-9.4 2.4-23.7 29.8-23.8 45.5 0 24.6 23.3 32.7 41.5 14.5zm-22.1-19.4c-3.6-3.6-6.4-10.5-6.4-15.4.1-8.1.5-8.4 4.4-3.2 4.8 6.4 13.4 7.5 16.7 2.1 1.2-1.9.6-5.1-1.4-7.1-5.1-5.1-4.5-12 1.1-12 6.2 0 14.7 12.5 14.7 21.5 0 6.6-13.4 20.5-19.8 20.5-1.6.1-5.7-2.9-9.3-6.4zm86.3 18.6c13.4-14.6 12.1-37.1-3.1-53.3-7.9-8.4-25.3-9.8-32.4-2.7-6.6 6.6-13.2 32.5-10.7 42.2 5.2 20.8 32.4 28.9 46.2 13.8zm-27.4-23.6c-5.3-3.7-7.1-8.1-7-17 .2-9.9.7-10.7 3-5.1 3.3 8.3 10.4 11.4 16.5 7.4 3.8-2.5 3.6-3.7-1.1-7.3-6.3-4.8-7.6-11.7-2.1-11.7 4.9 0 22.3 19.1 22.3 24.4 0 5.2-12.4 14.4-19.4 14.4-2.8-.1-8.3-2.4-12.2-5.1zm190-14.3l33.9-12.7-36.4-.1c-32.5-.1-36.4.5-36.3 5.5 0 5.1 3.3 20.3 4.4 20.1.2-.1 15.7-5.8 34.4-12.8zm-443.5-2.3l3.5-10.3-30.5-1c-16.8-.6-30.5-.1-30.5 1 0 1.6 52.5 22.1 53.7 21 .1-.3 1.9-5.1 3.8-10.7zM343.8 284c7.2 1.1 15.2 4.1 18 6.5 4.2 3.8 6 3.5 12.6-1.8 4.2-3.4 9.7-6.2 12.1-6.2 2.5 0 4.5-.7 4.5-1.6 0-3-46.5-79.2-48.3-79.1-2.1.1-49.8 80.1-51.3 85.9-.6 2.4 1.3 3.4 5.1 2.4 3.3-.9 8 .7 10.3 3.5 3.7 4.5 5.3 4.1 14.1-3.3 8.3-7.1 11.8-8.1 22.9-6.3z" fill="#333"/><path id="path4567" class="st1" d="M309.5 296.1c-.5-.2-1.1-.8-2.5-2.2-1.9-1.9-2.7-2.5-4.3-3.1-2.1-.9-4.4-1.1-6.5-.7-1.9.4-2.4.4-3.3.3-1.4-.3-1.9-1.1-1.5-2.6.5-1.8 4.3-8.9 12-22.3 15.6-27.1 36.5-61.2 38.9-63.3.3-.2.3-.2.5 0 1.4 1.2 9.5 13.7 20.5 31.7 15 24.3 27.4 45.6 27.4 47 0 .9-1.3 1.4-4.1 1.6-3.4.3-7.4 2.3-12.9 6.5-2.6 2-3.7 2.8-5 3.4-1 .5-1.1.5-2.3.5-1.1 0-1.2 0-2.1-.5-.5-.3-1.5-.9-2.2-1.6-2.2-1.8-4.8-3.1-9.1-4.6-5.4-1.8-11.2-2.9-16.2-3-3.9-.1-5.7.2-8.7 1.7-2.4 1.2-3.6 2-9.1 6.5-5.4 4.7-7.4 5.7-9.5 4.7z"/><path id="path4571" class="st1" d="M128.6 326c-10.2-3-45.5-16.9-50.5-19.9-.7-.4-.7-.5-.5-.6 1.1-.8 12.3-1.2 25-.9 5.1.1 35.5 1.1 35.6 1.2.1.1-6.5 19.3-7 20.4-.2.3-.7.3-2.6-.2z"/><path id="path4573" class="st1" d="M543.7 330.5c-1.4-2.7-3.9-15-4-19.4 0-1.7.2-2.4 1-3.1 1.8-1.6 5.4-2.2 15.3-2.5 5-.1 28.1-.2 44.4 0l11.4.1-27.5 10.3c-25.1 9.4-39.7 14.8-40.2 15-.2 0-.3-.1-.4-.4z"/><path id="path4575" class="st1" d="M178.1 470.7c0-.8 3.3-6.5 11.6-20.4 19.9-33.1 28.9-45.2 40.1-53 10-7.1 15.3-11.9 21.2-19.4l3.7-4.6 4.9 4.9c8.6 8.5 13.9 11 23.3 11 11.5.1 24.2-6.4 24.2-12.3 0-1.3 1-2.7 1.9-2.7.4 0 2.6.7 4.9 1.5 6.1 2.2 9.6 3 14.6 3.2 4.9.3 8.5-.2 13.4-1.6 4.7-1.4 7.4-2.9 15.6-8.3 4.1-2.7 7.6-5 7.8-5s3.1 1.7 6.6 3.8 7.6 4.4 9.2 5.1c11.1 4.7 23 4.4 34-.9 2-.9 6.6-3.7 10.2-6.2s6.7-4.4 6.8-4.4c.1.1 1.5 2.9 3.1 6.3s3.7 7.3 4.6 8.6c3.8 5.6 8.2 9.8 14.1 13.4 6.1 3.7 9.8 8.7 10.2 13.5.4 4.8-1.7 9-7.7 15.7-4.7 5.2-5.9 7.2-5.9 10.1 0 2.9 1.7 6.2 4.7 9.2 4.8 4.8 12.3 6.3 23.4 4.5 2.5-.4 5.6-.7 6.9-.7 4.3 0 6.9 2.1 11.9 9.5 3.4 5.1 11 17.8 11 18.4 0 .3-.4.6-.9.6-1.1 0-5.6-1.2-8.9-2.4-4.3-1.6-57.3-22-74.7-28.9-46.7-18.4-62-24.2-69.5-26.5-8.1-2.5-13.6-3.1-18.1-1.9-5.6 1.4-81.7 30.9-126.1 48.7-21.9 8.8-24.7 9.9-28.8 11-3.4.8-3.3.8-3.3.2z"/></g></svg>