<svg width="100%" height="100%" viewBox="0 0 338 338" fill="none" xmlns="http://www.w3.org/2000/svg">
  <path
    d="M94.2649 208.841C96.1037 207.615 98.3183 207.082 100.514 207.337C101.265 207.432 102.008 207.578 102.74 207.774C102.74 207.774 116.107 194.996 123.716 189.567C126.643 187.477 129.45 186.533 132.207 186.521C135.826 183.458 141.362 177.411 144.668 173.697V173.252C143.098 165.932 139.858 158.895 136.502 152.23C134.726 148.685 127.999 138.092 135.971 138.121C138.943 138.121 143.114 142.35 145.554 146.183C142.78 139.291 140.859 133.03 137.982 126.093C136.606 122.775 131.878 108.892 140.567 109.102H141.803C141.49 107.19 141.956 105.475 144.367 104.498C149.145 102.565 151.276 107.338 153.155 109.927L153.18 109.956C153.642 103.711 161.593 106.518 163.848 113.62L163.88 113.772C164.643 113.472 165.641 113.513 166.906 114.11C166.692 113.134 165.257 110.508 164.894 108.892C164.07 105.269 164.758 100.71 169.206 101.947C177.45 104.243 181.316 120.817 182.932 127.503C181.572 118.311 180.871 115.619 178.95 109.799C177.846 106.448 173.744 100.755 175.525 97.1528C177.586 92.9772 183.546 95.9162 185.624 98.2863C192.631 106.209 193.105 118.484 194.898 128.315C194.841 122.158 194.337 116.014 193.39 109.931C192.458 103.863 190.199 96.382 193.035 93.7315C198.06 89.0366 201.905 96.4561 202.994 100.623C206.267 113.158 206.168 128.195 204.795 141.336C206.275 138.974 207.833 136.686 209.49 134.518C212.301 130.841 217.396 121.74 223.505 123.776C229.382 125.734 223.505 134.972 221.913 138.694C219.152 145.132 216.992 151.785 214.226 158.186C212.87 161.336 209.057 167.514 208.08 172.02C208.08 172.02 217.833 185.086 222.701 190.981L222.882 191.03C223.15 190.503 223.385 189.991 223.575 189.509C230.994 195.573 236.245 202.019 242.721 208.301C243.768 209.319 244.592 210.037 245.194 210.696C245.479 210.346 245.759 209.991 246.019 209.637C257.972 194.254 263.261 175.227 264.032 156.377C264.378 146.371 263.675 136.356 261.933 126.497C260.437 117.742 257.964 109.123 253.867 101.114C249.637 92.8552 243.425 85.774 235.788 80.5042C228.063 75.1457 218.909 71.6667 209.688 69.3337C190.343 64.4368 168.394 62.6603 149.095 68.6577C130.835 74.3295 116.61 87.0787 105.979 101.823C85.6624 129.992 75.9139 168.735 90.316 201.137C91.4879 203.777 92.8063 206.349 94.2649 208.841V208.841Z"
    fill="#F8F9FF" />
  <path
    d="M204.655 233.855C199.985 228.665 194.556 222.177 190.686 216.238C191.172 216.089 191.654 215.933 192.132 215.772C189.799 213.039 176.976 197.817 176.341 193.258C175.566 194.082 174.775 194.853 174.033 195.649C167.397 202.747 162.636 208.991 156.572 216.6L155.991 216.943C155.55 222.194 151.84 225.735 148.056 230.133C144.377 234.282 140.477 238.231 136.375 241.963C146.56 243.768 156.985 243.678 167.289 242.787C177.594 241.897 188.002 240.627 198.097 238.401C201.044 237.75 203.983 236.996 206.885 236.118C205.999 235.285 205.232 234.494 204.655 233.855Z"
    fill="#F8F9FF" />
  <path
    d="M42.25 242.042C43.4866 236.58 49.7767 230.302 54.2779 226.906C56.108 225.521 59.1541 223.093 61.5696 224.185C64.4797 225.496 64.2736 231.073 66.5159 233.138C67.1837 226.807 72.4557 217.994 77.1093 213.765C80.1884 210.97 83.9435 211.618 87.1587 214.153C91.5898 211.449 94.6318 206.638 100.493 207.343C105.481 207.945 110.58 211.106 114.285 214.408C119.78 219.301 124.384 223.711 127.546 230.434C129.804 235.24 130.315 240.405 131.457 245.776C132.991 252.977 129.961 257.219 122.278 257.165C122.224 259.869 120.089 263.599 118.568 265.821C116.169 269.313 113.543 269.078 110.629 271.204C108.593 272.693 107.492 275.265 105.988 277.206C103.651 280.219 101.017 282.865 99.0629 286.101"
    stroke="#1F2933" stroke-width="3" stroke-linecap="round" stroke-linejoin="round" />
  <path d="M116.857 251.902C117.233 251.157 117.76 250.499 118.403 249.969" stroke="#1F2933" stroke-width="3"
    stroke-linecap="round" stroke-linejoin="round" />
  <path
    d="M102.736 207.771C102.736 207.771 116.103 194.993 123.712 189.564C130.922 184.416 137.393 186.209 144.268 191.798C150.913 197.202 154.652 205.438 155.88 213.847C156.915 220.912 152.541 224.922 148.048 230.133C144.611 234.127 135.122 243.735 131.47 245.796"
    stroke="#1F2933" stroke-width="3" stroke-linecap="round" stroke-linejoin="round" />
  <path
    d="M59.014 148.391C62.3115 156.358 62.5424 159.817 56.1904 164.718C62.3734 158.922 67.1589 160.979 71.5158 166.939C67.8267 162.088 67.3444 160.876 67.9421 157.459C68.2678 155.612 71.2685 152.43 73.0204 151.194C69.6115 153.539 63.1359 156.771 59.014 148.391Z"
    stroke="#FFD600" stroke-width="3" stroke-linecap="round" stroke-linejoin="round" />
  <path d="M132.203 186.524C137.648 181.919 147.434 170.547 147.434 170.547" stroke="#1F2933" stroke-width="3"
    stroke-linecap="round" stroke-linejoin="round" />
  <path
    d="M156.572 216.601C162.636 208.992 167.397 202.747 174.033 195.649C176.386 193.131 179.227 190.625 180.628 187.69C182.186 184.392 182.359 178.082 182.359 174.417C182.359 160.073 181.032 144.294 175.991 130.725C174.56 126.883 170.941 115.985 166.922 114.093C163.003 112.246 161.626 115.68 162.079 118.425C163.316 125.869 165.15 133.449 165.929 140.007"
    stroke="#1F2933" stroke-width="3" stroke-linecap="round" stroke-linejoin="round" />
  <path d="M99.4422 102.15L89.397 100.992" stroke="#22D1EE" stroke-width="3" stroke-linecap="round"
    stroke-linejoin="round" />
  <path d="M109.97 79.7336L104.079 75.8672" stroke="#183BEE" stroke-width="3" stroke-linecap="round"
    stroke-linejoin="round" />
  <path
    d="M163.848 113.617C161.238 105.373 150.971 102.9 153.567 113.617C154.511 117.504 154.779 122.994 155.748 126.96C156.642 130.612 157.809 137.289 157.809 137.289"
    stroke="#1F2933" stroke-width="3" stroke-linecap="round" stroke-linejoin="round" />
  <path d="M168.613 192.19C169.775 192.33 171.815 191.031 171.815 191.031" stroke="#1F2933" stroke-width="3"
    stroke-linecap="round" stroke-linejoin="round" />
  <path
    d="M153.155 109.925C151.276 107.336 149.145 102.563 144.367 104.496C139.977 106.273 142.03 110.494 143.514 113.907C146.375 120.502 150.381 136.305 150.381 136.305"
    stroke="#1F2933" stroke-width="3" stroke-linecap="round" stroke-linejoin="round" />
  <path d="M189.094 191.034C190.104 190.007 191.395 189.554 192.573 189.875" stroke="#1F2933" stroke-width="3"
    stroke-linecap="round" stroke-linejoin="round" />
  <path
    d="M140.559 109.096C131.87 108.886 136.597 122.769 137.974 126.087C140.86 133.024 142.772 139.277 145.546 146.177C146.333 148.131 148.118 152.814 148.118 152.814"
    stroke="#1F2933" stroke-width="3" stroke-linecap="round" stroke-linejoin="round" />
  <path
    d="M201.823 146.333C204.103 142.221 206.664 138.271 209.49 134.512C212.301 130.835 217.396 121.734 223.504 123.77C229.382 125.728 223.504 134.965 221.913 138.687C219.152 145.126 216.992 151.779 214.226 158.18C212.486 162.211 206.72 171.222 208.043 175.311"
    stroke="#1F2933" stroke-width="3" stroke-linecap="round" stroke-linejoin="round" />
  <path
    d="M144.656 173.249C143.085 165.928 139.845 158.892 136.49 152.227C134.714 148.682 127.986 138.088 135.958 138.117C138.93 138.117 143.102 142.346 145.542 146.18"
    stroke="#1F2933" stroke-width="3" stroke-linecap="round" stroke-linejoin="round" />
  <path
    d="M204.795 141.339C206.168 128.198 206.267 113.161 202.994 100.627C201.905 96.4593 198.047 89.0397 193.035 93.7264C190.199 96.3768 192.458 103.858 193.39 109.926C194.337 116.009 194.841 122.153 194.898 128.31C193.105 118.47 192.627 106.204 185.624 98.2812C183.563 95.9234 177.586 92.9721 175.525 97.1476C173.744 100.75 177.846 106.443 178.95 109.794C180.871 115.614 181.572 118.306 182.932 127.498C181.316 120.816 177.466 104.242 169.206 101.941C164.758 100.705 164.074 105.264 164.894 108.887C165.257 110.503 166.692 113.128 166.906 114.105"
    stroke="#1F2933" stroke-width="3" stroke-linecap="round" stroke-linejoin="round" />
  <path d="M208.064 172.023C208.064 172.023 217.862 185.144 222.713 191.03" stroke="#1F2933" stroke-width="3"
    stroke-linecap="round" stroke-linejoin="round" />
  <path d="M176.341 193.25C177.038 198.266 192.083 215.781 192.083 215.781" stroke="#1F2933" stroke-width="3"
    stroke-linecap="round" stroke-linejoin="round" />
  <path
    d="M208.595 207.026C202.981 210.909 197.054 214.326 190.686 216.239C194.556 222.178 199.985 228.666 204.655 233.856C206.716 236.131 211.143 240.319 214.214 240.888C217.693 241.539 222.346 239.008 224.988 237.154C230.85 233.032 234.799 229.384 239.968 224.375C242.132 222.277 245.17 218.275 245.965 215.307C246.934 211.717 245.714 211.226 242.705 208.3C236.229 202.018 230.974 195.571 223.558 189.508C221.555 194.561 215.232 202.434 208.595 207.026Z"
    stroke="#1F2933" stroke-width="3" stroke-linecap="round" stroke-linejoin="round" />
  <path
    d="M214.214 240.883C213.035 245.128 213.995 249.032 215.388 251.987C216.926 255.252 221.159 257.049 222.293 260.392C223.303 263.389 222.453 266.575 224.622 269.365C226.068 271.224 233.55 275.853 235.854 276.043"
    stroke="#1F2933" stroke-width="3" stroke-linecap="round" stroke-linejoin="round" />
  <path
    d="M246.287 213.109C260.437 214.622 270.697 227.594 278.166 238.513C278.067 234.56 281.954 233.204 284.984 233.459C291.492 234.012 292.176 239.795 295.75 243.896"
    stroke="#1F2933" stroke-width="3" stroke-linecap="round" stroke-linejoin="round" />
  <path
    d="M275.268 152.773C274.765 155.729 271.764 160.881 269.497 163.008C266.769 165.556 261.591 165.655 258.01 165.894C269.349 165.894 267.045 172.617 266.394 181.236C267.725 174.397 268.207 172.081 270.239 169.748C272.902 166.693 276.674 167.567 279.782 166.26C275.499 166.331 272.75 166.916 272.576 162.221C272.436 158.833 274.196 156.055 275.268 152.773Z"
    stroke="#FFD600" stroke-width="3" stroke-linecap="round" stroke-linejoin="round" />
  <path d="M251.612 92.971L258.265 87.8516" stroke="#22D1EE" stroke-width="3" stroke-linecap="round"
    stroke-linejoin="round" />
  <path d="M247.062 79.7376L252.469 73.5547" stroke="#183BEE" stroke-width="3" stroke-linecap="round"
    stroke-linejoin="round" />
  <path d="M187.161 57.3221L188.707 51.9141" stroke="#183BEE" stroke-width="3" stroke-linecap="round"
    stroke-linejoin="round" />
  <path d="M152.384 65.5404L150.064 58.9453" stroke="#22D1EE" stroke-width="3" stroke-linecap="round"
    stroke-linejoin="round" />
</svg>
