<svg xmlns="http://www.w3.org/2000/svg" viewBox="0 0 432.3 435.8"><path opacity=".5" fill="#FFA64D" d="M21.3 309.1C50 280.2 413.6 6.6 419.8 12.8c4.8 4.8-265.7 372.8-294.3 401.6-28.6 28.8-75.1 28.5-103.8-.5C-7 384.8-7.2 338 21.3 309.1z"/><path opacity=".3" fill="#FFA64D" d="M37.4 296.3c35-20.5 390.5-161.5 394.9-153.8 3.3 6-286.6 262.3-321.7 282.7-35 20.4-79.8 8-99.9-27.5-20.2-35.6-8.3-80.9 26.7-101.4z"/><path opacity=".3" fill="#FFA64D" d="M138.2 397.8C158.6 362.5 298.3 4.4 290.8 0 284.9-3.4 30.5 288.7 10.2 324.1c-20.2 35.3-8 80.4 27.3 100.6 35.3 20.4 80.4 8.3 100.7-26.9z"/><path opacity=".2" fill="#FFA64D" d="M54.5 288.7c39.2-10.7 367.6-51.3 369.9-42.9C426.2 252.3 131.2 421.4 92 432c-39.2 10.6-79.3-12.9-89.6-52.5-10.2-39.5 13.1-80.1 52.1-90.8z"/><path opacity=".1" fill="#FFA64D" d="M54.5 288.7C93.7 278 359.1 338 361.3 346.4c1.8 6.5-230.2 75-269.4 85.6-39.1 10.7-79.2-12.9-89.5-52.4-10.2-39.6 13.1-80.2 52.1-90.9z"/><path opacity=".1" fill="#FFA64D" d="M145.7 380.5c10.6-39.4-49-306.6-57.4-308.9-6.5-1.9-74.4 231.8-84.9 271.3s12.9 79.8 52.2 90.2c39.2 10.3 79.5-13.2 90.1-52.6z"/><path opacity=".2" fill="#FFA64D" d="M145.7 380.5C156.3 341.1 196.4 10.3 188.1 8 181.7 6.3 14 303.4 3.5 342.9c-10.5 39.4 12.9 79.8 52.1 90.2 39.3 10.3 79.6-13.2 90.1-52.6z"/></svg>