<svg width="207" height="207" viewBox="0 0 207 207" fill="none" xmlns="http://www.w3.org/2000/svg">
<ellipse cx="103.5" cy="161.457" rx="82.2825" ry="22.77" fill="#F8F9FF"/>
<path d="M93.4904 116.955C92.9987 106.886 92.1659 96.887 90.8815 86.9687C89.7903 77.6802 87.5279 68.5683 84.1486 59.8519C81.8608 54.2332 72.7499 51.4137 73.5325 60.0734C73.9539 64.7456 77.5462 66.8803 82.212 67.1925C90.3497 67.7463 96.029 59.4491 99.0593 53.8203C99.5309 58.2005 96.7816 66.7192 104.538 66.2862C109.334 66.0143 119.388 53.9009 110.92 55.2099C106.234 55.9651 105.642 63.6883 108.702 67.0011C115.816 74.7143 132.352 70.6966 134.55 60.7883C125.519 52.3703 116.157 79.6281 115.335 84.5923C113.689 94.6617 113.378 105.406 112.716 115.556" stroke="#1F2933" stroke-width="4" stroke-linecap="round" stroke-linejoin="round"/>
<path d="M120.826 129.889C120.826 129.889 130.733 115.285 133.988 110.031C137.878 103.774 142.05 97.5164 144.973 90.9475C150.012 79.7081 152.975 66.5001 151.02 54.6379C149.206 43.4688 140.72 33.1937 124.101 29.0052C95.9528 21.9141 63.1886 33.4749 56.799 53.3824C53.191 64.6319 56.9401 75.2686 62.3219 86.046C70.0216 101.464 76.0786 115.516 87.3763 129.879" stroke="#1F2933" stroke-width="4" stroke-linecap="round" stroke-linejoin="round"/>
<path d="M84.3525 137.141H123.682" stroke="#1F2933" stroke-width="4" stroke-linecap="round" stroke-linejoin="round"/>
<path d="M86.94 145.416C97.0751 144.252 109.563 145.416 120.06 145.416" stroke="#1F2933" stroke-width="4" stroke-linecap="round" stroke-linejoin="round"/>
<path d="M89.01 153.695H119.025" stroke="#1F2933" stroke-width="4" stroke-linecap="round" stroke-linejoin="round"/>
<path d="M46.575 94.7031C43.7342 95.7154 40.1296 96.8389 37.7775 98.8431" stroke="#183BEE" stroke-width="4" stroke-linecap="round" stroke-linejoin="round"/>
<path d="M41.9175 60.0272C39.4239 59.5495 36.6587 59.8907 34.155 58.9922" stroke="#FFD600" stroke-width="4" stroke-linecap="round" stroke-linejoin="round"/>
<path d="M52.785 25.8725C50.715 24.665 48.6645 23.4119 46.575 22.25" stroke="#22D1EE" stroke-width="4" stroke-linecap="round" stroke-linejoin="round"/>
<path d="M155.768 29.4972C157.804 26.7606 161.877 25.8206 164.565 23.8047" stroke="#183BEE" stroke-width="4" stroke-linecap="round" stroke-linejoin="round"/>
<path d="M165.6 62.6172H173.362" stroke="#22D1EE" stroke-width="4" stroke-linecap="round" stroke-linejoin="round"/>
<path d="M156.802 94.7031C159.316 96.3935 162.172 97.4058 164.565 98.8431" stroke="#FFD600" stroke-width="4" stroke-linecap="round" stroke-linejoin="round"/>
</svg>
