<svg width="479" height="108" viewBox="0 0 479 108" fill="none" xmlns="http://www.w3.org/2000/svg">
<path d="M0 66.936L21.7154 0H41.3855L19.587 66.936H0Z" fill="white"/>
<path d="M59.84 107.394L81.5555 40.4579H101.225L79.427 107.394H59.84Z" fill="white"/>
<path d="M37.0659 53.699C37.0659 49.9166 38.323 46.7646 40.8372 44.2429C43.4411 41.7213 46.6736 40.4605 50.5347 40.4605C54.3957 40.4605 57.5833 41.7213 60.0975 44.2429C62.7014 46.7646 64.0034 49.9166 64.0034 53.699C64.0034 57.4814 62.7014 60.6335 60.0975 63.1551C57.5833 65.6767 54.3957 66.9375 50.5347 66.9375C46.6736 66.9375 43.4411 65.6767 40.8372 63.1551C38.323 60.6335 37.0659 57.4814 37.0659 53.699Z" fill="white"/>
<path d="M166.028 61.8171C166.246 64.6583 167.39 66.9531 169.46 68.7015C171.585 70.3953 174.39 71.2422 177.877 71.2422C180.764 71.2422 183.107 70.6412 184.904 69.4392C186.757 68.1825 187.683 66.4614 187.683 64.2759C187.683 62.746 187.165 61.5439 186.13 60.6697C185.15 59.7409 183.733 59.0306 181.881 58.5389C180.083 57.9925 177.278 57.3368 173.464 56.5719C169.705 55.8616 166.546 54.9601 163.985 53.8673C161.425 52.7199 159.328 51.0534 157.693 48.8679C156.114 46.6278 155.324 43.6773 155.324 40.0165C155.324 36.6836 156.222 33.7058 158.02 31.0832C159.872 28.4606 162.406 26.4117 165.62 24.9364C168.888 23.4066 172.565 22.6416 176.651 22.6416C180.846 22.6416 184.605 23.4339 187.928 25.0184C191.305 26.5482 193.947 28.6791 195.854 31.411C197.815 34.1429 198.823 37.23 198.878 40.6722H186.866C186.593 38.2135 185.558 36.2465 183.76 34.7713C181.963 33.2414 179.593 32.4765 176.651 32.4765C173.927 32.4765 171.748 33.0502 170.114 34.1976C168.48 35.345 167.663 36.9841 167.663 39.115C167.663 40.6449 168.153 41.8469 169.133 42.7211C170.114 43.5407 171.503 44.2237 173.301 44.7701C175.099 45.2618 177.877 45.8628 181.636 46.5731C185.449 47.2834 188.663 48.1849 191.278 49.2777C193.893 50.3158 195.99 51.9276 197.57 54.1132C199.204 56.2441 200.022 59.1126 200.022 62.7187C200.022 66.2155 199.068 69.3572 197.162 72.1437C195.255 74.8757 192.586 77.0339 189.154 78.6184C185.776 80.2029 181.963 80.9951 177.713 80.9951C173.137 80.9951 169.052 80.1755 165.456 78.5364C161.915 76.8426 159.137 74.5205 157.121 71.57C155.106 68.6196 154.071 65.314 154.016 61.6532L166.028 61.8171Z" fill="white"/>
<path d="M246.844 64.5217C246.081 69.6577 243.902 73.7009 240.307 76.6514C236.766 79.5472 232.163 80.9951 226.497 80.9951C222.139 80.9951 218.326 80.1209 215.057 78.3725C211.789 76.5694 209.255 74.0288 207.458 70.7505C205.714 67.4722 204.843 63.7022 204.843 59.4404C204.843 55.124 205.714 51.354 207.458 48.1303C209.255 44.852 211.789 42.3387 215.057 40.5902C218.38 38.7872 222.221 37.8857 226.579 37.8857C232.19 37.8857 236.766 39.3336 240.307 42.2294C243.848 45.0706 246.027 49.0318 246.844 54.1132H234.914C234.424 52.0369 233.443 50.3978 231.972 49.1957C230.501 47.9391 228.676 47.3107 226.497 47.3107C223.501 47.3107 221.104 48.4308 219.306 50.671C217.509 52.9111 216.61 55.8343 216.61 59.4404C216.61 63.0465 217.509 65.9696 219.306 68.2098C221.104 70.45 223.501 71.57 226.497 71.57C228.731 71.57 230.583 70.9417 232.054 69.685C233.579 68.4284 234.56 66.7073 234.996 64.5217H246.844Z" fill="white"/>
<path d="M294.428 70.7505V80.5034H288.544C283.26 80.5034 280.672 78.2086 280.781 73.619C279.256 76.0231 277.377 77.8534 275.143 79.1101C272.909 80.3668 270.213 80.9951 267.053 80.9951C262.368 80.9951 258.582 79.9297 255.695 77.7988C252.862 75.6133 251.446 72.5535 251.446 68.6196C251.446 64.1393 253.08 60.6971 256.349 58.293C259.672 55.8343 264.466 54.6049 270.73 54.6049H279.065V52.556C279.065 50.6437 278.357 49.1411 276.941 48.0484C275.524 46.9009 273.618 46.3272 271.221 46.3272C269.096 46.3272 267.353 46.7917 265.991 47.7205C264.629 48.6494 263.812 49.906 263.54 51.4906H252.426C252.808 47.1741 254.714 43.8412 258.146 41.4918C261.578 39.0877 266.127 37.8857 271.793 37.8857C277.731 37.8857 282.307 39.197 285.521 41.8196C288.789 44.4422 290.424 48.2396 290.424 53.2116V68.0459C290.424 69.084 290.642 69.7943 291.077 70.1768C291.513 70.5592 292.194 70.7505 293.12 70.7505H294.428ZM279.065 62.3089H270.649C268.252 62.3089 266.372 62.8006 265.01 63.7841C263.703 64.713 263.049 66.0516 263.049 67.8C263.049 69.2752 263.594 70.45 264.684 71.3242C265.828 72.1984 267.353 72.6355 269.26 72.6355C272.256 72.6355 274.625 71.7886 276.369 70.0948C278.112 68.3464 279.011 66.0243 279.065 63.1285V62.3089Z" fill="white"/>
<path d="M298.885 23.1334H310.407V80.5034H298.885V23.1334Z" fill="white"/>
<path d="M324.238 20.8386C326.144 20.8386 327.724 21.4669 328.977 22.7236C330.23 23.9256 330.857 25.4555 330.857 27.3132C330.857 29.1709 330.23 30.7281 328.977 31.9847C327.724 33.2414 326.144 33.8698 324.238 33.8698C322.331 33.8698 320.724 33.2414 319.416 31.9847C318.164 30.7281 317.537 29.1709 317.537 27.3132C317.537 25.4555 318.164 23.9256 319.416 22.7236C320.724 21.4669 322.331 20.8386 324.238 20.8386ZM318.436 38.3774H329.958V80.5034H318.436V38.3774Z" fill="white"/>
<path d="M362.093 37.8857C366.996 37.8857 371.027 39.4155 374.186 42.4753C377.346 45.535 378.926 50.589 378.926 57.6373V80.5034H367.404V58.293C367.404 51.0261 364.571 47.3927 358.906 47.3927C355.91 47.3927 353.594 48.4035 351.96 50.4251C350.326 52.4467 349.509 55.2879 349.509 58.9486V80.5034H337.987V38.3774H348.038L349.1 43.6227C350.571 41.8196 352.341 40.4263 354.411 39.4428C356.482 38.4047 359.042 37.8857 362.093 37.8857Z" fill="white"/>
<path d="M428.187 38.3774V79.274C428.187 84.7925 426.362 89.1908 422.712 92.4691C419.062 95.7474 413.397 97.3866 405.716 97.3866C399.778 97.3866 394.984 96.0752 391.334 93.4526C387.684 90.83 385.723 87.1146 385.45 82.3064H397.054C397.599 84.328 398.661 85.8852 400.241 86.978C401.875 88.0708 404 88.6171 406.614 88.6171C409.883 88.6171 412.416 87.7976 414.214 86.1584C416.012 84.5193 416.911 82.0879 416.911 78.8642V74.4385C413.86 78.3179 409.529 80.2575 403.918 80.2575C400.213 80.2575 396.89 79.3833 393.949 77.6349C391.007 75.8865 388.692 73.4277 387.003 70.2587C385.369 67.0351 384.551 63.2924 384.551 59.0306C384.551 54.8235 385.369 51.1081 387.003 47.8844C388.692 44.6608 391.007 42.1747 393.949 40.4263C396.945 38.6779 400.295 37.8037 404 37.8037C409.502 37.8037 413.86 39.9346 417.074 44.1964L418.054 38.3774H428.187ZM406.614 70.9963C409.72 70.9963 412.198 69.9036 414.05 67.7181C415.903 65.5325 416.829 62.6913 416.829 59.1945C416.829 55.643 415.903 52.7472 414.05 50.5071C412.198 48.2669 409.72 47.1468 406.614 47.1468C403.509 47.1468 401.003 48.2669 399.097 50.5071C397.244 52.6926 396.318 55.5611 396.318 59.1126C396.318 62.664 397.244 65.5325 399.097 67.7181C401.003 69.9036 403.509 70.9963 406.614 70.9963Z" fill="white"/>
<path d="M456.731 80.9951C452.318 80.9951 448.423 80.1209 445.045 78.3725C441.722 76.5694 439.135 74.0288 437.282 70.7505C435.485 67.4722 434.586 63.7022 434.586 59.4404C434.586 55.1786 435.485 51.4086 437.282 48.1303C439.135 44.852 441.722 42.3387 445.045 40.5902C448.423 38.7872 452.318 37.8857 456.731 37.8857C461.143 37.8857 465.011 38.7872 468.334 40.5902C471.712 42.3387 474.299 44.852 476.097 48.1303C477.949 51.4086 478.875 55.1786 478.875 59.4404C478.875 63.7568 477.949 67.5541 476.097 70.8324C474.299 74.0561 471.712 76.5694 468.334 78.3725C465.011 80.1209 461.143 80.9951 456.731 80.9951ZM456.731 71.57C459.945 71.57 462.478 70.45 464.33 68.2098C466.237 65.9696 467.19 63.0465 467.19 59.4404C467.19 55.8343 466.237 52.9111 464.33 50.671C462.478 48.4308 459.945 47.3107 456.731 47.3107C453.571 47.3107 451.038 48.4308 449.131 50.671C447.279 52.9111 446.353 55.8343 446.353 59.4404C446.353 63.0465 447.279 65.9696 449.131 68.2098C451.038 70.45 453.571 71.57 456.731 71.57Z" fill="white"/>
</svg>
