<svg width="296" height="80" viewBox="0 0 296 80" fill="none" xmlns="http://www.w3.org/2000/svg">
<path fill-rule="evenodd" clip-rule="evenodd" d="M136 32C128.545 32 122.28 26.9009 120.504 20H102.166C98.2548 20 94.9173 22.8273 94.2744 26.6848L93.6168 30.6304C92.9924 34.3765 91.0974 37.6369 88.4175 40C91.0974 42.3631 92.9924 45.6235 93.6168 49.3696L94.2744 53.3152C94.9173 57.1727 98.2548 60 102.166 60H104.504C106.28 53.0991 112.545 48 120 48C128.837 48 136 55.1634 136 64C136 72.8366 128.837 80 120 80C112.545 80 106.28 74.9009 104.504 68H102.166C94.3441 68 87.6691 62.3454 86.3832 54.6304L85.7256 50.6848C85.0827 46.8273 81.7452 44 77.8345 44H71.4959C69.7198 50.9009 63.4554 56 56 56C48.5446 56 42.2802 50.9009 40.5041 44H31.4959C29.7198 50.9009 23.4554 56 16 56C7.16344 56 0 48.8366 0 40C0 31.1634 7.16344 24 16 24C23.4554 24 29.7198 29.0991 31.4959 36H40.5041C42.2802 29.0991 48.5446 24 56 24C63.4554 24 69.7198 29.0991 71.4959 36H77.8345C81.7452 36 85.0827 33.1727 85.7256 29.3152L86.3832 25.3696C87.6691 17.6546 94.3441 12 102.166 12L120.504 12C122.28 5.09909 128.545 0 136 0C144.837 0 152 7.16344 152 16C152 24.8366 144.837 32 136 32ZM136 24C140.418 24 144 20.4183 144 16C144 11.5817 140.418 8 136 8C131.582 8 128 11.5817 128 16C128 20.4183 131.582 24 136 24ZM16 48C20.4183 48 24 44.4183 24 40C24 35.5817 20.4183 32 16 32C11.5817 32 8 35.5817 8 40C8 44.4183 11.5817 48 16 48ZM64 40C64 44.4183 60.4183 48 56 48C51.5817 48 48 44.4183 48 40C48 35.5817 51.5817 32 56 32C60.4183 32 64 35.5817 64 40ZM128 64C128 68.4183 124.418 72 120 72C115.582 72 112 68.4183 112 64C112 59.5817 115.582 56 120 56C124.418 56 128 59.5817 128 64Z" fill="#EA4B71"/>
<path fill-rule="evenodd" clip-rule="evenodd" d="M248.011 34.5916V34.2104C250.803 32.8125 253.594 30.398 253.594 25.6325C253.594 18.7701 247.948 14.64 240.145 14.64C232.152 14.64 226.442 19.0243 226.442 25.7595C226.442 30.3344 229.107 32.8125 232.025 34.2104V34.5916C228.79 35.7353 224.92 39.1665 224.92 44.8851C224.92 51.811 230.629 56.64 240.082 56.64C249.534 56.64 255.053 51.811 255.053 44.8851C255.053 39.1665 251.247 35.7989 248.011 34.5916ZM240.082 20.4857C243.254 20.4857 245.601 22.519 245.601 25.9502C245.601 29.3813 243.19 31.4146 240.082 31.4146C236.973 31.4146 234.372 29.3813 234.372 25.9502C234.372 22.4554 236.846 20.4857 240.082 20.4857ZM240.082 50.5402C236.402 50.5402 233.421 48.1892 233.421 44.1862C233.421 40.5644 235.895 37.8321 240.018 37.8321C244.078 37.8321 246.552 40.5008 246.552 44.3132C246.552 48.1892 243.698 50.5402 240.082 50.5402Z" fill="#040506"/>
<path d="M264.84 56.0046H272.96V38.7852C272.96 33.1302 276.386 30.6521 280.255 30.6521C284.062 30.6521 287.043 33.1937 287.043 38.404V56.0046H295.163V36.752C295.163 28.4282 290.342 23.5992 282.793 23.5992C278.035 23.5992 275.371 25.5054 273.467 27.9834H272.96L272.262 24.2346H264.84V56.0046Z" fill="#040506"/>
<path d="M192.96 56.0046H184.84V24.2346H192.262L192.96 27.9834H193.467C195.371 25.5054 198.035 23.5992 202.793 23.5992C210.342 23.5992 215.163 28.4282 215.163 36.752V56.0046H207.043V38.404C207.043 33.1937 204.062 30.6521 200.255 30.6521C196.386 30.6521 192.96 33.1302 192.96 38.7852V56.0046Z" fill="#040506"/>
</svg>