<svg viewBox="0 0 512 512" xmlns="http://www.w3.org/2000/svg" fill-rule="evenodd" clip-rule="evenodd" stroke-linejoin="round" stroke-miterlimit="2"><path d="M512 179.2c0 28.267-23.51 51.2-52.522 51.2-24.448 0-45.014-16.32-50.86-38.4h-73.3c-12.843 0-23.787 9.045-25.9 21.397l-2.154 12.63A50.917 50.917 0 01290.197 256c8.79 7.552 15.02 18.005 17.067 29.973l2.133 12.63c2.262 12.458 13.291 21.546 25.942 21.397h20.8c5.824-22.08 26.39-38.4 50.859-38.4 29.013 0 52.5 22.933 52.5 51.2 0 28.267-23.53 51.2-52.5 51.2-24.47 0-45.014-16.32-50.86-38.4h-20.8c-25.685 0-47.573-18.09-51.797-42.773l-2.154-12.63c-2.262-12.437-13.27-21.525-25.899-21.397h-21.461c-6.57 20.992-26.582 36.267-50.262 36.267s-43.69-15.275-50.24-36.267h-30.762c-6.571 20.992-26.582 36.267-50.24 36.267-29.014 0-52.523-22.934-52.523-51.2 0-28.267 23.51-51.2 52.523-51.2 25.237 0 46.336 17.386 51.37 40.533h28.523c5.035-23.147 26.133-40.533 51.37-40.533 25.26 0 46.337 17.386 51.371 40.533h20.31c12.821 0 23.786-9.045 25.877-21.397l2.176-12.63c4.224-24.682 26.133-42.773 51.798-42.773h73.3c5.846-22.08 26.412-38.4 50.86-38.4C488.49 128 512 150.933 512 179.2zm-26.24 0c0 14.144-11.776 25.6-26.282 25.6-14.507 0-26.24-11.456-26.24-25.6 0-14.144 11.733-25.6 26.24-25.6 14.506 0 26.26 11.456 26.26 25.6h.022zM52.501 279.467c14.507 0 26.24-11.456 26.24-25.6 0-14.144-11.733-25.6-26.24-25.6-14.506 0-26.261 11.456-26.261 25.6 0 14.144 11.733 25.6 26.24 25.6h.021zm131.264 0c14.507 0 26.262-11.456 26.262-25.6 0-14.144-11.734-25.6-26.24-25.6-14.507 0-26.262 11.456-26.262 25.6 0 14.144 11.734 25.6 26.24 25.6zm223.19 78.933c14.507 0 26.24-11.456 26.24-25.6 0-14.144-11.733-25.6-26.24-25.6-14.507 0-26.24 11.456-26.24 25.6 0 14.144 11.733 25.6 26.24 25.6z" fill="#ea4b71"/></svg>