<svg xmlns="http://www.w3.org/2000/svg" version="1" viewBox="0 0 3360.035 3650.654" id="svg42"><g id="layer101" transform="translate(.035 .51)" fill="#fefefd"><path d="M1125 3546c-55-25-110-81-131-132-12-28-14-216-14-1091V1265l-62 3c-92 4-107 9-128 45-19 30-20 51-20 332 0 167-4 316-10 336-13 47-72 114-124 142-38 20-55 22-211 22s-173-2-211-22c-52-28-111-95-124-142-5-20-10-120-10-223 0-219-1-218 105-218 101 0 105 6 105 166 0 148 9 186 55 222 34 27 102 29 150 6 61-28 65-55 65-397 0-184 4-317 11-341 13-48 82-123 134-147 31-15 65-19 155-19h116l11-107c25-230 110-411 267-569 122-121 259-200 426-245 120-32 357-33 475-1 95 26 245 98 299 145l39 34-89 43c-196 95-334 302-334 502 0 58 0 58 30 58 17 0 30-5 30-12s5-44 10-83c23-155 138-320 275-392 104-55 157-63 407-63h225l61 31c70 34 105 71 139 145l23 52-2 553-3 554-25 49c-30 59-100 120-159 141-61 20-471 21-547 1-145-38-277-149-343-286-22-45-43-103-46-129-13-96-14-99-47-103l-31-5 6 77c12 188 134 370 307 459 103 53 145 64 290 70l125 6 3 699c1 458-1 712-8 737-16 59-68 120-130 152-54 28-58 28-200 25-138-3-147-4-192-31-53-31-100-92-117-152-6-22-11-112-11-201 0-153-1-162-26-213-46-91-139-139-252-128-72 6-131 35-171 84-50 60-61 115-61 297 0 188-9 217-83 282-61 54-101 64-248 64-109 0-130-3-174-24zm378-2577c54-25 64-114 18-160-71-71-186-6-167 94 12 64 84 96 149 66zm1660-295c-2-83-33-147-87-179-50-30-155-57-199-53-28 3-32 7-32 32 0 29 2 30 71 42 119 20 165 58 179 148 11 72 14 77 43 74 26-3 27-5 25-64z" id="path2"/><path d="M3079 2623c-6-15-16-48-22-72-11-40-10-44 12-62 29-24 33-24 62 0l23 18-20 68c-21 76-38 91-55 48z" id="path4"/></g><g id="layer102" transform="translate(.035 .51)" fill="#719e40"><path d="M1071 3633c-47-20-116-78-139-116-54-92-52-48-54-1146-2-630-5-894-8-696-4 208-10 332-18 355-28 81-145 187-234 211-25 6-110 9-217 7-147-2-182-6-213-22-53-26-127-93-160-145l-28-45v-262c0-292-4-276 73-315 34-18 54-21 128-17 76 4 92 8 123 32 58 44 66 69 66 208 0 68 3 133 6 146 7 26 48 31 58 6 3-9 6-152 6-318 0-275 2-308 20-360 45-132 168-220 324-232 78-6 86-9 86-27 0-79 44-237 94-337 61-122 113-194 208-286 145-141 288-220 468-260 91-20 424-19 521 1 130 28 242 83 359 178l59 47h230c199 0 237 3 279 18 60 23 149 83 171 115 9 13 30 44 46 68l30 44 3 617 2 617-22 40c-75 132-200 216-339 228l-71 6 41 21c70 36 129 93 158 154 23 47 28 74 31 150 4 85 7 98 34 138 33 49 33 48-1 172-26 96-43 122-82 122-49 0-67-16-85-78-9-31-23-75-30-97-21-60-18-79 21-129 29-39 35-54 35-96 0-27-9-78-21-112-18-54-27-68-68-95-26-18-50-33-54-33s-8 294-9 653l-3 652-23 50c-29 64-104 142-160 166-38 17-69 19-240 19-174 0-202-3-240-20-58-26-118-84-150-145-25-47-27-60-32-240-4-166-8-194-25-224-45-76-135-102-213-62-66 34-75 64-82 281-6 183-6 186-37 246-33 64-96 124-157 149-51 21-416 20-465-2zm390-94c52-16 108-64 130-113 16-34 19-67 19-202 0-191 11-240 71-308 53-60 107-87 185-94 116-9 217 47 268 150 25 49 26 60 26 212 0 89 5 179 11 200 16 58 54 110 102 137 38 22 55 24 187 27 142 3 146 3 200-25 41-21 62-40 85-77l30-49 3-714 3-713h-98c-123 0-204-19-303-71-180-93-313-287-327-475-4-47-2-78 5-87 12-14 78-12 87 3 3 4 9 41 15 81 14 103 73 224 142 292 59 58 153 112 232 133 75 20 488 19 546-1 60-21 112-66 140-122l25-48 3-545c2-350-1-558-7-580-21-73-65-125-132-159l-62-31h-225c-250 0-303 8-407 63-136 73-233 220-257 392l-13 90h-90l-3-58c-4-81 12-152 58-244 63-129 156-224 280-286 36-17 67-33 69-34 10-6-53-48-134-88-141-71-221-88-405-89-184 0-271 19-415 89-295 144-472 412-502 760l-8 90-135 5c-150 6-175 14-228 74-17 20-36 52-41 73-7 23-11 161-11 343 0 297-1 307-22 350-28 53-75 80-140 80-39 0-54-6-84-32-56-49-64-79-64-232 0-113-2-135-16-140-23-9-127-7-142 3-11 6-13 51-10 214l3 205 30 44c17 24 51 54 75 68 43 24 52 25 215 25s172-1 215-25c24-14 58-45 75-68l30-44 5-327c5-353 6-359 63-395 25-17 163-24 177-10 6 6 11 423 12 1081l3 1071 30 44c20 28 49 52 84 71 51 25 63 27 179 27 69 0 142-5 163-11zm1657-974c15-58 15-62-3-69-21-8-45 3-45 21 0 23 22 93 30 93 3 0 11-20 18-45z" id="path7"/><path d="M1376 969c-41-35-55-84-36-128 51-125 230-94 230 40 0 103-117 156-194 88z" id="path9"/><path d="M3096 738c-7-13-17-43-20-67-14-91-52-122-168-137-59-7-88-26-88-59 0-41 33-59 95-51 165 19 255 99 271 241 6 45 4 59-11 75-24 27-61 25-79-2z" id="path11"/></g></svg>