<svg xmlns="http://www.w3.org/2000/svg" viewBox="0 0 127.916 127.916" class="iconic iconic-lightbulb" id="svg43"><defs id="defs11"><clipPath id="iconic-size-lg-lightbulb-clip-0"><path d="M16.583 94H50v2.667l-39.083 6.375-.333-6.417z" id="path2"/></clipPath><clipPath id="iconic-size-lg-lightbulb-clip-1"><path d="M64 57l-14.5 8.25V82H15.25l-1.5-16L64 43z" id="path5"/></clipPath><linearGradient id="linearGradient4238" y2="88" gradientUnits="userSpaceOnUse" x2="52.045" y1="88" x1="11.955"><stop stop-color="#e74430" offset="0" id="stop8"/></linearGradient></defs><g data-width="64" class="iconic-lightbulb-lg iconic-container iconic-lg" data-height="128" id="g41" transform="translate(32)"><path d="M44.052 121.91l-23.834 4" class="iconic-lightbulb-screw iconic-lightbulb-screw-4 iconic-property-accent iconic-property-stroke" id="path13" stroke="#e74430" stroke-width="4" stroke-linecap="round" stroke-linejoin="round"/><g id="g27" fill="none" stroke="#e74430" stroke-linecap="round"><g id="g21" stroke-width="4"><path d="M48.052 111.91l-32 6" class="iconic-lightbulb-screw iconic-lightbulb-screw-3 iconic-property-accent iconic-property-stroke" id="path15"/><path d="M48.052 101.91l-32 6" class="iconic-lightbulb-screw iconic-lightbulb-screw-2 iconic-property-accent iconic-property-stroke" id="path17"/><path d="M48 92.5l-32 6" clip-path="url(#iconic-size-lg-lightbulb-clip-0)" class="iconic-lightbulb-screw iconic-lightbulb-screw-1 iconic-property-accent iconic-property-stroke" transform="translate(.052 -.09)" id="path19"/></g><path d="M60 54l-20 9v18.75" clip-path="url(#iconic-size-lg-lightbulb-clip-1)" class="iconic-lightbulb-coil iconic-lightbulb-coil-6 iconic-property-stroke" transform="translate(.052 -.09)" id="path23" stroke-width="8" stroke-linejoin="round"/><path d="M24 68v13.75" clip-path="url(#iconic-size-lg-lightbulb-clip-1)" class="iconic-lightbulb-coil iconic-lightbulb-coil-5 iconic-property-stroke" transform="translate(.052 -.09)" id="path25" stroke-width="8" stroke-linejoin="round"/></g><path d="M47 94H17c-1.657 0-3.221-1.325-3.493-2.959l-1.014-6.082C12.221 83.325 13.343 82 15 82h34c1.657 0 2.779 1.325 2.507 2.959l-1.014 6.082C50.221 92.675 48.657 94 47 94z" class="iconic-lightbulb-base iconic-property-fill" transform="translate(.052 -.09)" id="path29" fill="#e74430" stroke="url(#linearGradient4238)"/><g id="g39" fill="none" stroke="#e74430" stroke-width="8" stroke-linecap="round" stroke-linejoin="round"><path d="M60.052 37.91l-56 26" class="iconic-lightbulb-coil iconic-lightbulb-coil-4 iconic-property-stroke" id="path31"/><path d="M60.052 21.91l-56 26" class="iconic-lightbulb-coil iconic-lightbulb-coil-3 iconic-property-stroke" id="path33"/><path d="M60.052 5.91l-56 26" class="iconic-lightbulb-coil iconic-lightbulb-coil-2 iconic-property-stroke" id="path35"/><path d="M30.052 4.024l-26 11.886" class="iconic-lightbulb-coil iconic-lightbulb-coil-1 iconic-property-stroke" id="path37"/></g></g></svg>