<svg xmlns="http://www.w3.org/2000/svg" viewBox="0 0 191.158 191.158" id="svg10"><path d="M57.124 162.473c-7.282-5.72-15.05-11.22-20.36-18.95-11.168-13.64-19.768-29.42-25.647-46.01-3.554-10.79-4.771-22.36-9.352-32.732-4.792-7.533.82-15.768 9.073-18.162 3.673-.705 10.133-4.17 2.336-1.693-6.99 5.128-7.667-4.656-.5-5.276 4.893-.65 6.694-4.655 5.02-8.26-5.25-3.424 12.735-7.188 3.685-12.298-9.427-10.171 13.186-12.13 7.608-.578-1.336 8.882 15.8-1.628 11.825 8.63 4.04 4.925 15.134 1.12 14.858 8.03 5.887.405 7.907 5.359 13.434 5.739 5.727 2.586 16.11 4.625 18.06 11.079-5.683 4.499-18.841-9.293-19.473 3.16 1.716 18.396 1.279 37.346 8.009 54.866 3.183 10.608 10.9 18.958 17.87 27.22 6.67 8.09 15.702 13.786 24.91 18.582 8.076 3.81 16.783 6.336 25.585 7.92 3.57-2.73 9.873-12.882 15.442-8.601.265 4.81-11.054 10.055-.532 9.523 6.178-1.864 10.463 4.778 15.55-1.213 4.688 5.552 19.483-3.547 16.148 7.802-4.51 2.91-11.087 1.15-15.604 5.154-7.448-3.72-13.377 3.328-21.622 2.437-9.156 1.64-18.472 2.302-27.755 2.316-15.23-1.203-30.782-1.71-45.27-7.013-8.162-2.371-16.126-7.02-23.3-11.668zm12.862 5.573c7.97 3.446 15.762 7.079 24.497 8.174 13.857 1.928 28.167 4.892 42.073 2.188-6.294-2.842-12.801 1.107-19.071-2.032-7.52 1.618-15.59-.412-23.236-1.412-8.694-3.873-18.076-6.535-26.218-11.562-10.173-3.716 5.26 4.765 8.009 5.452 6.36 3.61-6.994-1.85-8.876-3.35-5.327-2.99-6.006-2.365-.528.67 1.104.646 2.194 1.322 3.35 1.872zm-15.168-10.71c7.723 2.86-.034-5.43-3.573-4.95-1.568-2.72-5.99-4.438-2.87-5.9-5.612 1.949-5.88-7.407-8.517-6.07-5.936-1.875-2.31-8.515-9.382-12.593-.645-4.297-7.025-8.024-9.06-14.505-.9-3.32-7.21-12.848-3.333-3.98 3.3 8.538 9.107 15.85 13.94 23.152 3.75 6.954 8.182 14.22 15.015 18.558 2.304 2.21 4.528 5.596 7.78 6.288zm-22.247-24.43c.27-1.166 1.412 2.524 0 0zm31.496 27.855c1.71-.766-2.46-.965 0 0zm4.192 1.53c-.434-2.113-1.914 1.18 0 0zm5.248 2.188c2.498-2.38-3.85-1.5 0 0zm8.994 5.013c1.518-2.244-4.86-.847 0 0zm-17.271-12.04c3.88-2.51-5.012-.034 0 0zm3.936 1.964c-.11-1.328-1.403.594 0 0zm19.675 12.28c3.163 1.996 18.47 4.374 8.885.818-1.604.338-17.773-4.573-8.885-.818zm-31.23-24.32c-.306-1.331-4.908-1.47 0 0zm9.16 5.338c2.384-1.663-4.947-1.283 0 0zm7.705 4.723c3.42-1.29-5.55-1.295 0 0zm-20.586-14.12c3.71 2.848 14.968.366 5.684-1.698-4.226-2.252-13.75-3.794-7.258 1.359zm25.809 15.753c1.546-2.633-6.483-1.504 0 0zm-7.843-6.232c9.076 2.567-7.631-5.74-2.24-.945l1.196.54zm15.724 9.087c8.595.082-7.763-1.184 0 0zm-36.993-23.58c-.335-1.6-2.12.135 0 0zm51.535 31.735c.23-2.89-2.805 2.152 0 0zm-36.868-22.753c-.52-1.522-2.685-.062 0 0zm-13.852-9.986c4.935-.296-6.755-2.174 0 0zm-16.406-10.62c-.614-2.365-5.37-4.252 0 0zm43.08 27.339c-.904-1.03-.426.225 0 0zm26.813 16.455c-.086-1.575-1.46.596 0 0zM75.702 151.61c.483-2.03-4.207-.614 0 0zm-19.967-12.67c3.67-.393-5.88-2.482 0 0zm33.787 21c5.72-2.266-5.575-1.106 0 0zm-17.577-11.932c6.593.85-7.844-4.484-1.446-.477zm22.913 14.089c6.155-3.68 4.126 8.617 10.443 1.039 6.23-4.55-5.38 5.624 2.299.81 5.553-3.713 13.756 1.76 18.938 3.548 3.726-.183 7.35 3.223 11.17 1.15 7.354-1.98-14.381-2.937-8.684-6.452-6.73 1.959-11.7-2.334-15.012-6.645-7.548-1.743-16.275-5.602-20.043-12.282-1.536-2.508 2.22.354-1.326-3.746-4.548-4.046-6.82-8.638-9.872-13.555-3.648-1.946-4.073-7.673-4.442-.192.03-4.722-4.403-7.9-5.485-6.58-.02-4.546 4.744-2.267 1.409-5.631-.718-4.713-3.08-9.624-3.791-14.945-1.104-2.565-.156-8.06-3.767-2.252-1.316 6.137-.436-7.541 1.61-3.03 2.685-4.603-.965-4.062-1.114-3.423 1.75-3.883 1.107-9.391-.457-7.29.933-4.116 1.473-15.148-1.395-13.193 1.739-4.304 3.297-19.694-4.25-13.826-3.058.043-8.354 1.11-10.857 2.355 7.85 4.327-.79 1.563-3.985.875-.416 4.004-3.581 2.272-7.535 2.31 6.315.783-3.075 6.46-6.698 4.255-4.705 2.249 4.06 7.862.094 9.597.488 2.617-7.208-.944-6.604 5.098-4.567-1.921-.63 7.168 1.657 4.094 7.769 2.103 5.469 6.896 5.667 11.45-1.266 2.653-6.25-6.237-1.11-5.825-4.055-6.587-4.486-2.381-7.855.679-.784.222 8.594 4.354 2.71 6.397 5.177.798 5.324 5.33 6.378 8.197 3.113 3.24 2.476-3.58 6.2.316-2.357-3.47-12.482-9.778-4.33-7.755-.044-3.493-1.474-6.31 1.023-6.241 2.474-4.48-2.59 11.044 2.985 5.35 1.543-.673 1.925-4.484 4.7.36 4.028 3.964 1.455 6.837-4.23 3.207 1.018 3.45 7.604 4.682 6.366 10.076 1.313 4.745 3.148 2.997 4.748 2.723 1.256 4.61 1.968 1.22 2.028-.974 5.747 1.23 4.4 4.628 6.2 7.002 3.96 1.787-5.67-12.117 1.13-4.181 7.154 6.458 2.683 9.154-3.737 8.12 4.063-.33 5.374 5.493 10.456 5.288 4.635 2.205 7.773 10.673-.216 7.148-2.77-2.498-12.576-5.58-4.567-.828 7.397 3.425 13.27 5.474 20.405 9.773 5.105 3.645 7.31 7.82 9.246 8.646-4.29 2.05-12.931-1.637-6.515-2.766-4.002-.73-8.503-2.753-4.67 2.233 3.26 2.72 11.547 2.433 13.033 2.74-1.26 2.776-3.42 2.997.052 3.212-3.874 2.064 1.242 2.384 1.6 3.564zm-7.921-22.37c-2.357-2.465-2.966-7.081-.42-3.064 1.308.524 4.187 7.544.42 3.064zm25.797 16.387c1.47-.095.043 1.117 0 0zm-29.52-22.43c-.09-3.726.853 2.874 0 0zm-2.563-3.45c-2.965-5.728 3.737 1.622 0 0zm-31.067-21.45c1.742-.464.857 2.979 0 0zm24.728 13.404c1.07-4.016 1.257 3.37 0 0zm-17.47-12.14c-1.231-2.216 2.577 2.079 0 0zm14.994 4.807c-2.81-6.293 1.988-3.437.62 1.03zm-25.851-17.25c-1.256-2.065-3.333-8.122-2.664-9.97.605 3.01 6.404 12.96 2.845 4.12-3.934-7.41 4.7 2.405 5.59 4.253.413 1.838-2.427-.502-.502 3.808-3.51-4.907-2.072 2.71-5.27-2.211zm-7.99-5.507c.328-4.8 1.829 3.292 0 0zm3.594 1.238c1.715-3.623 2.908 5.05 0 0zm-8.647-6.69c-2.975-2.955-5.127-5.68.14-1.833 2.03.079-4.51-6.197.488-1.993 5.256.958 2.595 8.616-.628 3.827zm4.542-.117c1.728-1.712.917 1.685 0 0zm2.795.895c-2.62-4.91 3.178 2.059 0 0zm-5.556-5.31c-8.648-7.695 10.867 4.026 1.413 1.428zm24.78 14.398c-3.743-2.244-.993-15.797.284-6.527 3.638-1.177-.201 4.787 2.512 4.732-.427 3.763-1.641 5.116-2.797 1.795zm9.164 5.417c.367-4.084.773 2.793 0 0zm-1.592-1.573c.412-1.745.043 2.055 0 0zM36.42 79.576c-5.556-7.666 16.147 7.754 3.559 1.944-1.315-.344-2.898-.466-3.56-1.944zm17.65 9.358c-.526-6.455 1.174 1.07 0 0zm13.4 8.595c1.036-3.676.077 2.433 0 0zM37.272 76.644c3.303-.706 13.685 5.8 4.15 1.859-1.06-1.173-3.317-.64-4.15-1.86zM65.63 90.778c.353-6.6 1.972-3.942.013.945zM39.733 74.345c1.346-1.973-3.571-8.923.71-2.492 1.849 1.47 5.354 2.462 2.26 3.08 4.867 4.294-1.188 1.163-2.97-.588zM64.23 88.713c.93-7.518.82 4.405 0 0zM36.922 67.398c1.028-.44.543 1.37 0 0zm6.39 3.804c1.644-3.45 3.033 3.848 0 0zm18.024 10.026c-.017-1.326.34 1.927 0 0zm-1.044-2.312c-2.502-6.171 2.327 3.268 0 0zm-1.536-4.046c-.42-2.55 1.427 3.204 0 0zm2.5-4.064c-1.717-3.025 2.168-13.33 2.6-6.94-1.811 4.98-.522 7.767.742 1.087 2.334-5.257-.504 10.374-3.342 5.853zm2.569-15.327c.748-.92.166 1.107 0 0zm-4.29 84.534c-1.018-.888.127.565 0 0zm8.837 4.47c4.916 1.262 4.89-.764.448-1.366-2.39-2.223-9.93-4.581-3.181-.276.447 1.133 1.86 1.106 2.733 1.643zm-17.462-11.59c2.709 2.02 10.2 5.725 3.859.77 2.138-2.485-4.094-3.808-2.027-5.47-5.258-3.217-4.148-2.931-.464-2.83-6.32-2.824.913-2.613.572-4.06-2.437-.482-12.103-4.297-6.416.313-5.781-2.948-1.378 1.098-3.125.67-5.912-1.612 5.264 4.502-.94 2.985 3.392 2.687 9.13 6.884 1.435 2.844-1.014 1.459 5.506 3.67 7.106 4.779zm9.244 5.31c11.239 3.623-5.51-4.424 0 0zm47.316 28.665c.145-2.23-1.536 1.902 0 0zm4.863 2.047c2.593-2.513.106 4.002 4.296-.615.046-3.306-.13-5.258-4.815-1.243-1.292.717-1.87 3.763.519 1.858zm-77.198-48.48c-.797-3.13-5.582-3.114 0 0zm5.193 3.403c-1.93-3.198-6.88-2.895 0 0zm29.543 17.817c2.884 2.562 13.248 1.88 3.503.315-1.443-2.134-9.164-1.62-3.503-.315zm40.612 25.082c4.44-3.725-4.301 1.66 0 0zm9.233 6.344c.027-1.195-1.914.524 0 0zm.014-1.673c4.916-5.21-4.764.308 0 0zm-97.36-61.67c-4.19-5.98-2.605-8.666-6.645-13.547-.765-3.733-6.932-12.203-3.19-3.23 3.428 5.249 4.446 13.374 9.835 16.776zm95.826 60.01c9.044-5.846-3.713-2.547 0 0zm6.904 2.704c4.529-3.888-2.865-.813 0 0zm-91.497-58.62c1.296-1.928-3.348-.246 0 0zm90.056 56.783c4.385-2.827-1.01-2.393-.795.26zm-59.514-37.512c-.15-1.91-2.316.162 0 0zm3.678 2.117c-1.17-2.364-1.797.37 0 0zm62.872 37.306c5.618-4.053-3.406-.776-1.18.768zm-2.152-1.04c4.577-3.835-4.831 1.7 0 0zm10.992 7.32c3.073-2.06-3.733-.666 0 0zm-103.12-66.37c4.12.923 16.46 10.144 9.18.637-3.73-1.103-1.493-10.22-5.296-8.605 2.553 4.264 2.1 6.08-3.26 3.39-6.737-3.288-3.786 1.63-2.47 2.986-1.793.408 2.374 1.557 1.847 1.592zM17.65 97.615c.738-3.05-6.79-16.78-3.554-6.88 1.168 2.074 1.05 6.004 3.554 6.88zm34.443 21.235c-2.12-1.774-.1-.251 0 0zm5.223 1.215c-.002-3.23-5.773-1.312 0 0zm45.26 28.533c-.862-2.207-3.411-.051 0 0zm2.175 1.588c-.32-1.236-1.254.238 0 0zm17.94 11.3c1.725-1.275-2.153-.163 0 0zm-95.661-61.48c4.935-1.91-5.288-1.363 0 0zm71.57 45.089c-.055-3.195-3.146.793 0 0zm-73.521-49.63c3.17-1.07-2.933-.705 0 0zm9.2 4.457c-.056-1.05-.972.398 0 0zm112.23 68.822c4.078-.826 13.367 2.075 14.869-1.08-4.95-.12-17.127-3.493-17.703.804l1.084.17 1.752.106zm-109.3-68.09c.072-3.237-2.523-.12 0 0zm-24.192-16.78c-1.098-6.168-4.178-.933 0 0zm5.77 1.45c.07-1.98-5.28-1.782 0 0zm3.297 1.62c-.953-.772-.746.975 0 0zm20.745 13.307c.976-.897-2.313-.664 0 0zM19.888 83.29c-.558-4.66-6.682-.698 0 0zM8.06 75.613c-.17-2.15-1.153.812 0 0zm1.759-1.328c-.287-2.55-1.51.324 0 0zm9.72 5.802c4.11-1.614-7.487-3.34-.84-.305zm130.1 80.36c2.632-2.413-3.343-.747 0 0zm15.718 8.146c1.054-3.12-2.655.41 0 0zm-144.82-93.6c.433-3.017-3.26.6 0 0zm-13.83-9.266c-.743-4.26-.642-11.735 6.465-9.21-9.486 1.885 6.565 11.79 4.538 3.97 3.989.195 7.803-2.357 5.71 1.516 7.858-.868 13.307-7.682 20.898-6.727 5.913-.783 12.378-1.376 18.75-3.757 5.239-.377 10.282-6.018 7.41-9.361-7.144-.605-14.623.29-22.52 1.859-8.75 1.82-16.7 5.275-25.528 6.759-8.606 1.156 1.73 3.185-.734 3.637-4.49 1.558 5.356 2.609-.582 4.25-3.67-.696-7.486-1.955-5.92-5.82-8.243 1.07-15.487 4.49-8.974 12.88l.485.004zM26.57 55.61c1.933-7.12 10.355 5.86 3.168.946-.86-.643-2.27-1.167-3.168-.946zm.376-3.452c2.79-2.078 1.483 1.165 0 0zm3.542.056c.252-3.276 8.109 1.735 1.295 1.18zm4.845-1.948c1.77-2.068.509 1.839 0 0zm1.24-.83c2.946-3.54 16.686-2.26 6.629-.345-2.696-2.03-4.762 1.196-6.63.345zm17.93-2.764c-.448-9.67 8.908 3.436 0 0zm5.087-.028c1.86-4.874 7.219-1.956.86-.98.139.52-.185 2.517-.86.98zM18.53 72.492c5.558-3.403-5.9-2.952 0 0zm4.11 1.142c1.948-2.072-4.234-.84 0 0zM10.532 65.04c3.175-2.44-3.758-.927 0 0zm164.11 102.66c.09-2.83-2.428 1.275 0 0zm-16.675-11.38c.474-3.257-2.143.285 0 0zm21.26 12.478c4.44.015 13.453-1.38 3.792-1.374-1.516.236-8.833.185-3.792 1.374zM26.267 71.632c3.593-.247 5.622-3.964-.695-3.75-9.79-1.014 8.637 3.352-1.256 2.104-1.33.88 1.873 1.89 1.95 1.646zm3.164 1.602c-.375-2.307-1.111 1.225 0 0zm3.754-10.01c1.56-1.934-2.158-.517 0 0zm-11.95-19.976c6.412-2.182 15.18-4.633 18.21 1.074-3.082-3.71-1.244-7.36 1.666-1.938 4.116 5.487 6.176-2.495 3.5-4.335 3.05 3.79 6.52 5.58 2.042.24 4.865-5.854-9.743.766-13.063.699-1.598.717-16.494 3.799-12.356 4.26zm3.757-7.198c3.658-2.76 12.65 1.642 6.88-2.744-.565-.498-12.636 3.326-6.88 2.744zm13.333.55c4.28.11-1.846-5.75 3.255-3.095-.838-2.736-5.94-3.25-8.433-4.342-1.41 2.502 2.87 7.47 5.178 7.437zM27.33 24.498c1.48-2.007-2.595 1.018 0 0zm5.45 1.305c6.898-.915-1.758-2.97-1.39-.074zM22.604 17.84c-4.857-6.34 9.134 1.066 4.2-5.573-4.154-3.307-8.145 3.722-4.2 5.573zm62.33 33.573c2.228-3.95-9.197-5.323-1.5-1.4.708.237.547 1.673 1.5 1.4z" id="path2" fill="#333"/></svg>