<svg width="14" height="14" viewBox="0 0 14 14" fill="none" xmlns="http://www.w3.org/2000/svg">
<path d="M0.8125 0.8125V3.0625C6.39813 3.0625 10.9375 7.60187 10.9375 13.1875H13.1875C13.1875 6.35313 7.64687 0.8125 0.8125 0.8125ZM0.8125 4.75V7C4.22688 7 7 9.77312 7 13.1875H9.25C9.25 8.53 5.47 4.75 0.8125 4.75ZM2.5 9.8125C2.05245 9.8125 1.62322 9.99029 1.30676 10.3068C0.99029 10.6232 0.8125 11.0524 0.8125 11.5C0.8125 11.9476 0.99029 12.3768 1.30676 12.6932C1.62322 13.0097 2.05245 13.1875 2.5 13.1875C2.94755 13.1875 3.37678 13.0097 3.69324 12.6932C4.00971 12.3768 4.1875 11.9476 4.1875 11.5C4.1875 11.0524 4.00971 10.6232 3.69324 10.3068C3.37678 9.99029 2.94755 9.8125 2.5 9.8125Z" fill="#E06E38"/>
</svg>
