<svg width="330" height="330" viewBox="0 0 330 330" fill="none" xmlns="http://www.w3.org/2000/svg">
<mask id="path-1-inside-1_9018_42" fill="white">
<path d="M0 38C0 17.0132 17.0132 0 38 0H292C312.987 0 330 17.0132 330 38V292C330 312.987 312.987 330 292 330H38C17.0132 330 0 312.987 0 292V38Z"/>
</mask>
<path d="M0 38C0 17.0132 17.0132 0 38 0H292C312.987 0 330 17.0132 330 38V292C330 312.987 312.987 330 292 330H38C17.0132 330 0 312.987 0 292V38Z" fill="#3D5AF1"/>
<path d="M0 0H330H0ZM330 292C330 323.645 304.347 349.298 272.702 349.298H38C6.35505 349.298 -19.2982 323.645 -19.2982 292H19.2982C19.2982 302.329 27.6713 310.702 38 310.702H292C312.987 310.702 330 302.329 330 292ZM38 349.298C6.35505 349.298 -19.2982 323.645 -19.2982 292V57.2982C-19.2982 25.6533 6.35505 0 38 0C27.6713 0 19.2982 17.0132 19.2982 38V292C19.2982 302.329 27.6713 310.702 38 310.702V349.298ZM330 0V330V0Z" fill="#0028F9" mask="url(#path-1-inside-1_9018_42)"/>
<path d="M227.754 190.088C229.193 187.595 232.724 187.517 234.294 189.854L234.439 190.088L271.625 254.495C273.11 257.068 271.253 260.285 268.282 260.285H193.911C191.033 260.285 189.199 257.266 190.438 254.738L190.568 254.495L227.754 190.088Z" fill="white" stroke="white" stroke-width="3.85965"/>
<path d="M102.763 60.7893C122.191 60.7895 137.982 76.7505 137.982 96.4915C137.982 116.232 122.191 132.192 102.763 132.193C83.3358 132.193 67.5438 116.232 67.5437 96.4915C67.5437 76.7504 83.3357 60.7893 102.763 60.7893Z" fill="white" stroke="white" stroke-width="3.85965"/>
<path d="M231.579 56.9299C232.415 56.9299 233.156 57.4679 233.415 58.2629L242.729 86.9329H272.875C273.711 86.9329 274.452 87.4717 274.711 88.2668C274.953 89.0121 274.719 89.824 274.132 90.3274L274.01 90.4241L249.621 108.143L258.936 136.813C259.195 137.608 258.911 138.479 258.235 138.97C257.559 139.461 256.643 139.461 255.967 138.97L231.579 121.25L207.191 138.97C206.515 139.461 205.599 139.461 204.923 138.97C204.246 138.479 203.963 137.608 204.221 136.813L213.537 108.143L189.149 90.4241C188.473 89.9327 188.19 89.0619 188.448 88.2668C188.706 87.4718 189.447 86.9329 190.283 86.9329H220.428L229.744 58.2629L229.798 58.1174C230.095 57.4031 230.795 56.93 231.579 56.9299Z" fill="white" stroke="white" stroke-width="3.85965" stroke-linejoin="round"/>
<path d="M140.978 207.604V247.833L106.14 267.947L71.3025 247.833V207.605L106.14 187.491L140.978 207.604Z" fill="white" stroke="white" stroke-width="3.85965"/>
</svg>
