<svg xmlns="http://www.w3.org/2000/svg" version="1.1" xmlns:xlink="http://www.w3.org/1999/xlink" width="1000" height="1000"><style>
    #light-icon {
      display: inline;
    }
    #dark-icon {
      display: none;
    }

    @media (prefers-color-scheme: dark) {
      #light-icon {
        display: none;
      }
      #dark-icon {
        display: inline;
      }
    }
  </style><g id="light-icon"><svg xmlns="http://www.w3.org/2000/svg" version="1.1" xmlns:xlink="http://www.w3.org/1999/xlink" width="1000" height="1000"><g><g transform="matrix(7.092198581560283,0,0,7.092198581560283,28.368794326241186,5.684341886080802e-14)"><svg xmlns="http://www.w3.org/2000/svg" width="133" height="141" viewBox="0 0 133 141" fill="none"><path d="M0 87.7276L28.4607 0H54.2406L25.671 87.7276H0Z" fill="#1C0E00"></path><path d="M78.4274 140.752L106.888 53.0249H132.668L104.098 140.752H78.4274Z" fill="#1C0E00"></path><path d="M48.5793 70.3789C48.5793 65.4216 50.2268 61.2905 53.5219 57.9856C56.9347 54.6807 61.1713 53.0283 66.2316 53.0283C71.292 53.0283 75.4697 54.6807 78.7648 57.9856C82.1776 61.2905 83.884 65.4216 83.884 70.3789C83.884 75.3362 82.1776 79.4673 78.7648 82.7722C75.4697 86.0771 71.292 87.7296 66.2316 87.7296C61.1713 87.7296 56.9347 86.0771 53.5219 82.7722C50.2268 79.4673 48.5793 75.3362 48.5793 70.3789Z" fill="#1C0E00"></path></svg></g></g></svg></g><g id="dark-icon"><svg xmlns="http://www.w3.org/2000/svg" version="1.1" xmlns:xlink="http://www.w3.org/1999/xlink" width="1000" height="1000"><g><g transform="matrix(7.092198581560283,0,0,7.092198581560283,28.368794326241186,5.684341886080802e-14)"><svg xmlns="http://www.w3.org/2000/svg" width="133" height="141" viewBox="0 0 133 141" fill="none"><path d="M0 87.7276L28.4607 0H54.2406L25.671 87.7276H0Z" fill="white"></path><path d="M78.4274 140.752L106.888 53.0249H132.668L104.098 140.752H78.4274Z" fill="white"></path><path d="M48.5793 70.3789C48.5793 65.4216 50.2268 61.2905 53.5219 57.9856C56.9347 54.6807 61.1713 53.0283 66.2316 53.0283C71.292 53.0283 75.4697 54.6807 78.7648 57.9856C82.1776 61.2905 83.884 65.4216 83.884 70.3789C83.884 75.3362 82.1776 79.4673 78.7648 82.7722C75.4697 86.0771 71.292 87.7296 66.2316 87.7296C61.1713 87.7296 56.9347 86.0771 53.5219 82.7722C50.2268 79.4673 48.5793 75.3362 48.5793 70.3789Z" fill="white"></path></svg></g></g></svg></g></svg>